G04 #@! TF.FileFunction,Soldermask,Bot*
%FSLAX46Y46*%
G04 Gerber Fmt 4.6, Leading zero omitted, Abs format (unit mm)*
G04 Created by KiCad (PCBNEW (2015-07-01 BZR 5850)-product) date Sat Sep  5 15:37:45 2015*
%MOMM*%
G01*
G04 APERTURE LIST*
%ADD10C,0.025400*%
%ADD11C,0.127000*%
%ADD12C,1.200000*%
%ADD13C,1.016000*%
%ADD14C,3.810000*%
%ADD15C,1.524000*%
%ADD16R,1.524000X1.524000*%
%ADD17C,1.778000*%
%ADD18R,1.778000X1.778000*%
%ADD19C,2.540000*%
%ADD20C,1.800000*%
%ADD21O,3.048000X4.572000*%
%ADD22R,3.048000X4.572000*%
%ADD23O,4.572000X3.048000*%
%ADD24C,6.096000*%
%ADD25C,2.032000*%
%ADD26R,0.500000X1.700000*%
%ADD27R,0.700000X0.850000*%
%ADD28C,2.000000*%
%ADD29C,3.000000*%
G04 APERTURE END LIST*
D10*
D11*
X18000000Y-94000000D02*
X109000000Y-94000000D01*
X113000000Y-44700000D02*
X108300000Y-49000000D01*
X113000000Y-18000000D02*
X113000000Y-44700000D01*
X108300000Y-55500000D02*
X108300000Y-49000000D01*
X108300000Y-62000000D02*
X108300000Y-55500000D01*
X113000000Y-66200000D02*
X108300000Y-62000000D01*
X113000000Y-90000000D02*
X113000000Y-66200000D01*
X14000000Y-18000000D02*
X14000000Y-90000000D01*
X109000000Y-14000000D02*
X18000000Y-14000000D01*
X113000000Y-18000000D02*
G75*
G03X109000000Y-14000000I-4000000J0D01*
G01*
X109000000Y-94000000D02*
G75*
G03X113000000Y-90000000I0J4000000D01*
G01*
X14000000Y-90000000D02*
G75*
G03X18000000Y-94000000I4000000J0D01*
G01*
X18000000Y-14000000D02*
G75*
G03X14000000Y-18000000I0J-4000000D01*
G01*
D12*
X67800000Y-78300000D03*
X77200000Y-79600000D03*
X75000000Y-80100000D03*
X72500000Y-78500000D03*
X72500000Y-80100000D03*
X67800000Y-81000000D03*
X75800000Y-92600000D03*
X72800000Y-92600000D03*
X49800000Y-92700000D03*
X46800000Y-92700000D03*
X51200000Y-79600000D03*
X41900000Y-81000000D03*
X49000000Y-80100000D03*
X46500000Y-78500000D03*
X46500000Y-80100000D03*
X88300000Y-78200000D03*
X88300000Y-81200000D03*
X61800000Y-81200000D03*
X61800000Y-78200000D03*
X31500000Y-74900000D03*
X58750000Y-45250000D03*
X77500000Y-57500000D03*
X80500000Y-66750000D03*
X91750000Y-66750000D03*
X82000000Y-45200000D03*
X83900000Y-45800000D03*
X80100000Y-45800000D03*
X60000000Y-69000000D03*
X72500000Y-33700000D03*
X89100000Y-36300000D03*
X81900000Y-36300000D03*
X97400000Y-28000000D03*
X87400000Y-28000000D03*
X83700000Y-24400000D03*
X52200000Y-44600000D03*
X52200000Y-56100000D03*
X53500000Y-92700000D03*
X79600000Y-92600000D03*
X69000000Y-92600000D03*
X41800000Y-78300000D03*
X82000000Y-62500000D03*
X69300000Y-62700000D03*
X43000000Y-92700000D03*
X40100000Y-92700000D03*
X54000000Y-64000000D03*
X65800000Y-61800000D03*
X40600000Y-39900000D03*
X44800000Y-24100000D03*
X35600000Y-24100000D03*
X27300000Y-26000000D03*
X39300000Y-24100000D03*
D13*
X71000000Y-55500000D03*
X84700000Y-52200000D03*
X84700000Y-50300000D03*
X84700000Y-54700000D03*
X66000000Y-68500000D03*
X73700000Y-59300000D03*
X73700000Y-57700000D03*
X73650000Y-63400000D03*
X73700000Y-61000000D03*
X67000000Y-69500000D03*
D14*
X100750000Y-44959000D03*
X100750000Y-66041000D03*
D15*
X69500000Y-75730000D03*
X69500000Y-78270000D03*
X43500000Y-75730000D03*
X43500000Y-78270000D03*
D16*
X64960000Y-52770000D03*
D15*
X64960000Y-50230000D03*
X67500000Y-52770000D03*
X67500000Y-50230000D03*
X70040000Y-52770000D03*
X70040000Y-50230000D03*
D16*
X105000000Y-29150000D03*
X105000000Y-31690000D03*
D15*
X105000000Y-34230000D03*
X105000000Y-36770000D03*
X105000000Y-39310000D03*
X105000000Y-41850000D03*
D17*
X92250000Y-39560000D03*
X92250000Y-37020000D03*
X92250000Y-34480000D03*
D18*
X92250000Y-31940000D03*
D17*
X85000000Y-39560000D03*
X85000000Y-37020000D03*
X85000000Y-34480000D03*
D18*
X85000000Y-31940000D03*
D15*
X56000000Y-51040000D03*
X56000000Y-48500000D03*
X56000000Y-45960000D03*
X98230000Y-89000000D03*
X100770000Y-89000000D03*
D19*
X18204000Y-52056000D03*
X18204000Y-44944000D03*
X34460000Y-44486800D03*
X34460000Y-52513200D03*
D20*
X37000000Y-50500000D03*
X37000000Y-46500000D03*
X39540000Y-49770000D03*
X39540000Y-47230000D03*
D21*
X100750000Y-76200000D03*
D22*
X94654000Y-76200000D03*
D23*
X97575000Y-71120000D03*
D15*
X56000000Y-62540000D03*
X56000000Y-60000000D03*
X56000000Y-57460000D03*
D19*
X18204000Y-63556000D03*
X18204000Y-56444000D03*
X34460000Y-55986800D03*
X34460000Y-64013200D03*
D20*
X37000000Y-62000000D03*
X37000000Y-58000000D03*
X39540000Y-61270000D03*
X39540000Y-58730000D03*
D24*
X18000000Y-18000000D03*
X109000000Y-18000000D03*
X18000000Y-90000000D03*
X109000000Y-90000000D03*
D17*
X22210000Y-80250000D03*
X29830000Y-80250000D03*
X27290000Y-80250000D03*
X19670000Y-80250000D03*
X24750000Y-80250000D03*
X82222500Y-19000000D03*
X77777500Y-19000000D03*
D25*
X83492500Y-21540000D03*
X76507500Y-21540000D03*
D17*
X77777500Y-25477000D03*
X82222500Y-25477000D03*
X78730000Y-23572000D03*
X81270000Y-23572000D03*
X102222500Y-19000000D03*
X97777500Y-19000000D03*
D25*
X103492500Y-21540000D03*
X96507500Y-21540000D03*
D17*
X97777500Y-25477000D03*
X102222500Y-25477000D03*
X98730000Y-23572000D03*
X101270000Y-23572000D03*
X92222500Y-19000000D03*
X87777500Y-19000000D03*
D25*
X93492500Y-21540000D03*
X86507500Y-21540000D03*
D17*
X87777500Y-25477000D03*
X92222500Y-25477000D03*
X88730000Y-23572000D03*
X91270000Y-23572000D03*
D26*
X79000000Y-82000000D03*
D27*
X79500000Y-82425000D03*
X79500000Y-81575000D03*
X78500000Y-81575000D03*
X78500000Y-82425000D03*
D26*
X53000000Y-82000000D03*
D27*
X53500000Y-82425000D03*
X53500000Y-81575000D03*
X52500000Y-81575000D03*
X52500000Y-82425000D03*
D12*
X58800000Y-56200000D03*
D28*
X76500000Y-41000000D03*
X76500000Y-38500000D03*
X76500000Y-36000000D03*
X76500000Y-31000000D03*
X76500000Y-33500000D03*
D29*
X41000000Y-18000000D03*
X27000000Y-18000000D03*
X55000000Y-18000000D03*
X69000000Y-18000000D03*
M02*
