G04 #@! TF.FileFunction,Paste,Top*
%FSLAX46Y46*%
G04 Gerber Fmt 4.6, Leading zero omitted, Abs format (unit mm)*
G04 Created by KiCad (PCBNEW 4.0.0-2.201511301921+6191~38~ubuntu15.10.1-stable) date Mon Dec  7 23:41:22 2015*
%MOMM*%
G01*
G04 APERTURE LIST*
%ADD10C,0.025400*%
%ADD11C,0.127000*%
%ADD12C,14.000000*%
%ADD13R,3.048000X1.625600*%
%ADD14R,1.700000X2.500000*%
%ADD15R,2.500000X1.700000*%
%ADD16R,1.270000X1.016000*%
%ADD17R,1.400000X1.400000*%
%ADD18R,2.032000X3.810000*%
%ADD19R,2.032000X1.524000*%
%ADD20R,3.810000X2.032000*%
%ADD21R,1.524000X2.032000*%
%ADD22R,1.998980X0.599440*%
%ADD23R,1.998980X0.449580*%
%ADD24R,0.449580X1.998980*%
%ADD25R,1.400000X1.200000*%
%ADD26R,1.000000X1.450000*%
%ADD27R,1.450000X1.000000*%
%ADD28R,1.100000X1.150000*%
%ADD29R,2.600000X3.200000*%
%ADD30R,0.609600X2.032000*%
%ADD31R,1.450000X1.150000*%
%ADD32R,1.150000X1.450000*%
%ADD33R,4.300000X2.400000*%
%ADD34R,3.500000X2.500000*%
%ADD35R,7.500000X3.000000*%
%ADD36R,0.609600X3.048000*%
%ADD37R,1.549400X0.596900*%
G04 APERTURE END LIST*
D10*
D11*
X4000000Y0D02*
X95000000Y0D01*
X99000000Y49300000D02*
X94300000Y45000000D01*
X99000000Y76000000D02*
X99000000Y49300000D01*
X94300000Y38500000D02*
X94300000Y45000000D01*
X94300000Y32000000D02*
X94300000Y38500000D01*
X99000000Y27800000D02*
X94300000Y32000000D01*
X99000000Y4000000D02*
X99000000Y27800000D01*
X0Y76000000D02*
X0Y4000000D01*
X95000000Y80000000D02*
X4000000Y80000000D01*
X99000000Y76000000D02*
G75*
G03X95000000Y80000000I-4000000J0D01*
G01*
X95000000Y0D02*
G75*
G03X99000000Y4000000I0J4000000D01*
G01*
X0Y4000000D02*
G75*
G03X4000000Y0I4000000J0D01*
G01*
X4000000Y80000000D02*
G75*
G03X0Y76000000I0J-4000000D01*
G01*
D12*
X86750000Y38500000D03*
D13*
X44214000Y64000000D03*
X48786000Y64063500D03*
D14*
X28250000Y47500000D03*
X28250000Y43500000D03*
X21750000Y5000000D03*
X21750000Y9000000D03*
D15*
X83500000Y10000000D03*
X87500000Y10000000D03*
D16*
X73500000Y25984000D03*
X73500000Y28016000D03*
X70750000Y25984000D03*
X70750000Y28016000D03*
X68000000Y25984000D03*
X68000000Y28016000D03*
X76250000Y25984000D03*
X76250000Y28016000D03*
D14*
X28250000Y36000000D03*
X28250000Y32000000D03*
D10*
G36*
X62123000Y33976500D02*
X62377000Y33976500D01*
X62885000Y32452500D01*
X61615000Y32452500D01*
X62123000Y33976500D01*
X62123000Y33976500D01*
G37*
G36*
X61615000Y30547500D02*
X62885000Y30547500D01*
X62377000Y29023500D01*
X62123000Y29023500D01*
X61615000Y30547500D01*
X61615000Y30547500D01*
G37*
D17*
X62250000Y31500000D03*
D18*
X31825000Y45500000D03*
D19*
X38175000Y45500000D03*
X38175000Y47786000D03*
X38175000Y43214000D03*
D18*
X50325000Y58000000D03*
D19*
X56675000Y58000000D03*
X56675000Y60286000D03*
X56675000Y55714000D03*
D18*
X31825000Y34000000D03*
D19*
X38175000Y34000000D03*
X38175000Y36286000D03*
X38175000Y31714000D03*
D20*
X21750000Y12325000D03*
D21*
X21750000Y18675000D03*
X19464000Y18675000D03*
X24036000Y18675000D03*
D22*
X72650740Y39305000D03*
X72650740Y40575000D03*
X72650740Y41845000D03*
X72650740Y43115000D03*
X72650740Y44385000D03*
X72650740Y45655000D03*
X72650740Y46925000D03*
X72650740Y48195000D03*
X63349260Y48195000D03*
X63349260Y46925000D03*
X63349260Y45655000D03*
X63349260Y44385000D03*
X63349260Y43115000D03*
X63349260Y41845000D03*
X63349260Y40575000D03*
X63349260Y39305000D03*
D23*
X49099640Y29000920D03*
X49099640Y29801020D03*
X49099640Y30601120D03*
X49099640Y31401220D03*
X49099640Y32198780D03*
X49099640Y32998880D03*
X49099640Y33798980D03*
X49099640Y34599080D03*
X57400360Y34599080D03*
X57400360Y29000920D03*
X57400360Y29801020D03*
X57400360Y30601120D03*
X57400360Y31401220D03*
X57400360Y32198780D03*
X57400360Y32998880D03*
X57400360Y33798980D03*
D24*
X50450920Y35950360D03*
X51251020Y35950360D03*
X52051120Y35950360D03*
X52851220Y35950360D03*
X53648780Y35950360D03*
X54448880Y35950360D03*
X55248980Y35950360D03*
X56049080Y35950360D03*
X50450920Y27649640D03*
X51251020Y27649640D03*
X52051120Y27649640D03*
X52851220Y27649640D03*
X53648780Y27649640D03*
X54448880Y27649640D03*
X55248980Y27649640D03*
X56049080Y27649640D03*
D25*
X44100000Y28300000D03*
X41900000Y26700000D03*
X44100000Y26700000D03*
X41900000Y28300000D03*
D26*
X76950000Y66000000D03*
X75050000Y66000000D03*
X86950000Y66000000D03*
X85050000Y66000000D03*
D27*
X76250000Y22300000D03*
X76250000Y24200000D03*
D26*
X70950000Y36500000D03*
X69050000Y36500000D03*
D27*
X68000000Y22300000D03*
X68000000Y24200000D03*
X70750000Y22300000D03*
X70750000Y24200000D03*
X73500000Y22300000D03*
X73500000Y24200000D03*
X24250000Y6050000D03*
X24250000Y7950000D03*
X44500000Y58950000D03*
X44500000Y57050000D03*
D26*
X25550000Y56000000D03*
X27450000Y56000000D03*
X83700000Y56750000D03*
X81800000Y56750000D03*
X83700000Y59500000D03*
X81800000Y59500000D03*
X66950000Y66000000D03*
X65050000Y66000000D03*
D28*
X40000000Y26600000D03*
X40000000Y28400000D03*
X46000000Y28400000D03*
X46000000Y26600000D03*
D26*
X69450000Y10250000D03*
X67550000Y10250000D03*
X43700000Y10250000D03*
X41800000Y10250000D03*
D29*
X28900000Y14750000D03*
X36100000Y14750000D03*
X54650000Y14750000D03*
X61850000Y14750000D03*
D30*
X39095000Y7413000D03*
X39095000Y2587000D03*
X40365000Y7413000D03*
X41635000Y7413000D03*
X42905000Y7413000D03*
X40365000Y2587000D03*
X41635000Y2587000D03*
X42905000Y2587000D03*
X64845000Y7413000D03*
X64845000Y2587000D03*
X66115000Y7413000D03*
X67385000Y7413000D03*
X68655000Y7413000D03*
X66115000Y2587000D03*
X67385000Y2587000D03*
X68655000Y2587000D03*
D31*
X37000000Y5900000D03*
X37000000Y4100000D03*
X62750000Y5900000D03*
X62750000Y4100000D03*
D32*
X64800000Y31500000D03*
X66600000Y31500000D03*
D31*
X88250000Y55150000D03*
X88250000Y53350000D03*
X29250000Y68100000D03*
X29250000Y69900000D03*
X23750000Y68100000D03*
X23750000Y69900000D03*
X76000000Y54350000D03*
X76000000Y56150000D03*
X20000000Y68100000D03*
X20000000Y69900000D03*
X68750000Y54350000D03*
X68750000Y56150000D03*
X44750000Y45600000D03*
X44750000Y47400000D03*
X24250000Y4150000D03*
X24250000Y2350000D03*
D32*
X45600000Y68500000D03*
X47400000Y68500000D03*
X66900000Y36500000D03*
X65100000Y36500000D03*
X45900000Y31000000D03*
X44100000Y31000000D03*
D31*
X47000000Y57100000D03*
X47000000Y58900000D03*
X44750000Y34100000D03*
X44750000Y35900000D03*
D33*
X46750000Y2460000D03*
X46750000Y7540000D03*
X72500000Y2460000D03*
X72500000Y7540000D03*
D34*
X40500000Y15750000D03*
X47000000Y15750000D03*
X66250000Y15750000D03*
X72750000Y15750000D03*
D35*
X31500000Y8250000D03*
X31500000Y3250000D03*
X57250000Y8250000D03*
X57250000Y3250000D03*
D36*
X15810000Y70366000D03*
X13270000Y70366000D03*
X10730000Y70366000D03*
X8190000Y70366000D03*
X8190000Y55634000D03*
X10730000Y55634000D03*
X13270000Y55634000D03*
X15810000Y55634000D03*
D37*
X23807600Y60730000D03*
X23807600Y59460000D03*
X23807600Y58190000D03*
X29192400Y60730000D03*
X23807600Y64540000D03*
X23807600Y63270000D03*
X23807600Y62000000D03*
X29192400Y63270000D03*
X29192400Y64540000D03*
X29192400Y65810000D03*
X29192400Y59460000D03*
X23807600Y65810000D03*
X29192400Y58190000D03*
X29192400Y62000000D03*
X25611000Y65810000D03*
X25611000Y64540000D03*
X25611000Y63270000D03*
X25611000Y62000000D03*
X25611000Y60730000D03*
X27389000Y60730000D03*
X27389000Y62000000D03*
X27389000Y63270000D03*
X27389000Y64540000D03*
X27389000Y65810000D03*
D26*
X25550000Y53700000D03*
X27450000Y53700000D03*
M02*
