G04 #@! TF.FileFunction,Soldermask,Top*
%FSLAX46Y46*%
G04 Gerber Fmt 4.6, Leading zero omitted, Abs format (unit mm)*
G04 Created by KiCad (PCBNEW (2015-07-01 BZR 5850)-product) date Sat Sep  5 15:37:45 2015*
%MOMM*%
G01*
G04 APERTURE LIST*
%ADD10C,0.025400*%
%ADD11C,0.127000*%
%ADD12C,1.200000*%
%ADD13C,1.016000*%
%ADD14C,20.000000*%
%ADD15R,2.500000X1.000000*%
%ADD16R,1.625600X3.048000*%
%ADD17R,3.048000X1.625600*%
%ADD18R,1.600000X1.000000*%
%ADD19R,1.700000X2.500000*%
%ADD20R,2.500000X1.700000*%
%ADD21R,1.270000X1.016000*%
%ADD22C,1.524000*%
%ADD23R,0.980000X3.400000*%
%ADD24R,1.400000X1.400000*%
%ADD25R,1.524000X1.524000*%
%ADD26R,0.609600X3.048000*%
%ADD27C,1.778000*%
%ADD28R,1.778000X1.778000*%
%ADD29C,2.540000*%
%ADD30C,1.800000*%
%ADD31O,3.048000X4.572000*%
%ADD32R,3.048000X4.572000*%
%ADD33O,4.572000X3.048000*%
%ADD34R,2.032000X3.810000*%
%ADD35R,2.032000X1.524000*%
%ADD36R,3.810000X2.032000*%
%ADD37R,1.524000X2.032000*%
%ADD38C,6.096000*%
%ADD39C,2.032000*%
%ADD40R,1.549400X0.596900*%
%ADD41O,0.280000X0.850000*%
%ADD42O,0.850000X0.280000*%
%ADD43R,0.500000X1.700000*%
%ADD44R,0.700000X0.850000*%
%ADD45R,1.998980X0.599440*%
%ADD46R,1.998980X0.449580*%
%ADD47R,0.449580X1.998980*%
%ADD48R,1.400000X1.200000*%
%ADD49R,1.450000X1.150000*%
%ADD50R,1.150000X1.450000*%
%ADD51R,1.000000X1.450000*%
%ADD52R,1.450000X1.000000*%
%ADD53R,1.100000X1.150000*%
%ADD54C,2.000000*%
%ADD55C,3.000000*%
G04 APERTURE END LIST*
D10*
D11*
X18000000Y-94000000D02*
X109000000Y-94000000D01*
X113000000Y-44700000D02*
X108300000Y-49000000D01*
X113000000Y-18000000D02*
X113000000Y-44700000D01*
X108300000Y-55500000D02*
X108300000Y-49000000D01*
X108300000Y-62000000D02*
X108300000Y-55500000D01*
X113000000Y-66200000D02*
X108300000Y-62000000D01*
X113000000Y-90000000D02*
X113000000Y-66200000D01*
X14000000Y-18000000D02*
X14000000Y-90000000D01*
X109000000Y-14000000D02*
X18000000Y-14000000D01*
X113000000Y-18000000D02*
G75*
G03X109000000Y-14000000I-4000000J0D01*
G01*
X109000000Y-94000000D02*
G75*
G03X113000000Y-90000000I0J4000000D01*
G01*
X14000000Y-90000000D02*
G75*
G03X18000000Y-94000000I4000000J0D01*
G01*
X18000000Y-14000000D02*
G75*
G03X14000000Y-18000000I0J-4000000D01*
G01*
D12*
X67800000Y-78300000D03*
X77200000Y-79600000D03*
X75000000Y-80100000D03*
X72500000Y-78500000D03*
X72500000Y-80100000D03*
X67800000Y-81000000D03*
X75800000Y-92600000D03*
X72800000Y-92600000D03*
X49800000Y-92700000D03*
X46800000Y-92700000D03*
X51200000Y-79600000D03*
X41900000Y-81000000D03*
X49000000Y-80100000D03*
X46500000Y-78500000D03*
X46500000Y-80100000D03*
X88300000Y-78200000D03*
X88300000Y-81200000D03*
X61800000Y-81200000D03*
X61800000Y-78200000D03*
X31500000Y-74900000D03*
X58750000Y-45250000D03*
X77500000Y-57500000D03*
X80500000Y-66750000D03*
X91750000Y-66750000D03*
X82000000Y-45200000D03*
X83900000Y-45800000D03*
X80100000Y-45800000D03*
X60000000Y-69000000D03*
X72500000Y-33700000D03*
X89100000Y-36300000D03*
X81900000Y-36300000D03*
X97400000Y-28000000D03*
X87400000Y-28000000D03*
X83700000Y-24400000D03*
X52200000Y-44600000D03*
X52200000Y-56100000D03*
X53500000Y-92700000D03*
X79600000Y-92600000D03*
X69000000Y-92600000D03*
X41800000Y-78300000D03*
X82000000Y-62500000D03*
X69300000Y-62700000D03*
X43000000Y-92700000D03*
X40100000Y-92700000D03*
X54000000Y-64000000D03*
X65800000Y-61800000D03*
X40600000Y-39900000D03*
X44800000Y-24100000D03*
X35600000Y-24100000D03*
X27300000Y-26000000D03*
X39300000Y-24100000D03*
D13*
X71000000Y-55500000D03*
X84700000Y-52200000D03*
X84700000Y-50300000D03*
X84700000Y-54700000D03*
X66000000Y-68500000D03*
X73700000Y-59300000D03*
X73700000Y-57700000D03*
X73650000Y-63400000D03*
X73700000Y-61000000D03*
X67000000Y-69500000D03*
D14*
X100750000Y-55500000D03*
D15*
X75000000Y-75500000D03*
X75000000Y-78500000D03*
D16*
X77500000Y-87214000D03*
X77563500Y-91786000D03*
X71000000Y-87214000D03*
X71063500Y-91786000D03*
D17*
X58214000Y-30000000D03*
X62786000Y-29936500D03*
D18*
X69500000Y-84000000D03*
X69500000Y-81000000D03*
D15*
X49000000Y-75500000D03*
X49000000Y-78500000D03*
D16*
X51500000Y-87214000D03*
X51563500Y-91786000D03*
X45000000Y-87214000D03*
X45063500Y-91786000D03*
D18*
X43500000Y-84000000D03*
X43500000Y-81000000D03*
D19*
X42250000Y-46500000D03*
X42250000Y-50500000D03*
X35750000Y-89000000D03*
X35750000Y-85000000D03*
D20*
X97500000Y-84000000D03*
X101500000Y-84000000D03*
D21*
X87500000Y-68016000D03*
X87500000Y-65984000D03*
X84750000Y-68016000D03*
X84750000Y-65984000D03*
X82000000Y-68016000D03*
X82000000Y-65984000D03*
X90250000Y-68016000D03*
X90250000Y-65984000D03*
D19*
X42250000Y-58000000D03*
X42250000Y-62000000D03*
D22*
X69500000Y-75730000D03*
X69500000Y-78270000D03*
X43500000Y-75730000D03*
X43500000Y-78270000D03*
D23*
X83310000Y-77000000D03*
X85690000Y-77000000D03*
X57310000Y-77000000D03*
X59690000Y-77000000D03*
D10*
G36*
X76123000Y-60023500D02*
X76377000Y-60023500D01*
X76885000Y-61547500D01*
X75615000Y-61547500D01*
X76123000Y-60023500D01*
X76123000Y-60023500D01*
G37*
G36*
X75615000Y-63452500D02*
X76885000Y-63452500D01*
X76377000Y-64976500D01*
X76123000Y-64976500D01*
X75615000Y-63452500D01*
X75615000Y-63452500D01*
G37*
D24*
X76250000Y-62500000D03*
D25*
X64960000Y-52770000D03*
D22*
X64960000Y-50230000D03*
X67500000Y-52770000D03*
X67500000Y-50230000D03*
X70040000Y-52770000D03*
X70040000Y-50230000D03*
D25*
X105000000Y-29150000D03*
X105000000Y-31690000D03*
D22*
X105000000Y-34230000D03*
X105000000Y-36770000D03*
X105000000Y-39310000D03*
X105000000Y-41850000D03*
D26*
X29810000Y-23634000D03*
X27270000Y-23634000D03*
X24730000Y-23634000D03*
X22190000Y-23634000D03*
X22190000Y-38366000D03*
X24730000Y-38366000D03*
X27270000Y-38366000D03*
X29810000Y-38366000D03*
D27*
X92250000Y-39560000D03*
X92250000Y-37020000D03*
X92250000Y-34480000D03*
D28*
X92250000Y-31940000D03*
D27*
X85000000Y-39560000D03*
X85000000Y-37020000D03*
X85000000Y-34480000D03*
D28*
X85000000Y-31940000D03*
D22*
X56000000Y-51040000D03*
X56000000Y-48500000D03*
X56000000Y-45960000D03*
X98230000Y-89000000D03*
X100770000Y-89000000D03*
D29*
X18204000Y-52056000D03*
X18204000Y-44944000D03*
X34460000Y-44486800D03*
X34460000Y-52513200D03*
D30*
X37000000Y-50500000D03*
X37000000Y-46500000D03*
X39540000Y-49770000D03*
X39540000Y-47230000D03*
D31*
X100750000Y-76200000D03*
D32*
X94654000Y-76200000D03*
D33*
X97575000Y-71120000D03*
D22*
X56000000Y-62540000D03*
X56000000Y-60000000D03*
X56000000Y-57460000D03*
D29*
X18204000Y-63556000D03*
X18204000Y-56444000D03*
X34460000Y-55986800D03*
X34460000Y-64013200D03*
D30*
X37000000Y-62000000D03*
X37000000Y-58000000D03*
X39540000Y-61270000D03*
X39540000Y-58730000D03*
D34*
X45825000Y-48500000D03*
D35*
X52175000Y-48500000D03*
X52175000Y-46214000D03*
X52175000Y-50786000D03*
D34*
X64325000Y-36000000D03*
D35*
X70675000Y-36000000D03*
X70675000Y-33714000D03*
X70675000Y-38286000D03*
D34*
X45825000Y-60000000D03*
D35*
X52175000Y-60000000D03*
X52175000Y-57714000D03*
X52175000Y-62286000D03*
D36*
X35750000Y-81675000D03*
D37*
X35750000Y-75325000D03*
X33464000Y-75325000D03*
X38036000Y-75325000D03*
D38*
X18000000Y-18000000D03*
X109000000Y-18000000D03*
X18000000Y-90000000D03*
X109000000Y-90000000D03*
D27*
X22210000Y-80250000D03*
X29830000Y-80250000D03*
X27290000Y-80250000D03*
X19670000Y-80250000D03*
X24750000Y-80250000D03*
X82222500Y-19000000D03*
X77777500Y-19000000D03*
D39*
X83492500Y-21540000D03*
X76507500Y-21540000D03*
D27*
X77777500Y-25477000D03*
X82222500Y-25477000D03*
X78730000Y-23572000D03*
X81270000Y-23572000D03*
X102222500Y-19000000D03*
X97777500Y-19000000D03*
D39*
X103492500Y-21540000D03*
X96507500Y-21540000D03*
D27*
X97777500Y-25477000D03*
X102222500Y-25477000D03*
X98730000Y-23572000D03*
X101270000Y-23572000D03*
X92222500Y-19000000D03*
X87777500Y-19000000D03*
D39*
X93492500Y-21540000D03*
X86507500Y-21540000D03*
D27*
X87777500Y-25477000D03*
X92222500Y-25477000D03*
X88730000Y-23572000D03*
X91270000Y-23572000D03*
D40*
X37807600Y-33270000D03*
X37807600Y-34540000D03*
X37807600Y-35810000D03*
X43192400Y-33270000D03*
X37807600Y-29460000D03*
X37807600Y-30730000D03*
X37807600Y-32000000D03*
X43192400Y-30730000D03*
X43192400Y-29460000D03*
X43192400Y-28190000D03*
X43192400Y-34540000D03*
X37807600Y-28190000D03*
X43192400Y-35810000D03*
X43192400Y-32000000D03*
D41*
X79250000Y-80500000D03*
X79750000Y-80500000D03*
X78750000Y-80500000D03*
X78250000Y-80500000D03*
D42*
X77500000Y-81250000D03*
X77500000Y-81750000D03*
X77500000Y-82250000D03*
X77500000Y-82750000D03*
D41*
X78250000Y-83500000D03*
X78750000Y-83500000D03*
X79250000Y-83500000D03*
X79750000Y-83500000D03*
D42*
X80500000Y-82750000D03*
X80500000Y-82250000D03*
X80500000Y-81750000D03*
X80500000Y-81250000D03*
D43*
X79000000Y-82000000D03*
D44*
X79500000Y-82425000D03*
X79500000Y-81575000D03*
X78500000Y-81575000D03*
X78500000Y-82425000D03*
D41*
X53250000Y-80500000D03*
X53750000Y-80500000D03*
X52750000Y-80500000D03*
X52250000Y-80500000D03*
D42*
X51500000Y-81250000D03*
X51500000Y-81750000D03*
X51500000Y-82250000D03*
X51500000Y-82750000D03*
D41*
X52250000Y-83500000D03*
X52750000Y-83500000D03*
X53250000Y-83500000D03*
X53750000Y-83500000D03*
D42*
X54500000Y-82750000D03*
X54500000Y-82250000D03*
X54500000Y-81750000D03*
X54500000Y-81250000D03*
D43*
X53000000Y-82000000D03*
D44*
X53500000Y-82425000D03*
X53500000Y-81575000D03*
X52500000Y-81575000D03*
X52500000Y-82425000D03*
D45*
X86650740Y-54695000D03*
X86650740Y-53425000D03*
X86650740Y-52155000D03*
X86650740Y-50885000D03*
X86650740Y-49615000D03*
X86650740Y-48345000D03*
X86650740Y-47075000D03*
X86650740Y-45805000D03*
X77349260Y-45805000D03*
X77349260Y-47075000D03*
X77349260Y-48345000D03*
X77349260Y-49615000D03*
X77349260Y-50885000D03*
X77349260Y-52155000D03*
X77349260Y-53425000D03*
X77349260Y-54695000D03*
D46*
X63099640Y-64999080D03*
X63099640Y-64198980D03*
X63099640Y-63398880D03*
X63099640Y-62598780D03*
X63099640Y-61801220D03*
X63099640Y-61001120D03*
X63099640Y-60201020D03*
X63099640Y-59400920D03*
X71400360Y-59400920D03*
X71400360Y-64999080D03*
X71400360Y-64198980D03*
X71400360Y-63398880D03*
X71400360Y-62598780D03*
X71400360Y-61801220D03*
X71400360Y-61001120D03*
X71400360Y-60201020D03*
D47*
X64450920Y-58049640D03*
X65251020Y-58049640D03*
X66051120Y-58049640D03*
X66851220Y-58049640D03*
X67648780Y-58049640D03*
X68448880Y-58049640D03*
X69248980Y-58049640D03*
X70049080Y-58049640D03*
X64450920Y-66350360D03*
X65251020Y-66350360D03*
X66051120Y-66350360D03*
X66851220Y-66350360D03*
X67648780Y-66350360D03*
X68448880Y-66350360D03*
X69248980Y-66350360D03*
X70049080Y-66350360D03*
D48*
X58100000Y-65700000D03*
X55900000Y-67300000D03*
X58100000Y-67300000D03*
X55900000Y-65700000D03*
D12*
X58800000Y-56200000D03*
D49*
X49000000Y-81600000D03*
X49000000Y-83400000D03*
X46500000Y-81600000D03*
X46500000Y-83400000D03*
X52000000Y-77900000D03*
X52000000Y-76100000D03*
X58750000Y-59900000D03*
X58750000Y-58100000D03*
X61000000Y-36900000D03*
X61000000Y-35100000D03*
D50*
X59900000Y-63000000D03*
X58100000Y-63000000D03*
X80900000Y-57500000D03*
X79100000Y-57500000D03*
D49*
X75000000Y-81600000D03*
X75000000Y-83400000D03*
X72500000Y-81600000D03*
X72500000Y-83400000D03*
X78000000Y-77900000D03*
X78000000Y-76100000D03*
D50*
X59600000Y-25500000D03*
X61400000Y-25500000D03*
D49*
X38250000Y-89850000D03*
X38250000Y-91650000D03*
X58750000Y-48400000D03*
X58750000Y-46600000D03*
X82750000Y-39650000D03*
X82750000Y-37850000D03*
X34000000Y-25900000D03*
X34000000Y-24100000D03*
X90000000Y-39650000D03*
X90000000Y-37850000D03*
X37750000Y-25900000D03*
X37750000Y-24100000D03*
X43250000Y-25900000D03*
X43250000Y-24100000D03*
X102250000Y-40650000D03*
X102250000Y-38850000D03*
D50*
X78800000Y-62500000D03*
X80600000Y-62500000D03*
D51*
X90950000Y-28000000D03*
X89050000Y-28000000D03*
X100950000Y-28000000D03*
X99050000Y-28000000D03*
D52*
X55000000Y-77950000D03*
X55000000Y-76050000D03*
X90250000Y-71700000D03*
X90250000Y-69800000D03*
D51*
X84950000Y-57500000D03*
X83050000Y-57500000D03*
D52*
X82000000Y-71700000D03*
X82000000Y-69800000D03*
X84750000Y-71700000D03*
X84750000Y-69800000D03*
X87500000Y-71700000D03*
X87500000Y-69800000D03*
X81000000Y-77950000D03*
X81000000Y-76050000D03*
X38250000Y-87950000D03*
X38250000Y-86050000D03*
X58500000Y-35050000D03*
X58500000Y-36950000D03*
D51*
X39550000Y-38000000D03*
X41450000Y-38000000D03*
X97700000Y-37250000D03*
X95800000Y-37250000D03*
X97700000Y-34500000D03*
X95800000Y-34500000D03*
X80950000Y-28000000D03*
X79050000Y-28000000D03*
D53*
X54000000Y-67400000D03*
X54000000Y-65600000D03*
X60000000Y-65600000D03*
X60000000Y-67400000D03*
D54*
X76500000Y-41000000D03*
X76500000Y-38500000D03*
X76500000Y-36000000D03*
X76500000Y-31000000D03*
X76500000Y-33500000D03*
D55*
X41000000Y-18000000D03*
X27000000Y-18000000D03*
X55000000Y-18000000D03*
X69000000Y-18000000D03*
M02*
