M48
INCH,TZ
T1C0.024
T2C0.025
T3C0.039
T4C0.040
T5C0.046
T6C0.050
T7C0.060
T8C0.080
T9C0.120
T10C0.118
%
G90
G05
T1
X0.5236Y2.6772
X0.689Y0.752
X0.8504Y2.752
X0.9055Y0.0394
X0.937Y2.2047
X0.9961Y2.752
X1.2126Y2.752
X1.3661Y0.6811
X1.5039Y1.9449
X1.5039Y1.4921
X1.5748Y1.1811
X1.7618Y1.9193
X1.7638Y1.4882
X1.811Y0.9843
X1.9094Y0.5217
X1.9094Y0.3839
X2.0394Y1.2677
X2.1772Y1.2323
X2.3031Y2.374
X2.378Y0.6811
X2.5Y1.437
X2.6024Y1.8976
X2.6181Y1.0728
X2.6732Y2.2717
X2.6772Y1.9213
X2.6772Y1.2402
X2.7441Y2.7402
X2.752Y1.8976
X2.8898Y2.5984
X2.9232Y0.5217
X2.9232Y0.3937
X2.9567Y2.2717
X3.061Y1.0728
X3.2835Y2.5984
T2
X0.4646Y2.6063
X1.0394Y2.6811
X1.0394Y2.2913
X1.2087Y2.0512
X1.2283Y2.3898
X1.2303Y2.4409
X1.2323Y2.5394
X1.2323Y2.4882
X1.4252Y0.9961
X1.5472Y0.4567
X1.5748Y2.2756
X1.9685Y1.8976
X2.0472Y1.0039
X2.063Y0.9173
X2.0866Y0.9646
X2.0945Y1.5
X2.1024Y1.3228
X2.126Y1.1614
X2.1358Y1.0039
X2.1417Y1.5
X2.1575Y1.3307
X2.1752Y0.9843
X2.2146Y1.0039
X2.2441Y1.5157
X2.2736Y2.0768
X2.3071Y1.5472
X2.3484Y1.2047
X2.3504Y1.4291
X2.3504Y1.3661
X2.3504Y1.2992
X2.3543Y1.5472
X2.5197Y0.9291
X2.5433Y1.3228
X2.5787Y1.6102
X2.5827Y1.5394
X2.5827Y0.8465
X2.6339Y1.311
X2.7835Y1.7205
X2.7835Y1.6457
X2.7835Y1.5472
X2.8937Y0.8228
X3.1693Y2.5512
T3
X0.9055Y1.8701
X0.9055Y1.7126
X0.9055Y1.4173
X0.9055Y1.2598
X1.0055Y1.8413
X1.0055Y1.7413
X1.0055Y1.3886
X1.0055Y1.2886
X2.4606Y2.4803
X2.4606Y2.3819
X2.4606Y2.2835
X2.4606Y2.185
X2.4606Y2.0866
T4
X0.1655Y1.9313
X0.1655Y1.6513
X0.1655Y1.4786
X0.1655Y1.1986
X0.2232Y0.5413
X0.3232Y0.5413
X0.4232Y0.5413
X0.5232Y0.5413
X0.6232Y0.5413
X1.1008Y0.7717
X1.2008Y0.7717
X1.3008Y0.7717
X1.6535Y1.8913
X1.6535Y1.7913
X1.6535Y1.6913
X1.6535Y1.4386
X1.6535Y1.3386
X1.6535Y1.2386
X2.0063Y1.7232
X2.0063Y1.6232
X2.1063Y1.7232
X2.1063Y1.6232
X2.1165Y0.7717
X2.2063Y1.7232
X2.2063Y1.6232
X2.2165Y0.7717
X2.3165Y0.7717
X2.5109Y2.9528
X2.5109Y2.6978
X2.5484Y2.7728
X2.6484Y2.7728
X2.6859Y2.9528
X2.6859Y2.6978
X2.7953Y2.4433
X2.7953Y2.3433
X2.7953Y2.2433
X2.7953Y2.1433
X2.9046Y2.9528
X2.9046Y2.6978
X2.9421Y2.7728
X3.0421Y2.7728
X3.0796Y2.9528
X3.0796Y2.6978
X3.0807Y2.4433
X3.0807Y2.3433
X3.0807Y2.2433
X3.0807Y2.1433
X3.2983Y2.9528
X3.2983Y2.6978
X3.3161Y0.1969
X3.3358Y2.7728
X3.4161Y0.1969
X3.4358Y2.7728
X3.4733Y2.9528
X3.4733Y2.6978
X3.5827Y2.5531
X3.5827Y2.4531
X3.5827Y2.3531
X3.5827Y2.2531
X3.5827Y2.1531
X3.5827Y2.0531
T6
X2.4609Y2.8528
X2.7359Y2.8528
X2.8546Y2.8528
X3.1296Y2.8528
X3.2483Y2.8528
X3.5233Y2.8528
T7
X0.8055Y1.9493
X0.8055Y1.6333
X0.8055Y1.4966
X0.8055Y1.1806
T8
X3.4154Y1.9307
X3.4154Y1.1007
T9
X0.1575Y2.9921
X0.1575Y0.1575
X3.7402Y2.9921
X3.7402Y0.1575
T10
X0.5118Y2.9921
X1.063Y2.9921
X1.6142Y2.9921
X2.1654Y2.9921
T5
X3.1754Y0.6438G85X3.1754Y0.7578
G05
X3.3374Y0.9008G85X3.2434Y0.9008
G05
X3.4154Y0.6538G85X3.4154Y0.7478
G05
T0
M30
