M48
INCH,TZ
T1C0.012
T2C0.024
T3C0.025
T4C0.039
T5C0.040
T6C0.046
T7C0.050
T8C0.060
T9C0.080
T10C0.118
T11C0.120
%
G90
G05
T1
X020669Y-032116
X020669Y-032451
X020866Y-032283
X021063Y-032116
X021063Y-032451
X030906Y-032116
X030906Y-032451
X031102Y-032283
X031299Y-032116
X031299Y-032451
T2
X010748Y-010236
X012402Y-029488
X014016Y-009488
X015472Y-009488
X015787Y-036496
X015984Y-015709
X016457Y-030827
X016496Y-031890
X016929Y-036496
X017638Y-009488
X018307Y-030906
X018307Y-031535
X018425Y-036496
X019291Y-031535
X019606Y-036496
X020157Y-031339
X020551Y-017559
X020551Y-022087
X021063Y-036496
X021260Y-025197
X023130Y-017815
X023150Y-022126
X023622Y-027165
X024331Y-030787
X024331Y-031969
X025906Y-024331
X026693Y-030827
X026693Y-031890
X027165Y-036457
X027283Y-024685
X028543Y-013268
X028543Y-030906
X028543Y-031535
X028661Y-036457
X029528Y-031535
X029843Y-036457
X030394Y-031339
X030512Y-022638
X031339Y-036457
X031535Y-018031
X031693Y-026280
X032244Y-014291
X032283Y-017795
X032283Y-024606
X032953Y-009606
X033031Y-018031
X034409Y-011024
X034764Y-030787
X034764Y-031969
X035079Y-014291
X036122Y-026280
X038346Y-011024
T3
X010157Y-010945
X016260Y-033071
X016496Y-026417
X017795Y-013110
X017815Y-012598
X017835Y-011614
X017835Y-012126
X019764Y-027047
X021260Y-014252
X025197Y-018031
X025984Y-026969
X026142Y-027835
X026378Y-027362
X026457Y-022008
X026535Y-023780
X026772Y-025394
X026870Y-026969
X026929Y-022008
X027087Y-023701
X027264Y-027165
X027657Y-026969
X027953Y-021850
X028248Y-016240
X028583Y-021535
X028996Y-024961
X029016Y-022717
X029016Y-023346
X029016Y-024016
X029055Y-021535
X030709Y-027717
X030945Y-023780
X031299Y-020906
X031339Y-021614
X031339Y-028543
X031850Y-023898
X033346Y-019803
X033346Y-020551
X033346Y-021535
X037205Y-011496
T4
X014567Y-018307
X014567Y-019882
X014567Y-022835
X014567Y-024409
X015567Y-018594
X015567Y-019594
X015567Y-023122
X015567Y-024122
X030118Y-012205
X030118Y-013189
X030118Y-014173
X030118Y-015157
X030118Y-016142
T5
X007167Y-017694
X007167Y-020494
X007167Y-022222
X007167Y-025022
X007744Y-031594
X008744Y-031594
X009744Y-031594
X010744Y-031594
X011744Y-031594
X017126Y-029815
X017126Y-030815
X022047Y-018094
X022047Y-019094
X022047Y-020094
X022047Y-022622
X022047Y-023622
X022047Y-024622
X025575Y-019776
X025575Y-020776
X026575Y-019776
X026575Y-020776
X027362Y-029815
X027362Y-030815
X027575Y-019776
X027575Y-020776
X030621Y-007480
X030621Y-010030
X030996Y-009280
X031996Y-009280
X032371Y-007480
X032371Y-010030
X033465Y-012575
X033465Y-013575
X033465Y-014575
X033465Y-015575
X034558Y-007480
X034558Y-010030
X034933Y-009280
X035933Y-009280
X036308Y-007480
X036308Y-010030
X036319Y-012575
X036319Y-013575
X036319Y-014575
X036319Y-015575
X038495Y-007480
X038495Y-010030
X038673Y-035039
X038870Y-009280
X039673Y-035039
X039870Y-009280
X040245Y-007480
X040245Y-010030
X041339Y-011476
X041339Y-012476
X041339Y-013476
X041339Y-014476
X041339Y-015476
X041339Y-016476
T7
X030121Y-008480
X032871Y-008480
X034058Y-008480
X036808Y-008480
X037995Y-008480
X040745Y-008480
T8
X013567Y-017514
X013567Y-020674
X013567Y-022042
X013567Y-025202
T9
X039665Y-017700
X039665Y-026000
T10
X010630Y-007087
X016142Y-007087
X021654Y-007087
X027165Y-007087
T11
X007087Y-007087
X007087Y-035433
X042913Y-007087
X042913Y-035433
T6
X037265Y-030570G85X037265Y-029430
G05
X038885Y-028000G85X037945Y-028000
G05
X039665Y-030470G85X039665Y-029530
G05
T0
M30
