G04 #@! TF.FileFunction,Copper,L1,Top,Signal*
%FSLAX46Y46*%
G04 Gerber Fmt 4.6, Leading zero omitted, Abs format (unit mm)*
G04 Created by KiCad (PCBNEW 4.0.0-2.201511301921+6191~38~ubuntu15.10.1-stable) date Tue Dec  8 20:56:11 2015*
%MOMM*%
G01*
G04 APERTURE LIST*
%ADD10C,0.025400*%
%ADD11C,0.127000*%
%ADD12C,1.200000*%
%ADD13C,1.016000*%
%ADD14C,14.000000*%
%ADD15R,3.048000X1.625600*%
%ADD16R,1.700000X2.500000*%
%ADD17R,2.500000X1.700000*%
%ADD18R,1.270000X1.016000*%
%ADD19R,1.400000X1.400000*%
%ADD20R,1.524000X1.524000*%
%ADD21C,1.524000*%
%ADD22C,1.778000*%
%ADD23R,1.778000X1.778000*%
%ADD24C,2.540000*%
%ADD25C,1.800000*%
%ADD26O,3.048000X4.572000*%
%ADD27R,3.048000X4.572000*%
%ADD28O,4.572000X3.048000*%
%ADD29R,2.032000X3.810000*%
%ADD30R,2.032000X1.524000*%
%ADD31R,3.810000X2.032000*%
%ADD32R,1.524000X2.032000*%
%ADD33C,6.096000*%
%ADD34C,2.032000*%
%ADD35R,1.998980X0.599440*%
%ADD36R,1.998980X0.449580*%
%ADD37R,0.449580X1.998980*%
%ADD38R,1.400000X1.200000*%
%ADD39R,1.000000X1.450000*%
%ADD40R,1.450000X1.000000*%
%ADD41R,1.100000X1.150000*%
%ADD42C,2.000000*%
%ADD43R,2.600000X3.200000*%
%ADD44R,0.609600X2.032000*%
%ADD45R,1.450000X1.150000*%
%ADD46R,1.150000X1.450000*%
%ADD47R,4.300000X2.400000*%
%ADD48R,3.500000X2.500000*%
%ADD49R,7.500000X3.000000*%
%ADD50R,0.609600X3.048000*%
%ADD51R,1.549400X0.596900*%
%ADD52C,0.889000*%
%ADD53C,0.762000*%
%ADD54C,0.304800*%
%ADD55C,0.254000*%
%ADD56C,0.381000*%
%ADD57C,0.203200*%
G04 APERTURE END LIST*
D10*
D11*
X4000000Y0D02*
X95000000Y0D01*
X99000000Y49300000D02*
X94300000Y45000000D01*
X99000000Y76000000D02*
X99000000Y49300000D01*
X94300000Y38500000D02*
X94300000Y45000000D01*
X94300000Y32000000D02*
X94300000Y38500000D01*
X99000000Y27800000D02*
X94300000Y32000000D01*
X99000000Y4000000D02*
X99000000Y27800000D01*
X0Y76000000D02*
X0Y4000000D01*
X95000000Y80000000D02*
X4000000Y80000000D01*
X99000000Y76000000D02*
G75*
G03X95000000Y80000000I-4000000J0D01*
G01*
X95000000Y0D02*
G75*
G03X99000000Y4000000I0J4000000D01*
G01*
X0Y4000000D02*
G75*
G03X4000000Y0I4000000J0D01*
G01*
X4000000Y80000000D02*
G75*
G03X0Y76000000I0J-4000000D01*
G01*
D12*
X45700000Y9750000D03*
X47100000Y9750000D03*
X45700000Y13250000D03*
X47100000Y13250000D03*
X71450000Y10000000D03*
X72850000Y10000000D03*
X71450000Y13250000D03*
X72850000Y13250000D03*
X63200000Y17300000D03*
X61800000Y17300000D03*
X37600000Y17300000D03*
X67600000Y13200000D03*
X68800000Y12500000D03*
X67400000Y4300000D03*
X67400000Y5700000D03*
X66100000Y4300000D03*
X41800000Y13300000D03*
X41800000Y11800000D03*
X67600000Y11800000D03*
X41600000Y5700000D03*
X43100000Y12500000D03*
X41600000Y4300000D03*
X23000000Y1000000D03*
X74250000Y10000000D03*
X74250000Y13250000D03*
X60400000Y17300000D03*
X48500000Y13250000D03*
X17500000Y19100000D03*
X44750000Y48750000D03*
X63500000Y36500000D03*
X66500000Y27250000D03*
X77750000Y27250000D03*
X68000000Y48800000D03*
X69900000Y48200000D03*
X66100000Y48200000D03*
X46000000Y25000000D03*
X58500000Y60300000D03*
X75100000Y57700000D03*
X67900000Y57700000D03*
X83400000Y66000000D03*
X73400000Y66000000D03*
X69700000Y69600000D03*
X38200000Y49400000D03*
X38200000Y37900000D03*
X68000000Y31500000D03*
X55300000Y31300000D03*
X40000000Y30000000D03*
X51800000Y32200000D03*
X23800000Y56000000D03*
X30800000Y69900000D03*
X21600000Y69900000D03*
X13300000Y68000000D03*
X25300000Y69900000D03*
D13*
X57000000Y38500000D03*
X70700000Y41800000D03*
X70700000Y43700000D03*
X70700000Y39300000D03*
X52000000Y25500000D03*
X59700000Y34700000D03*
X59700000Y36300000D03*
X59650000Y30600000D03*
X59700000Y33000000D03*
X53000000Y24500000D03*
D14*
X86750000Y38500000D03*
D15*
X44214000Y64000000D03*
X48786000Y64063500D03*
D16*
X28250000Y47500000D03*
X28250000Y43500000D03*
X21750000Y5000000D03*
X21750000Y9000000D03*
D17*
X83500000Y10000000D03*
X87500000Y10000000D03*
D18*
X73500000Y25984000D03*
X73500000Y28016000D03*
X70750000Y25984000D03*
X70750000Y28016000D03*
X68000000Y25984000D03*
X68000000Y28016000D03*
X76250000Y25984000D03*
X76250000Y28016000D03*
D16*
X28250000Y36000000D03*
X28250000Y32000000D03*
D10*
G36*
X62123000Y33976500D02*
X62377000Y33976500D01*
X62885000Y32452500D01*
X61615000Y32452500D01*
X62123000Y33976500D01*
X62123000Y33976500D01*
G37*
G36*
X61615000Y30547500D02*
X62885000Y30547500D01*
X62377000Y29023500D01*
X62123000Y29023500D01*
X61615000Y30547500D01*
X61615000Y30547500D01*
G37*
D19*
X62250000Y31500000D03*
D20*
X50960000Y41230000D03*
D21*
X50960000Y43770000D03*
X53500000Y41230000D03*
X53500000Y43770000D03*
X56040000Y41230000D03*
X56040000Y43770000D03*
D20*
X91000000Y64850000D03*
X91000000Y62310000D03*
D21*
X91000000Y59770000D03*
X91000000Y57230000D03*
X91000000Y54690000D03*
X91000000Y52150000D03*
D22*
X78250000Y54440000D03*
X78250000Y56980000D03*
X78250000Y59520000D03*
D23*
X78250000Y62060000D03*
D22*
X71000000Y54440000D03*
X71000000Y56980000D03*
X71000000Y59520000D03*
D23*
X71000000Y62060000D03*
D21*
X42000000Y42960000D03*
X42000000Y45500000D03*
X42000000Y48040000D03*
X84230000Y5000000D03*
X86770000Y5000000D03*
D24*
X4204000Y41944000D03*
X4204000Y49056000D03*
X20460000Y49513200D03*
X20460000Y41486800D03*
D25*
X23000000Y43500000D03*
X23000000Y47500000D03*
X25540000Y44230000D03*
X25540000Y46770000D03*
D26*
X86750000Y17800000D03*
D27*
X80654000Y17800000D03*
D28*
X83575000Y22880000D03*
D21*
X42000000Y31460000D03*
X42000000Y34000000D03*
X42000000Y36540000D03*
D24*
X4204000Y30444000D03*
X4204000Y37556000D03*
X20460000Y38013200D03*
X20460000Y29986800D03*
D25*
X23000000Y32000000D03*
X23000000Y36000000D03*
X25540000Y32730000D03*
X25540000Y35270000D03*
D29*
X31825000Y45500000D03*
D30*
X38175000Y45500000D03*
X38175000Y47786000D03*
X38175000Y43214000D03*
D29*
X50325000Y58000000D03*
D30*
X56675000Y58000000D03*
X56675000Y60286000D03*
X56675000Y55714000D03*
D29*
X31825000Y34000000D03*
D30*
X38175000Y34000000D03*
X38175000Y36286000D03*
X38175000Y31714000D03*
D31*
X21750000Y12325000D03*
D32*
X21750000Y18675000D03*
X19464000Y18675000D03*
X24036000Y18675000D03*
D33*
X4000000Y76000000D03*
X95000000Y76000000D03*
X4000000Y4000000D03*
X95000000Y4000000D03*
D22*
X8210000Y13750000D03*
X15830000Y13750000D03*
X13290000Y13750000D03*
X5670000Y13750000D03*
X10750000Y13750000D03*
X68222500Y75000000D03*
X63777500Y75000000D03*
D34*
X69492500Y72460000D03*
X62507500Y72460000D03*
D22*
X63777500Y68523000D03*
X68222500Y68523000D03*
X64730000Y70428000D03*
X67270000Y70428000D03*
X88222500Y75000000D03*
X83777500Y75000000D03*
D34*
X89492500Y72460000D03*
X82507500Y72460000D03*
D22*
X83777500Y68523000D03*
X88222500Y68523000D03*
X84730000Y70428000D03*
X87270000Y70428000D03*
X78222500Y75000000D03*
X73777500Y75000000D03*
D34*
X79492500Y72460000D03*
X72507500Y72460000D03*
D22*
X73777500Y68523000D03*
X78222500Y68523000D03*
X74730000Y70428000D03*
X77270000Y70428000D03*
D35*
X72650740Y39305000D03*
X72650740Y40575000D03*
X72650740Y41845000D03*
X72650740Y43115000D03*
X72650740Y44385000D03*
X72650740Y45655000D03*
X72650740Y46925000D03*
X72650740Y48195000D03*
X63349260Y48195000D03*
X63349260Y46925000D03*
X63349260Y45655000D03*
X63349260Y44385000D03*
X63349260Y43115000D03*
X63349260Y41845000D03*
X63349260Y40575000D03*
X63349260Y39305000D03*
D36*
X49099640Y29000920D03*
X49099640Y29801020D03*
X49099640Y30601120D03*
X49099640Y31401220D03*
X49099640Y32198780D03*
X49099640Y32998880D03*
X49099640Y33798980D03*
X49099640Y34599080D03*
X57400360Y34599080D03*
X57400360Y29000920D03*
X57400360Y29801020D03*
X57400360Y30601120D03*
X57400360Y31401220D03*
X57400360Y32198780D03*
X57400360Y32998880D03*
X57400360Y33798980D03*
D37*
X50450920Y35950360D03*
X51251020Y35950360D03*
X52051120Y35950360D03*
X52851220Y35950360D03*
X53648780Y35950360D03*
X54448880Y35950360D03*
X55248980Y35950360D03*
X56049080Y35950360D03*
X50450920Y27649640D03*
X51251020Y27649640D03*
X52051120Y27649640D03*
X52851220Y27649640D03*
X53648780Y27649640D03*
X54448880Y27649640D03*
X55248980Y27649640D03*
X56049080Y27649640D03*
D38*
X44100000Y28300000D03*
X41900000Y26700000D03*
X44100000Y26700000D03*
X41900000Y28300000D03*
D12*
X44800000Y37800000D03*
D39*
X76950000Y66000000D03*
X75050000Y66000000D03*
X86950000Y66000000D03*
X85050000Y66000000D03*
D40*
X76250000Y22300000D03*
X76250000Y24200000D03*
D39*
X70950000Y36500000D03*
X69050000Y36500000D03*
D40*
X68000000Y22300000D03*
X68000000Y24200000D03*
X70750000Y22300000D03*
X70750000Y24200000D03*
X73500000Y22300000D03*
X73500000Y24200000D03*
X24250000Y6050000D03*
X24250000Y7950000D03*
X44500000Y58950000D03*
X44500000Y57050000D03*
D39*
X25550000Y56000000D03*
X27450000Y56000000D03*
X83700000Y56750000D03*
X81800000Y56750000D03*
X83700000Y59500000D03*
X81800000Y59500000D03*
X66950000Y66000000D03*
X65050000Y66000000D03*
D41*
X40000000Y26600000D03*
X40000000Y28400000D03*
X46000000Y28400000D03*
X46000000Y26600000D03*
D42*
X62500000Y53000000D03*
X62500000Y55500000D03*
X62500000Y58000000D03*
X62500000Y63000000D03*
X62500000Y60500000D03*
D39*
X69450000Y10250000D03*
X67550000Y10250000D03*
X43700000Y10250000D03*
X41800000Y10250000D03*
D12*
X34700000Y17300000D03*
X48500000Y9750000D03*
D43*
X28900000Y14750000D03*
X36100000Y14750000D03*
X54650000Y14750000D03*
X61850000Y14750000D03*
D44*
X39095000Y7413000D03*
X39095000Y2587000D03*
X40365000Y7413000D03*
X41635000Y7413000D03*
X42905000Y7413000D03*
X40365000Y2587000D03*
X41635000Y2587000D03*
X42905000Y2587000D03*
X64845000Y7413000D03*
X64845000Y2587000D03*
X66115000Y7413000D03*
X67385000Y7413000D03*
X68655000Y7413000D03*
X66115000Y2587000D03*
X67385000Y2587000D03*
X68655000Y2587000D03*
D45*
X37000000Y5900000D03*
X37000000Y4100000D03*
X62750000Y5900000D03*
X62750000Y4100000D03*
D46*
X64800000Y31500000D03*
X66600000Y31500000D03*
D45*
X88250000Y55150000D03*
X88250000Y53350000D03*
X29250000Y68100000D03*
X29250000Y69900000D03*
X23750000Y68100000D03*
X23750000Y69900000D03*
X76000000Y54350000D03*
X76000000Y56150000D03*
X20000000Y68100000D03*
X20000000Y69900000D03*
X68750000Y54350000D03*
X68750000Y56150000D03*
X44750000Y45600000D03*
X44750000Y47400000D03*
X24250000Y4150000D03*
X24250000Y2350000D03*
D46*
X45600000Y68500000D03*
X47400000Y68500000D03*
X66900000Y36500000D03*
X65100000Y36500000D03*
X45900000Y31000000D03*
X44100000Y31000000D03*
D45*
X47000000Y57100000D03*
X47000000Y58900000D03*
X44750000Y34100000D03*
X44750000Y35900000D03*
D47*
X46750000Y2460000D03*
X46750000Y7540000D03*
X72500000Y2460000D03*
X72500000Y7540000D03*
D21*
X53760000Y19600000D03*
X56300000Y19600000D03*
X58840000Y19600000D03*
X27960000Y19600000D03*
X30500000Y19600000D03*
X33040000Y19600000D03*
D48*
X40500000Y15750000D03*
X47000000Y15750000D03*
X66250000Y15750000D03*
X72750000Y15750000D03*
D49*
X31500000Y8250000D03*
X31500000Y3250000D03*
X57250000Y8250000D03*
X57250000Y3250000D03*
D50*
X15810000Y70366000D03*
X13270000Y70366000D03*
X10730000Y70366000D03*
X8190000Y70366000D03*
X8190000Y55634000D03*
X10730000Y55634000D03*
X13270000Y55634000D03*
X15810000Y55634000D03*
D51*
X23807600Y60730000D03*
X23807600Y59460000D03*
X23807600Y58190000D03*
X29192400Y60730000D03*
X23807600Y64540000D03*
X23807600Y63270000D03*
X23807600Y62000000D03*
X29192400Y63270000D03*
X29192400Y64540000D03*
X29192400Y65810000D03*
X29192400Y59460000D03*
X23807600Y65810000D03*
X29192400Y58190000D03*
X29192400Y62000000D03*
X25611000Y65810000D03*
X25611000Y64540000D03*
X25611000Y63270000D03*
X25611000Y62000000D03*
X25611000Y60730000D03*
X27389000Y60730000D03*
X27389000Y62000000D03*
X27389000Y63270000D03*
X27389000Y64540000D03*
X27389000Y65810000D03*
D39*
X25550000Y53700000D03*
X27450000Y53700000D03*
D12*
X40300000Y4300000D03*
X36100000Y17300000D03*
D52*
X30700000Y52100000D03*
X65600000Y21500000D03*
X64600000Y33600000D03*
X39300000Y11600000D03*
X50000000Y48200000D03*
X11800000Y66200000D03*
X54000000Y29500000D03*
X57750000Y52750000D03*
X54250000Y25500000D03*
X31250000Y62000000D03*
X80500000Y64800000D03*
X66900000Y33300000D03*
X73500000Y20900000D03*
X64000000Y23600000D03*
X37200000Y25300000D03*
X40000000Y57800000D03*
X31200000Y60700000D03*
X55250000Y25000000D03*
X31300000Y63200000D03*
X52400000Y23300000D03*
X31300000Y64500000D03*
X56250000Y25500000D03*
X54800000Y33800000D03*
X53400000Y33600000D03*
X65600000Y39100000D03*
X53200000Y38100000D03*
X59800000Y39300000D03*
X54400000Y38100000D03*
X58600000Y39300000D03*
X65500000Y40900000D03*
X26400000Y68100000D03*
X26400000Y58200000D03*
D53*
X25550000Y52850000D02*
X25550000Y53700000D01*
X26300000Y52100000D02*
X25550000Y52850000D01*
X30700000Y52100000D02*
X26300000Y52100000D01*
X26200000Y4500000D02*
X26200000Y17840000D01*
X26200000Y17840000D02*
X27960000Y19600000D01*
X26200000Y4500000D02*
X27450000Y3250000D01*
X31500000Y3250000D02*
X27450000Y3250000D01*
D54*
X70300000Y20900000D02*
X66200000Y20900000D01*
X66200000Y20900000D02*
X65600000Y21500000D01*
X64214500Y33214500D02*
X64600000Y33600000D01*
X62250000Y33214500D02*
X64214500Y33214500D01*
D53*
X42905000Y2587000D02*
X42905000Y1405000D01*
X42905000Y1405000D02*
X42250000Y750000D01*
X42250000Y750000D02*
X32000000Y750000D01*
X32000000Y750000D02*
X31500000Y1250000D01*
X31500000Y1250000D02*
X31500000Y3250000D01*
X42905000Y2587000D02*
X46623000Y2587000D01*
X46623000Y2587000D02*
X46750000Y2460000D01*
D54*
X70750000Y22300000D02*
X70750000Y21350000D01*
X70750000Y21350000D02*
X70300000Y20900000D01*
D55*
X64800000Y31500000D02*
X62250000Y31500000D01*
X57400360Y31401220D02*
X58901220Y31401220D01*
X60750000Y31500000D02*
X62250000Y31500000D01*
X60500000Y31750000D02*
X60750000Y31500000D01*
X59250000Y31750000D02*
X60500000Y31750000D01*
X58901220Y31401220D02*
X59250000Y31750000D01*
D53*
X28250000Y47500000D02*
X28250000Y49500000D01*
X40250000Y47250000D02*
X42000000Y45500000D01*
X40250000Y49650000D02*
X40250000Y47250000D01*
X39000000Y50900000D02*
X40250000Y49650000D01*
X29650000Y50900000D02*
X39000000Y50900000D01*
X28250000Y49500000D02*
X29650000Y50900000D01*
X28250000Y47500000D02*
X26270000Y47500000D01*
X26270000Y47500000D02*
X25540000Y46770000D01*
X23000000Y47500000D02*
X24810000Y47500000D01*
X24810000Y47500000D02*
X25540000Y46770000D01*
X42000000Y45500000D02*
X44650000Y45500000D01*
X44650000Y45500000D02*
X44750000Y45600000D01*
X28250000Y36000000D02*
X28250000Y38300000D01*
X40400000Y35600000D02*
X42000000Y34000000D01*
X40400000Y38100000D02*
X40400000Y35600000D01*
X39250000Y39250000D02*
X40400000Y38100000D01*
X29200000Y39250000D02*
X39250000Y39250000D01*
X28250000Y38300000D02*
X29200000Y39250000D01*
X28250000Y36000000D02*
X26270000Y36000000D01*
X26270000Y36000000D02*
X25540000Y35270000D01*
X23000000Y36000000D02*
X24810000Y36000000D01*
X24810000Y36000000D02*
X25540000Y35270000D01*
X42000000Y34000000D02*
X44650000Y34000000D01*
X44650000Y34000000D02*
X44750000Y34100000D01*
X28250000Y43500000D02*
X29250000Y43500000D01*
X30500000Y45500000D02*
X31825000Y45500000D01*
X29750000Y44750000D02*
X30500000Y45500000D01*
X29750000Y44000000D02*
X29750000Y44750000D01*
X29250000Y43500000D02*
X29750000Y44000000D01*
X28250000Y43500000D02*
X26270000Y43500000D01*
X26270000Y43500000D02*
X25540000Y44230000D01*
X23000000Y43500000D02*
X24810000Y43500000D01*
X24810000Y43500000D02*
X25540000Y44230000D01*
X31825000Y45500000D02*
X38175000Y45500000D01*
X28250000Y32000000D02*
X29250000Y32000000D01*
X30500000Y34000000D02*
X31825000Y34000000D01*
X29750000Y33250000D02*
X30500000Y34000000D01*
X29750000Y32500000D02*
X29750000Y33250000D01*
X29250000Y32000000D02*
X29750000Y32500000D01*
X28250000Y32000000D02*
X26270000Y32000000D01*
X26270000Y32000000D02*
X25540000Y32730000D01*
X23000000Y32000000D02*
X24810000Y32000000D01*
X24810000Y32000000D02*
X25540000Y32730000D01*
X38175000Y34000000D02*
X31825000Y34000000D01*
X36800000Y22100000D02*
X33800000Y22100000D01*
X33040000Y21340000D02*
X33040000Y19600000D01*
X33800000Y22100000D02*
X33040000Y21340000D01*
X40500000Y15750000D02*
X40500000Y22100000D01*
X44300000Y22100000D02*
X40500000Y22100000D01*
X40500000Y22100000D02*
X36800000Y22100000D01*
X78000000Y16900000D02*
X78000000Y19200000D01*
X77400000Y19800000D02*
X76250000Y19800000D01*
X78000000Y19200000D02*
X77400000Y19800000D01*
X66250000Y15750000D02*
X66250000Y19800000D01*
X76250000Y19800000D02*
X66250000Y19800000D01*
X66250000Y19800000D02*
X65200000Y19800000D01*
X62900000Y22100000D02*
X58840000Y22100000D01*
X65200000Y19800000D02*
X62900000Y22100000D01*
X58840000Y22100000D02*
X44300000Y22100000D01*
X44300000Y22100000D02*
X43000000Y22100000D01*
X58840000Y19600000D02*
X58840000Y22100000D01*
X39300000Y11600000D02*
X40365000Y11600000D01*
X76250000Y22300000D02*
X76250000Y19800000D01*
X78000000Y11250000D02*
X79250000Y10000000D01*
X78000000Y16900000D02*
X78000000Y11250000D01*
X66115000Y7413000D02*
X66115000Y15615000D01*
X66115000Y15615000D02*
X66250000Y15750000D01*
X40365000Y7413000D02*
X40365000Y11600000D01*
X40365000Y11600000D02*
X40365000Y15615000D01*
X40365000Y15615000D02*
X40500000Y15750000D01*
X62900000Y50300000D02*
X43100000Y50300000D01*
X43100000Y50300000D02*
X42000000Y49200000D01*
X62500000Y60500000D02*
X64500000Y60500000D01*
X46000000Y71000000D02*
X61000000Y71000000D01*
X62100000Y69900000D02*
X62100000Y65900000D01*
X61000000Y71000000D02*
X62100000Y69900000D01*
X64500000Y63500000D02*
X64500000Y60500000D01*
X64500000Y60500000D02*
X64500000Y51900000D01*
X42000000Y49200000D02*
X42000000Y48040000D01*
X64500000Y51900000D02*
X62900000Y50300000D01*
X45600000Y70600000D02*
X45600000Y68500000D01*
X46000000Y71000000D02*
X45600000Y70600000D01*
X64500000Y63500000D02*
X62100000Y65900000D01*
X44214000Y64000000D02*
X44214000Y65464000D01*
X45600000Y66850000D02*
X45600000Y68500000D01*
X44214000Y65464000D02*
X45600000Y66850000D01*
X79250000Y10000000D02*
X83500000Y10000000D01*
D55*
X55248980Y38848980D02*
X55900000Y39500000D01*
X55900000Y39500000D02*
X57300000Y39500000D01*
X57300000Y39500000D02*
X57800000Y40000000D01*
X55248980Y35950360D02*
X55248980Y38848980D01*
X57800000Y47600000D02*
X57200000Y48200000D01*
X57200000Y48200000D02*
X50000000Y48200000D01*
X57800000Y40000000D02*
X57800000Y47600000D01*
X11800000Y66200000D02*
X10730000Y67270000D01*
X10730000Y67270000D02*
X10730000Y70366000D01*
D54*
X49099640Y33798980D02*
X47951020Y33798980D01*
X39536000Y43214000D02*
X38175000Y43214000D01*
X41500000Y41250000D02*
X39536000Y43214000D01*
X46000000Y41250000D02*
X41500000Y41250000D01*
X47500000Y39750000D02*
X46000000Y41250000D01*
X47500000Y34250000D02*
X47500000Y39750000D01*
X47951020Y33798980D02*
X47500000Y34250000D01*
D55*
X23807600Y64540000D02*
X25611000Y64540000D01*
X23807600Y64540000D02*
X10210000Y64540000D01*
X8190000Y66560000D02*
X8190000Y70366000D01*
X10210000Y64540000D02*
X8190000Y66560000D01*
X23807600Y60730000D02*
X25611000Y60730000D01*
X23807600Y60730000D02*
X17480000Y60730000D01*
X15810000Y59060000D02*
X15810000Y55634000D01*
X17480000Y60730000D02*
X15810000Y59060000D01*
X23807600Y63270000D02*
X25611000Y63270000D01*
X23807600Y63270000D02*
X9770000Y63270000D01*
X8190000Y61690000D02*
X8190000Y55634000D01*
X9770000Y63270000D02*
X8190000Y61690000D01*
X23807600Y62000000D02*
X25611000Y62000000D01*
X23807600Y62000000D02*
X12250000Y62000000D01*
X10730000Y60480000D02*
X10730000Y55634000D01*
X12250000Y62000000D02*
X10730000Y60480000D01*
X59750000Y51250000D02*
X45350000Y51250000D01*
X44500000Y52100000D02*
X44500000Y57050000D01*
X45350000Y51250000D02*
X44500000Y52100000D01*
X62500000Y55500000D02*
X61000000Y55500000D01*
X60500000Y52000000D02*
X59750000Y51250000D01*
X60500000Y55000000D02*
X60500000Y52000000D01*
X61000000Y55500000D02*
X60500000Y55000000D01*
X47000000Y57100000D02*
X44550000Y57100000D01*
X44550000Y57100000D02*
X44500000Y57050000D01*
X21750000Y12325000D02*
X21750000Y18675000D01*
X21750000Y9000000D02*
X24000000Y9000000D01*
X24250000Y8750000D02*
X24250000Y7950000D01*
X24000000Y9000000D02*
X24250000Y8750000D01*
X21750000Y12325000D02*
X21750000Y9000000D01*
X53648780Y27649640D02*
X53648780Y29148780D01*
X53648780Y29148780D02*
X54000000Y29500000D01*
X57750000Y52750000D02*
X56675000Y53825000D01*
X56675000Y53825000D02*
X56675000Y55714000D01*
D54*
X38175000Y31714000D02*
X38175000Y24325000D01*
X50450920Y24700920D02*
X50450920Y27649640D01*
X49250000Y23500000D02*
X50450920Y24700920D01*
X39000000Y23500000D02*
X49250000Y23500000D01*
X38175000Y24325000D02*
X39000000Y23500000D01*
D55*
X24036000Y18675000D02*
X24036000Y22536000D01*
X24500000Y23000000D02*
X28000000Y23000000D01*
X24036000Y22536000D02*
X24500000Y23000000D01*
X49500000Y23000000D02*
X28000000Y23000000D01*
X51000000Y24500000D02*
X51000000Y26000000D01*
X49500000Y23000000D02*
X51000000Y24500000D01*
X51251020Y27649640D02*
X51251020Y26251020D01*
X51251020Y26251020D02*
X51000000Y26000000D01*
X27389000Y62000000D02*
X29192400Y62000000D01*
X54448880Y27649640D02*
X54448880Y25698880D01*
X54448880Y25698880D02*
X54250000Y25500000D01*
X31250000Y62000000D02*
X29192400Y62000000D01*
X52851220Y27649640D02*
X52851220Y24648780D01*
X52851220Y24648780D02*
X53000000Y24500000D01*
X49099640Y29801020D02*
X47401020Y29801020D01*
X47401020Y29801020D02*
X46000000Y28400000D01*
X46000000Y28400000D02*
X44200000Y28400000D01*
X44200000Y28400000D02*
X44100000Y28300000D01*
X49099640Y29000920D02*
X49099640Y24849640D01*
X41900000Y25100000D02*
X41900000Y26700000D01*
X43000000Y24000000D02*
X41900000Y25100000D01*
X48250000Y24000000D02*
X43000000Y24000000D01*
X49099640Y24849640D02*
X48250000Y24000000D01*
X40000000Y26600000D02*
X41800000Y26600000D01*
X41800000Y26600000D02*
X41900000Y26700000D01*
X57400360Y33798980D02*
X58798980Y33798980D01*
X58798980Y33798980D02*
X59700000Y34700000D01*
X57400360Y34599080D02*
X57400360Y35500360D01*
X58200000Y36300000D02*
X59700000Y36300000D01*
X57400360Y35500360D02*
X58200000Y36300000D01*
X57400360Y30601120D02*
X59648880Y30601120D01*
X59648880Y30601120D02*
X59650000Y30600000D01*
X57400360Y32998880D02*
X59698880Y32998880D01*
X59698880Y32998880D02*
X59700000Y33000000D01*
X49500000Y49000000D02*
X63600000Y49000000D01*
X63600000Y49000000D02*
X66825000Y52225000D01*
X66825000Y52225000D02*
X66825000Y63025000D01*
X78200000Y64800000D02*
X80500000Y64800000D01*
X77100000Y63700000D02*
X78200000Y64800000D01*
X67500000Y63700000D02*
X77100000Y63700000D01*
X66825000Y63025000D02*
X67500000Y63700000D01*
X50450920Y35950360D02*
X50450920Y36949080D01*
X50450920Y36949080D02*
X48700000Y38700000D01*
X48700000Y38700000D02*
X48700000Y48200000D01*
X48700000Y48200000D02*
X49500000Y49000000D01*
X86950000Y66000000D02*
X86950000Y67250500D01*
X86950000Y67250500D02*
X88222500Y68523000D01*
X87270000Y70428000D02*
X87270000Y69475500D01*
X87270000Y69475500D02*
X88222500Y68523000D01*
X87270000Y70428000D02*
X87270000Y74047500D01*
X87270000Y74047500D02*
X88222500Y75000000D01*
X52051120Y27649640D02*
X52051120Y25551120D01*
X52051120Y25551120D02*
X52000000Y25500000D01*
D53*
X80654000Y17800000D02*
X80654000Y13846000D01*
X87500000Y12000000D02*
X87500000Y10000000D01*
X86500000Y13000000D02*
X87500000Y12000000D01*
X81500000Y13000000D02*
X86500000Y13000000D01*
X80654000Y13846000D02*
X81500000Y13000000D01*
X87500000Y10000000D02*
X87500000Y8000000D01*
X84230000Y6730000D02*
X84230000Y5000000D01*
X85000000Y7500000D02*
X84230000Y6730000D01*
X87000000Y7500000D02*
X85000000Y7500000D01*
X87500000Y8000000D02*
X87000000Y7500000D01*
D55*
X70700000Y39300000D02*
X72645740Y39300000D01*
X72645740Y39300000D02*
X72650740Y39305000D01*
D54*
X66900000Y33300000D02*
X66900000Y36500000D01*
D55*
X66900000Y36500000D02*
X66900000Y41350000D01*
X66405000Y41845000D02*
X63349260Y41845000D01*
X66900000Y41350000D02*
X66405000Y41845000D01*
X72650740Y43115000D02*
X71285000Y43115000D01*
X71285000Y43115000D02*
X70700000Y43700000D01*
X70700000Y41800000D02*
X72605740Y41800000D01*
X72605740Y41800000D02*
X72650740Y41845000D01*
X69050000Y36500000D02*
X69050000Y41050000D01*
X69800000Y41800000D02*
X70700000Y41800000D01*
X69050000Y41050000D02*
X69800000Y41800000D01*
X49300000Y49500000D02*
X63400000Y49500000D01*
X63400000Y49500000D02*
X66250000Y52350000D01*
X49099640Y34599080D02*
X49099640Y37700360D01*
X76950000Y64850000D02*
X76950000Y66000000D01*
X76400000Y64300000D02*
X76950000Y64850000D01*
X67100000Y64300000D02*
X76400000Y64300000D01*
X66250000Y63450000D02*
X67100000Y64300000D01*
X66250000Y52350000D02*
X66250000Y63450000D01*
X48300000Y48500000D02*
X49300000Y49500000D01*
X48300000Y38500000D02*
X48300000Y48500000D01*
X49099640Y37700360D02*
X48300000Y38500000D01*
X76950000Y66000000D02*
X76950000Y67250500D01*
X76950000Y67250500D02*
X78222500Y68523000D01*
X77270000Y70428000D02*
X77270000Y69475500D01*
X77270000Y69475500D02*
X78222500Y68523000D01*
X77270000Y70428000D02*
X77270000Y74047500D01*
X77270000Y74047500D02*
X78222500Y75000000D01*
X91000000Y52150000D02*
X88600000Y52150000D01*
X88600000Y52150000D02*
X88250000Y52500000D01*
X88250000Y52500000D02*
X88250000Y53350000D01*
X88250000Y53350000D02*
X88250000Y53000000D01*
D53*
X34700000Y17300000D02*
X31400000Y17300000D01*
X30500000Y18200000D02*
X30500000Y19600000D01*
X31400000Y17300000D02*
X30500000Y18200000D01*
X60400000Y17300000D02*
X57200000Y17300000D01*
X56300000Y18200000D02*
X56300000Y19600000D01*
X57200000Y17300000D02*
X56300000Y18200000D01*
X47100000Y13250000D02*
X47100000Y15650000D01*
X47100000Y15650000D02*
X47000000Y15750000D01*
X48500000Y13250000D02*
X47100000Y13250000D01*
X45700000Y13250000D02*
X47100000Y13250000D01*
X47100000Y13250000D02*
X47100000Y9750000D01*
X47100000Y9750000D02*
X47100000Y7890000D01*
X47100000Y7890000D02*
X46750000Y7540000D01*
X47100000Y9750000D02*
X45700000Y9750000D01*
X48500000Y9750000D02*
X47100000Y9750000D01*
X72850000Y13250000D02*
X72850000Y15650000D01*
X72850000Y15650000D02*
X72750000Y15750000D01*
X72850000Y10000000D02*
X72850000Y7890000D01*
X72850000Y7890000D02*
X72500000Y7540000D01*
X72850000Y13250000D02*
X72850000Y10000000D01*
X72850000Y13250000D02*
X74250000Y13250000D01*
X71450000Y13250000D02*
X72850000Y13250000D01*
X72850000Y10000000D02*
X71450000Y10000000D01*
X74250000Y10000000D02*
X72850000Y10000000D01*
X61800000Y17300000D02*
X61800000Y14800000D01*
X61800000Y14800000D02*
X61850000Y14750000D01*
X63200000Y17300000D02*
X61800000Y17300000D01*
X60400000Y17300000D02*
X61800000Y17300000D01*
X36100000Y17300000D02*
X36100000Y14750000D01*
X37600000Y17300000D02*
X36100000Y17300000D01*
X34700000Y17300000D02*
X36100000Y17300000D01*
X67600000Y13200000D02*
X68100000Y13200000D01*
X68100000Y13200000D02*
X68800000Y12500000D01*
X67600000Y11800000D02*
X67600000Y13200000D01*
X67550000Y10250000D02*
X67550000Y11750000D01*
X67550000Y11750000D02*
X67600000Y11800000D01*
X67400000Y4300000D02*
X67400000Y5700000D01*
X67385000Y2587000D02*
X67385000Y4285000D01*
X67385000Y4285000D02*
X67400000Y4300000D01*
X66100000Y4300000D02*
X67400000Y4300000D01*
X41600000Y4300000D02*
X40300000Y4300000D01*
X41800000Y13300000D02*
X42300000Y13300000D01*
X42300000Y13300000D02*
X43100000Y12500000D01*
X41800000Y11800000D02*
X41800000Y13300000D01*
X41800000Y10250000D02*
X41800000Y11800000D01*
X41600000Y5700000D02*
X41600000Y7378000D01*
X41600000Y7378000D02*
X41635000Y7413000D01*
X41600000Y4300000D02*
X41600000Y5700000D01*
X23800000Y56000000D02*
X23800000Y58182400D01*
X23800000Y58182400D02*
X23807600Y58190000D01*
X25550000Y56000000D02*
X23800000Y56000000D01*
X24250000Y2350000D02*
X24250000Y1500000D01*
X23750000Y1000000D02*
X23000000Y1000000D01*
X24250000Y1500000D02*
X23750000Y1000000D01*
X41635000Y2587000D02*
X41635000Y7413000D01*
X40365000Y2587000D02*
X41635000Y2587000D01*
X67385000Y2587000D02*
X67385000Y7413000D01*
X66115000Y2587000D02*
X67385000Y2587000D01*
X41635000Y7413000D02*
X41635000Y8885000D01*
X41635000Y8885000D02*
X41800000Y9050000D01*
X41800000Y9050000D02*
X41800000Y10250000D01*
X67385000Y7413000D02*
X67385000Y8635000D01*
X67385000Y8635000D02*
X67550000Y8800000D01*
X67550000Y8800000D02*
X67550000Y10250000D01*
X44750000Y48750000D02*
X44750000Y47400000D01*
X69900000Y48200000D02*
X68600000Y48200000D01*
X68600000Y48200000D02*
X68000000Y48800000D01*
X66100000Y48200000D02*
X67400000Y48200000D01*
X67400000Y48200000D02*
X68000000Y48800000D01*
D56*
X49099640Y31401220D02*
X51001220Y31401220D01*
X51001220Y31401220D02*
X51800000Y32200000D01*
D53*
X19464000Y18675000D02*
X17925000Y18675000D01*
X17925000Y18675000D02*
X17500000Y19100000D01*
X68000000Y31500000D02*
X66600000Y31500000D01*
D56*
X72650740Y48195000D02*
X74305000Y48195000D01*
X74305000Y48195000D02*
X74750000Y47750000D01*
X63349260Y48195000D02*
X61695000Y48195000D01*
X61695000Y48195000D02*
X61250000Y47750000D01*
X66100000Y48200000D02*
X63354260Y48200000D01*
X63354260Y48200000D02*
X63349260Y48195000D01*
X69900000Y48200000D02*
X72645740Y48200000D01*
X72645740Y48200000D02*
X72650740Y48195000D01*
D53*
X13270000Y70366000D02*
X13270000Y68030000D01*
X13270000Y68030000D02*
X13300000Y68000000D01*
X30800000Y69900000D02*
X29250000Y69900000D01*
X63500000Y36500000D02*
X65100000Y36500000D01*
X85050000Y66000000D02*
X83400000Y66000000D01*
X75050000Y66000000D02*
X73400000Y66000000D01*
D56*
X49099640Y32998880D02*
X51001120Y32998880D01*
X51001120Y32998880D02*
X51800000Y32200000D01*
X57400360Y32198780D02*
X56198780Y32198780D01*
X56198780Y32198780D02*
X55300000Y31300000D01*
D53*
X91000000Y62310000D02*
X91790000Y62310000D01*
X91790000Y62310000D02*
X93600000Y60500000D01*
X93600000Y45350000D02*
X86750000Y38500000D01*
X93600000Y60500000D02*
X93600000Y45350000D01*
X86750000Y17800000D02*
X91500000Y17800000D01*
X91500000Y17800000D02*
X93600000Y19900000D01*
X93600000Y19900000D02*
X93600000Y31650000D01*
X93600000Y31650000D02*
X86750000Y38500000D01*
D56*
X46501120Y32998880D02*
X44698880Y32998880D01*
X44698880Y32998880D02*
X44100000Y32400000D01*
X44100000Y32400000D02*
X44100000Y31000000D01*
X49099640Y32998880D02*
X46501120Y32998880D01*
D53*
X46000000Y37800000D02*
X46500000Y37300000D01*
X46500000Y37300000D02*
X46500000Y33000000D01*
X46000000Y37800000D02*
X44800000Y37800000D01*
X46501120Y32998880D02*
X46500000Y33000000D01*
X44800000Y37800000D02*
X44800000Y35950000D01*
X44800000Y35950000D02*
X44750000Y35900000D01*
X68000000Y28016000D02*
X67266000Y28016000D01*
X67266000Y28016000D02*
X66500000Y27250000D01*
X76250000Y28016000D02*
X76984000Y28016000D01*
X76984000Y28016000D02*
X77750000Y27250000D01*
D56*
X74750000Y46925000D02*
X74750000Y47750000D01*
X72650740Y46925000D02*
X74750000Y46925000D01*
X72650740Y45655000D02*
X74750000Y45655000D01*
X72650740Y44385000D02*
X74135000Y44385000D01*
X74135000Y44385000D02*
X74750000Y45000000D01*
X74750000Y45000000D02*
X74750000Y45655000D01*
X74750000Y45655000D02*
X74750000Y46925000D01*
X61250000Y46925000D02*
X61250000Y47750000D01*
X63349260Y46925000D02*
X61250000Y46925000D01*
X63349260Y45655000D02*
X61250000Y45655000D01*
X63349260Y44385000D02*
X61250000Y44385000D01*
X63349260Y43115000D02*
X61635000Y43115000D01*
X61635000Y43115000D02*
X61250000Y43500000D01*
X61250000Y43500000D02*
X61250000Y44385000D01*
X61250000Y44385000D02*
X61250000Y45655000D01*
X61250000Y45655000D02*
X61250000Y46925000D01*
D53*
X46000000Y25000000D02*
X46000000Y26600000D01*
X40000000Y30000000D02*
X40000000Y28400000D01*
X58500000Y60300000D02*
X56689000Y60300000D01*
X56689000Y60300000D02*
X56675000Y60286000D01*
X68750000Y56150000D02*
X68750000Y56850000D01*
X68750000Y56850000D02*
X67900000Y57700000D01*
X76000000Y56150000D02*
X76000000Y56800000D01*
X76000000Y56800000D02*
X75100000Y57700000D01*
X38200000Y37900000D02*
X38200000Y36311000D01*
X38200000Y36311000D02*
X38175000Y36286000D01*
X38200000Y49400000D02*
X38200000Y47811000D01*
X38200000Y47811000D02*
X38175000Y47786000D01*
X20000000Y69900000D02*
X20000000Y72500000D01*
D55*
X13270000Y72020000D02*
X13270000Y70366000D01*
X13750000Y72500000D02*
X13270000Y72020000D01*
X14750000Y72500000D02*
X13750000Y72500000D01*
X15500000Y73250000D02*
X14750000Y72500000D01*
D53*
X19250000Y73250000D02*
X15500000Y73250000D01*
X20000000Y72500000D02*
X19250000Y73250000D01*
X23750000Y69900000D02*
X20000000Y69900000D01*
X29250000Y69900000D02*
X23750000Y69900000D01*
X73500000Y28016000D02*
X76250000Y28016000D01*
X70750000Y28016000D02*
X73500000Y28016000D01*
X68000000Y28016000D02*
X70750000Y28016000D01*
X40000000Y28400000D02*
X41800000Y28400000D01*
X41800000Y28400000D02*
X41900000Y28300000D01*
X46000000Y26600000D02*
X44200000Y26600000D01*
X44200000Y26600000D02*
X44100000Y26700000D01*
D55*
X56049080Y35950360D02*
X56450360Y35950360D01*
X57000000Y36500000D02*
X57000000Y38500000D01*
X56450360Y35950360D02*
X57000000Y36500000D01*
D53*
X27389000Y65810000D02*
X29192400Y65810000D01*
X52000000Y4200000D02*
X52000000Y17840000D01*
X52000000Y17840000D02*
X53760000Y19600000D01*
X52000000Y4200000D02*
X52950000Y3250000D01*
X57250000Y3250000D02*
X52950000Y3250000D01*
D54*
X73500000Y20900000D02*
X73500000Y22300000D01*
D53*
X64000000Y28700000D02*
X64000000Y23600000D01*
X64500000Y29200000D02*
X64000000Y28700000D01*
X68655000Y2587000D02*
X68655000Y1155000D01*
X57250000Y1250000D02*
X57250000Y3250000D01*
X57750000Y750000D02*
X57250000Y1250000D01*
X68250000Y750000D02*
X57750000Y750000D01*
X68655000Y1155000D02*
X68250000Y750000D01*
X68655000Y2587000D02*
X72373000Y2587000D01*
X72373000Y2587000D02*
X72500000Y2460000D01*
X5670000Y13750000D02*
X1400000Y13750000D01*
X8210000Y13750000D02*
X5670000Y13750000D01*
X40000000Y57800000D02*
X41800000Y57800000D01*
X41800000Y57800000D02*
X42950000Y58950000D01*
X40000000Y57800000D02*
X33000000Y57800000D01*
X32700000Y65000000D02*
X31890000Y65810000D01*
X32700000Y58100000D02*
X32700000Y65000000D01*
X33000000Y57800000D02*
X32700000Y58100000D01*
D56*
X49099640Y32198780D02*
X47698780Y32198780D01*
X47250000Y31750000D02*
X47250000Y31000000D01*
X47698780Y32198780D02*
X47250000Y31750000D01*
D53*
X20920000Y920000D02*
X9330000Y920000D01*
X20920000Y920000D02*
X21750000Y1750000D01*
X21750000Y1750000D02*
X21750000Y5000000D01*
X3000000Y8250000D02*
X6250000Y8250000D01*
X1400000Y9850000D02*
X3000000Y8250000D01*
X6250000Y8250000D02*
X8500000Y6000000D01*
X1400000Y13750000D02*
X1400000Y9850000D01*
X9330000Y920000D02*
X8500000Y1750000D01*
X8500000Y1750000D02*
X8500000Y6000000D01*
X1400000Y23950000D02*
X1400000Y13750000D01*
X2750000Y25300000D02*
X1400000Y23950000D01*
X37200000Y25300000D02*
X2750000Y25300000D01*
X24250000Y4150000D02*
X23600000Y4150000D01*
X23600000Y4150000D02*
X22750000Y5000000D01*
X22750000Y5000000D02*
X21750000Y5000000D01*
X24250000Y4150000D02*
X24250000Y6050000D01*
D56*
X62250000Y29785500D02*
X63914500Y29785500D01*
X63914500Y29785500D02*
X64500000Y29200000D01*
D53*
X65150000Y29850000D02*
X64500000Y29200000D01*
X69100000Y29850000D02*
X65150000Y29850000D01*
X69100000Y29850000D02*
X70950000Y31700000D01*
X70950000Y34900000D02*
X70950000Y31700000D01*
X72650740Y40575000D02*
X74700000Y40575000D01*
X70950000Y34900000D02*
X73800000Y34900000D01*
X78250000Y46950000D02*
X78250000Y54440000D01*
X74700000Y43400000D02*
X78250000Y46950000D01*
X74700000Y35800000D02*
X74700000Y40575000D01*
X74700000Y40575000D02*
X74700000Y43400000D01*
X73800000Y34900000D02*
X74700000Y35800000D01*
X83700000Y59500000D02*
X83700000Y61300000D01*
X82000000Y66745500D02*
X83777500Y68523000D01*
X82000000Y63000000D02*
X82000000Y66745500D01*
X83700000Y61300000D02*
X82000000Y63000000D01*
X66950000Y66000000D02*
X71254500Y66000000D01*
X71254500Y66000000D02*
X73777500Y68523000D01*
X83777500Y75000000D02*
X83777500Y76222500D01*
X74500000Y77000000D02*
X73777500Y76277500D01*
X83000000Y77000000D02*
X74500000Y77000000D01*
X83777500Y76222500D02*
X83000000Y77000000D01*
X73777500Y76277500D02*
X73777500Y75000000D01*
X84730000Y70428000D02*
X84730000Y74047500D01*
X84730000Y74047500D02*
X83777500Y75000000D01*
X83777500Y68523000D02*
X83777500Y69475500D01*
X83777500Y69475500D02*
X84730000Y70428000D01*
X74730000Y70428000D02*
X74730000Y74047500D01*
X74730000Y74047500D02*
X73777500Y75000000D01*
X74730000Y70428000D02*
X74730000Y69475500D01*
X74730000Y69475500D02*
X73777500Y68523000D01*
D56*
X57400360Y29801020D02*
X58698980Y29801020D01*
X60785500Y29785500D02*
X62250000Y29785500D01*
X60400000Y29400000D02*
X60785500Y29785500D01*
X59100000Y29400000D02*
X60400000Y29400000D01*
X58698980Y29801020D02*
X59100000Y29400000D01*
X49099640Y30601120D02*
X54248880Y30601120D01*
X55048980Y29801020D02*
X57400360Y29801020D01*
X54248880Y30601120D02*
X55048980Y29801020D01*
D53*
X70950000Y34900000D02*
X70950000Y36500000D01*
X29192400Y65810000D02*
X31890000Y65810000D01*
X42950000Y58950000D02*
X44500000Y58950000D01*
X29192400Y65810000D02*
X29192400Y68042400D01*
X29192400Y68042400D02*
X29250000Y68100000D01*
X83700000Y56750000D02*
X83700000Y59500000D01*
X78250000Y54440000D02*
X82440000Y54440000D01*
X82440000Y54440000D02*
X83700000Y55700000D01*
X83700000Y55700000D02*
X83700000Y56750000D01*
X71000000Y54440000D02*
X75910000Y54440000D01*
X75910000Y54440000D02*
X76000000Y54350000D01*
X68750000Y54350000D02*
X70910000Y54350000D01*
X70910000Y54350000D02*
X71000000Y54440000D01*
X76000000Y54350000D02*
X78160000Y54350000D01*
X78160000Y54350000D02*
X78250000Y54440000D01*
D56*
X49099640Y30601120D02*
X47648880Y30601120D01*
X47250000Y31000000D02*
X45900000Y31000000D01*
X47648880Y30601120D02*
X47250000Y31000000D01*
D55*
X91000000Y75250000D02*
X91000000Y68750000D01*
X91000000Y68750000D02*
X88250000Y66000000D01*
X88250000Y55150000D02*
X88250000Y66000000D01*
X52851220Y35950360D02*
X52851220Y37248780D01*
X52300000Y42430000D02*
X50960000Y43770000D01*
X52300000Y37800000D02*
X52300000Y42430000D01*
X52851220Y37248780D02*
X52300000Y37800000D01*
X63777500Y77527500D02*
X63777500Y75000000D01*
X64750000Y78500000D02*
X63777500Y77527500D01*
X87750000Y78500000D02*
X64750000Y78500000D01*
X91000000Y75250000D02*
X87750000Y78500000D01*
X64730000Y70428000D02*
X64730000Y74047500D01*
X64730000Y74047500D02*
X63777500Y75000000D01*
X64730000Y70428000D02*
X64730000Y69475500D01*
X64730000Y69475500D02*
X63777500Y68523000D01*
X65050000Y66000000D02*
X65050000Y67250500D01*
X65050000Y67250500D02*
X63777500Y68523000D01*
X73500000Y25984000D02*
X73500000Y24200000D01*
X70750000Y25984000D02*
X70750000Y24200000D01*
X68000000Y25984000D02*
X68000000Y24200000D01*
X76250000Y25984000D02*
X76250000Y24200000D01*
X27389000Y60730000D02*
X29192400Y60730000D01*
X31170000Y60730000D02*
X29192400Y60730000D01*
X31200000Y60700000D02*
X31170000Y60730000D01*
X55248980Y27649640D02*
X55248980Y25001020D01*
X55248980Y25001020D02*
X55250000Y25000000D01*
X27389000Y63270000D02*
X29192400Y63270000D01*
X57400360Y23300000D02*
X62900000Y23300000D01*
X62900000Y23300000D02*
X63900000Y22300000D01*
X31300000Y63200000D02*
X31230000Y63270000D01*
X31230000Y63270000D02*
X29192400Y63270000D01*
X68000000Y22300000D02*
X63900000Y22300000D01*
X57400360Y29000920D02*
X57400360Y23300000D01*
X52400000Y23300000D02*
X57400360Y23300000D01*
X27389000Y64540000D02*
X29192400Y64540000D01*
X31300000Y64500000D02*
X31260000Y64540000D01*
X31260000Y64540000D02*
X29192400Y64540000D01*
X56049080Y27649640D02*
X56049080Y25700920D01*
X56049080Y25700920D02*
X56250000Y25500000D01*
X52051120Y35950360D02*
X52051120Y34648880D01*
X54200000Y34400000D02*
X54800000Y33800000D01*
X52300000Y34400000D02*
X54200000Y34400000D01*
X52051120Y34648880D02*
X52300000Y34400000D01*
X51251020Y35950360D02*
X51251020Y34448980D01*
X52100000Y33600000D02*
X53400000Y33600000D01*
X51251020Y34448980D02*
X52100000Y33600000D01*
X65395000Y39305000D02*
X65600000Y39100000D01*
X63349260Y39305000D02*
X65395000Y39305000D01*
X53648780Y35950360D02*
X53648780Y37651220D01*
X53648780Y37651220D02*
X53200000Y38100000D01*
X59805000Y39305000D02*
X63349260Y39305000D01*
X59800000Y39300000D02*
X59805000Y39305000D01*
X78250000Y56980000D02*
X81570000Y56980000D01*
X81570000Y56980000D02*
X81800000Y56750000D01*
X71000000Y56980000D02*
X72080000Y56980000D01*
X72080000Y56980000D02*
X73900000Y58800000D01*
X73900000Y58800000D02*
X76430000Y58800000D01*
X76430000Y58800000D02*
X78250000Y56980000D01*
X63349260Y40575000D02*
X59075000Y40575000D01*
X58600000Y40100000D02*
X58600000Y39300000D01*
X59075000Y40575000D02*
X58600000Y40100000D01*
X54448880Y38051120D02*
X54400000Y38100000D01*
X54448880Y35950360D02*
X54448880Y38051120D01*
X63349260Y40575000D02*
X65175000Y40575000D01*
X65175000Y40575000D02*
X65500000Y40900000D01*
X78250000Y59520000D02*
X81780000Y59520000D01*
X81780000Y59520000D02*
X81800000Y59500000D01*
X71000000Y59520000D02*
X78250000Y59520000D01*
X56675000Y58000000D02*
X60000000Y58000000D01*
X60500000Y62000000D02*
X61500000Y63000000D01*
X60500000Y58500000D02*
X60500000Y62000000D01*
X60000000Y58000000D02*
X60500000Y58500000D01*
X61500000Y63000000D02*
X62500000Y63000000D01*
X47000000Y58900000D02*
X47000000Y60250000D01*
X48786000Y62036000D02*
X48786000Y64063500D01*
X47000000Y60250000D02*
X48786000Y62036000D01*
X50325000Y58000000D02*
X56675000Y58000000D01*
X47000000Y58900000D02*
X48100000Y58900000D01*
X49000000Y58000000D02*
X50325000Y58000000D01*
X48100000Y58900000D02*
X49000000Y58000000D01*
X48786000Y64063500D02*
X48786000Y65214000D01*
X48786000Y65214000D02*
X47400000Y66600000D01*
X47400000Y66600000D02*
X47400000Y68500000D01*
D53*
X57250000Y8250000D02*
X57250000Y10250000D01*
X54650000Y12850000D02*
X54650000Y14750000D01*
X57250000Y10250000D02*
X54650000Y12850000D01*
X62750000Y5900000D02*
X62750000Y7413000D01*
X64845000Y7413000D02*
X62750000Y7413000D01*
X62750000Y7413000D02*
X62087000Y7413000D01*
X61250000Y8250000D02*
X57250000Y8250000D01*
X62087000Y7413000D02*
X61250000Y8250000D01*
D55*
X64845000Y2587000D02*
X63413000Y2587000D01*
X62750000Y3250000D02*
X62750000Y4100000D01*
X63413000Y2587000D02*
X62750000Y3250000D01*
D53*
X31500000Y8250000D02*
X31500000Y9750000D01*
X31500000Y9750000D02*
X28900000Y12350000D01*
X28900000Y12350000D02*
X28900000Y14750000D01*
X37000000Y5900000D02*
X37000000Y7413000D01*
X39095000Y7413000D02*
X37000000Y7413000D01*
X37000000Y7413000D02*
X36087000Y7413000D01*
X36087000Y7413000D02*
X35250000Y8250000D01*
X35250000Y8250000D02*
X31500000Y8250000D01*
D55*
X39095000Y2587000D02*
X37663000Y2587000D01*
X37000000Y3250000D02*
X37000000Y4100000D01*
X37663000Y2587000D02*
X37000000Y3250000D01*
X68655000Y7413000D02*
X68655000Y8655000D01*
X69450000Y9450000D02*
X69450000Y10250000D01*
X68655000Y8655000D02*
X69450000Y9450000D01*
X42905000Y7413000D02*
X42905000Y8405000D01*
X42905000Y8405000D02*
X43700000Y9200000D01*
X43700000Y9200000D02*
X43700000Y10250000D01*
D53*
X29192400Y58190000D02*
X26410000Y58190000D01*
X26410000Y58190000D02*
X26400000Y58200000D01*
X27450000Y56000000D02*
X27450000Y53700000D01*
X27450000Y56000000D02*
X27450000Y57150000D01*
X26400000Y68100000D02*
X23750000Y68100000D01*
X27450000Y57150000D02*
X26400000Y58200000D01*
X23807600Y65810000D02*
X25611000Y65810000D01*
X15810000Y70366000D02*
X16434000Y70366000D01*
X17000000Y68600000D02*
X17500000Y68100000D01*
X17000000Y69800000D02*
X17000000Y68600000D01*
X16434000Y70366000D02*
X17000000Y69800000D01*
X23750000Y68100000D02*
X20000000Y68100000D01*
X20000000Y68100000D02*
X17500000Y68100000D01*
X23807600Y65810000D02*
X23807600Y68042400D01*
X23807600Y68042400D02*
X23750000Y68100000D01*
D57*
G36*
X18867481Y50579298D02*
X18580727Y49888716D01*
X18580074Y49140965D01*
X18865623Y48449883D01*
X19393902Y47920681D01*
X20084484Y47633927D01*
X20832235Y47633274D01*
X21523317Y47918823D01*
X21550683Y47946141D01*
X21490662Y47801595D01*
X21490138Y47201039D01*
X21719477Y46645997D01*
X22143764Y46220969D01*
X22698405Y45990662D01*
X23298961Y45990138D01*
X23854003Y46219477D01*
X24052293Y46417421D01*
X24259477Y45915997D01*
X24683764Y45490969D01*
X25104759Y45316157D01*
X24977528Y45263455D01*
X24868089Y45117437D01*
X25540000Y44445526D01*
X26211911Y45117437D01*
X26102472Y45263455D01*
X26036222Y45284100D01*
X30555000Y45284100D01*
X30555000Y43544476D01*
X30593669Y43451120D01*
X30665121Y43379669D01*
X30758476Y43341000D01*
X31609100Y43341000D01*
X31672600Y43404500D01*
X31672600Y45347600D01*
X31977400Y45347600D01*
X31977400Y43404500D01*
X32040900Y43341000D01*
X32891524Y43341000D01*
X32984879Y43379669D01*
X33056331Y43451120D01*
X33095000Y43544476D01*
X33095000Y45284100D01*
X33031500Y45347600D01*
X31977400Y45347600D01*
X31672600Y45347600D01*
X30618500Y45347600D01*
X30555000Y45284100D01*
X26036222Y45284100D01*
X25956829Y45308840D01*
X26394003Y45489477D01*
X26819031Y45913764D01*
X26847635Y45982650D01*
X26954474Y45816617D01*
X27158185Y45677427D01*
X27400000Y45628458D01*
X29100000Y45628458D01*
X29325904Y45670965D01*
X29533383Y45804474D01*
X29672573Y46008185D01*
X29721542Y46250000D01*
X29721542Y47455524D01*
X30555000Y47455524D01*
X30555000Y45715900D01*
X30618500Y45652400D01*
X31672600Y45652400D01*
X31672600Y47595500D01*
X31977400Y47595500D01*
X31977400Y45652400D01*
X33031500Y45652400D01*
X33095000Y45715900D01*
X33095000Y47455524D01*
X33056331Y47548880D01*
X32984879Y47620331D01*
X32891524Y47659000D01*
X32040900Y47659000D01*
X31977400Y47595500D01*
X31672600Y47595500D01*
X31609100Y47659000D01*
X30758476Y47659000D01*
X30665121Y47620331D01*
X30593669Y47548880D01*
X30555000Y47455524D01*
X29721542Y47455524D01*
X29721542Y48750000D01*
X29679035Y48975904D01*
X29545526Y49183383D01*
X29420042Y49269122D01*
X30060320Y49909400D01*
X36898400Y49909400D01*
X36898400Y49104709D01*
X36725617Y48993526D01*
X36586427Y48789815D01*
X36537458Y48548000D01*
X36537458Y47024000D01*
X36579965Y46798096D01*
X36713474Y46590617D01*
X36898400Y46464262D01*
X36898400Y44532709D01*
X36725617Y44421526D01*
X36586427Y44217815D01*
X36537458Y43976000D01*
X36537458Y42452000D01*
X36579965Y42226096D01*
X36713474Y42018617D01*
X36898400Y41892262D01*
X36898400Y41245008D01*
X36855958Y41031637D01*
X36740764Y40859236D01*
X36568363Y40744042D01*
X36354992Y40701600D01*
X28892263Y40701600D01*
X28877381Y40700504D01*
X28693368Y40673257D01*
X28664883Y40664632D01*
X28496661Y40585231D01*
X28483670Y40577888D01*
X28209836Y40395332D01*
X28061988Y40325548D01*
X27900257Y40301600D01*
X21933209Y40301600D01*
X22052519Y40420702D01*
X22339273Y41111284D01*
X22339926Y41859035D01*
X22054377Y42550117D01*
X21992040Y42612563D01*
X22328089Y42612563D01*
X22437528Y42466545D01*
X22875829Y42329963D01*
X23333035Y42371508D01*
X23562472Y42466545D01*
X23671911Y42612563D01*
X23000000Y43284474D01*
X22328089Y42612563D01*
X21992040Y42612563D01*
X21526098Y43079319D01*
X20835516Y43366073D01*
X20087765Y43366726D01*
X19396683Y43081177D01*
X18867481Y42552898D01*
X18580727Y41862316D01*
X18580074Y41114565D01*
X18865623Y40423483D01*
X18987293Y40301600D01*
X5151092Y40301600D01*
X5267317Y40349623D01*
X5796519Y40877902D01*
X6083273Y41568484D01*
X6083926Y42316235D01*
X5798377Y43007317D01*
X5270098Y43536519D01*
X5059009Y43624171D01*
X21829963Y43624171D01*
X21871508Y43166965D01*
X21966545Y42937528D01*
X22112563Y42828089D01*
X22784474Y43500000D01*
X23215526Y43500000D01*
X23887437Y42828089D01*
X24033455Y42937528D01*
X24159670Y43342563D01*
X24868089Y43342563D01*
X24977528Y43196545D01*
X25415829Y43059963D01*
X25873035Y43101508D01*
X26102472Y43196545D01*
X26168093Y43284100D01*
X27146000Y43284100D01*
X27146000Y42199476D01*
X27184669Y42106120D01*
X27256121Y42034669D01*
X27349476Y41996000D01*
X28034100Y41996000D01*
X28097600Y42059500D01*
X28097600Y43347600D01*
X28402400Y43347600D01*
X28402400Y42059500D01*
X28465900Y41996000D01*
X29150524Y41996000D01*
X29243879Y42034669D01*
X29315331Y42106120D01*
X29354000Y42199476D01*
X29354000Y43284100D01*
X29290500Y43347600D01*
X28402400Y43347600D01*
X28097600Y43347600D01*
X27209500Y43347600D01*
X27146000Y43284100D01*
X26168093Y43284100D01*
X26211911Y43342563D01*
X25540000Y44014474D01*
X24868089Y43342563D01*
X24159670Y43342563D01*
X24170037Y43375829D01*
X24128492Y43833035D01*
X24033455Y44062472D01*
X23887437Y44171911D01*
X23215526Y43500000D01*
X22784474Y43500000D01*
X22112563Y44171911D01*
X21966545Y44062472D01*
X21829963Y43624171D01*
X5059009Y43624171D01*
X4579516Y43823273D01*
X3831765Y43823926D01*
X3140683Y43538377D01*
X2901600Y43299711D01*
X2901600Y44387437D01*
X22328089Y44387437D01*
X23000000Y43715526D01*
X23638645Y44354171D01*
X24369963Y44354171D01*
X24411508Y43896965D01*
X24506545Y43667528D01*
X24652563Y43558089D01*
X25324474Y44230000D01*
X25755526Y44230000D01*
X26427437Y43558089D01*
X26573455Y43667528D01*
X26710037Y44105829D01*
X26668492Y44563035D01*
X26573455Y44792472D01*
X26562712Y44800524D01*
X27146000Y44800524D01*
X27146000Y43715900D01*
X27209500Y43652400D01*
X28097600Y43652400D01*
X28097600Y44940500D01*
X28402400Y44940500D01*
X28402400Y43652400D01*
X29290500Y43652400D01*
X29354000Y43715900D01*
X29354000Y44800524D01*
X29315331Y44893880D01*
X29243879Y44965331D01*
X29150524Y45004000D01*
X28465900Y45004000D01*
X28402400Y44940500D01*
X28097600Y44940500D01*
X28034100Y45004000D01*
X27349476Y45004000D01*
X27256121Y44965331D01*
X27184669Y44893880D01*
X27146000Y44800524D01*
X26562712Y44800524D01*
X26427437Y44901911D01*
X25755526Y44230000D01*
X25324474Y44230000D01*
X24652563Y44901911D01*
X24506545Y44792472D01*
X24369963Y44354171D01*
X23638645Y44354171D01*
X23671911Y44387437D01*
X23562472Y44533455D01*
X23124171Y44670037D01*
X22666965Y44628492D01*
X22437528Y44533455D01*
X22328089Y44387437D01*
X2901600Y44387437D01*
X2901600Y47700196D01*
X3137902Y47463481D01*
X3828484Y47176727D01*
X4576235Y47176074D01*
X5267317Y47461623D01*
X5796519Y47989902D01*
X6083273Y48680484D01*
X6083926Y49428235D01*
X5798377Y50119317D01*
X5270098Y50648519D01*
X4668316Y50898400D01*
X19187141Y50898400D01*
X18867481Y50579298D01*
X18867481Y50579298D01*
G37*
X18867481Y50579298D02*
X18580727Y49888716D01*
X18580074Y49140965D01*
X18865623Y48449883D01*
X19393902Y47920681D01*
X20084484Y47633927D01*
X20832235Y47633274D01*
X21523317Y47918823D01*
X21550683Y47946141D01*
X21490662Y47801595D01*
X21490138Y47201039D01*
X21719477Y46645997D01*
X22143764Y46220969D01*
X22698405Y45990662D01*
X23298961Y45990138D01*
X23854003Y46219477D01*
X24052293Y46417421D01*
X24259477Y45915997D01*
X24683764Y45490969D01*
X25104759Y45316157D01*
X24977528Y45263455D01*
X24868089Y45117437D01*
X25540000Y44445526D01*
X26211911Y45117437D01*
X26102472Y45263455D01*
X26036222Y45284100D01*
X30555000Y45284100D01*
X30555000Y43544476D01*
X30593669Y43451120D01*
X30665121Y43379669D01*
X30758476Y43341000D01*
X31609100Y43341000D01*
X31672600Y43404500D01*
X31672600Y45347600D01*
X31977400Y45347600D01*
X31977400Y43404500D01*
X32040900Y43341000D01*
X32891524Y43341000D01*
X32984879Y43379669D01*
X33056331Y43451120D01*
X33095000Y43544476D01*
X33095000Y45284100D01*
X33031500Y45347600D01*
X31977400Y45347600D01*
X31672600Y45347600D01*
X30618500Y45347600D01*
X30555000Y45284100D01*
X26036222Y45284100D01*
X25956829Y45308840D01*
X26394003Y45489477D01*
X26819031Y45913764D01*
X26847635Y45982650D01*
X26954474Y45816617D01*
X27158185Y45677427D01*
X27400000Y45628458D01*
X29100000Y45628458D01*
X29325904Y45670965D01*
X29533383Y45804474D01*
X29672573Y46008185D01*
X29721542Y46250000D01*
X29721542Y47455524D01*
X30555000Y47455524D01*
X30555000Y45715900D01*
X30618500Y45652400D01*
X31672600Y45652400D01*
X31672600Y47595500D01*
X31977400Y47595500D01*
X31977400Y45652400D01*
X33031500Y45652400D01*
X33095000Y45715900D01*
X33095000Y47455524D01*
X33056331Y47548880D01*
X32984879Y47620331D01*
X32891524Y47659000D01*
X32040900Y47659000D01*
X31977400Y47595500D01*
X31672600Y47595500D01*
X31609100Y47659000D01*
X30758476Y47659000D01*
X30665121Y47620331D01*
X30593669Y47548880D01*
X30555000Y47455524D01*
X29721542Y47455524D01*
X29721542Y48750000D01*
X29679035Y48975904D01*
X29545526Y49183383D01*
X29420042Y49269122D01*
X30060320Y49909400D01*
X36898400Y49909400D01*
X36898400Y49104709D01*
X36725617Y48993526D01*
X36586427Y48789815D01*
X36537458Y48548000D01*
X36537458Y47024000D01*
X36579965Y46798096D01*
X36713474Y46590617D01*
X36898400Y46464262D01*
X36898400Y44532709D01*
X36725617Y44421526D01*
X36586427Y44217815D01*
X36537458Y43976000D01*
X36537458Y42452000D01*
X36579965Y42226096D01*
X36713474Y42018617D01*
X36898400Y41892262D01*
X36898400Y41245008D01*
X36855958Y41031637D01*
X36740764Y40859236D01*
X36568363Y40744042D01*
X36354992Y40701600D01*
X28892263Y40701600D01*
X28877381Y40700504D01*
X28693368Y40673257D01*
X28664883Y40664632D01*
X28496661Y40585231D01*
X28483670Y40577888D01*
X28209836Y40395332D01*
X28061988Y40325548D01*
X27900257Y40301600D01*
X21933209Y40301600D01*
X22052519Y40420702D01*
X22339273Y41111284D01*
X22339926Y41859035D01*
X22054377Y42550117D01*
X21992040Y42612563D01*
X22328089Y42612563D01*
X22437528Y42466545D01*
X22875829Y42329963D01*
X23333035Y42371508D01*
X23562472Y42466545D01*
X23671911Y42612563D01*
X23000000Y43284474D01*
X22328089Y42612563D01*
X21992040Y42612563D01*
X21526098Y43079319D01*
X20835516Y43366073D01*
X20087765Y43366726D01*
X19396683Y43081177D01*
X18867481Y42552898D01*
X18580727Y41862316D01*
X18580074Y41114565D01*
X18865623Y40423483D01*
X18987293Y40301600D01*
X5151092Y40301600D01*
X5267317Y40349623D01*
X5796519Y40877902D01*
X6083273Y41568484D01*
X6083926Y42316235D01*
X5798377Y43007317D01*
X5270098Y43536519D01*
X5059009Y43624171D01*
X21829963Y43624171D01*
X21871508Y43166965D01*
X21966545Y42937528D01*
X22112563Y42828089D01*
X22784474Y43500000D01*
X23215526Y43500000D01*
X23887437Y42828089D01*
X24033455Y42937528D01*
X24159670Y43342563D01*
X24868089Y43342563D01*
X24977528Y43196545D01*
X25415829Y43059963D01*
X25873035Y43101508D01*
X26102472Y43196545D01*
X26168093Y43284100D01*
X27146000Y43284100D01*
X27146000Y42199476D01*
X27184669Y42106120D01*
X27256121Y42034669D01*
X27349476Y41996000D01*
X28034100Y41996000D01*
X28097600Y42059500D01*
X28097600Y43347600D01*
X28402400Y43347600D01*
X28402400Y42059500D01*
X28465900Y41996000D01*
X29150524Y41996000D01*
X29243879Y42034669D01*
X29315331Y42106120D01*
X29354000Y42199476D01*
X29354000Y43284100D01*
X29290500Y43347600D01*
X28402400Y43347600D01*
X28097600Y43347600D01*
X27209500Y43347600D01*
X27146000Y43284100D01*
X26168093Y43284100D01*
X26211911Y43342563D01*
X25540000Y44014474D01*
X24868089Y43342563D01*
X24159670Y43342563D01*
X24170037Y43375829D01*
X24128492Y43833035D01*
X24033455Y44062472D01*
X23887437Y44171911D01*
X23215526Y43500000D01*
X22784474Y43500000D01*
X22112563Y44171911D01*
X21966545Y44062472D01*
X21829963Y43624171D01*
X5059009Y43624171D01*
X4579516Y43823273D01*
X3831765Y43823926D01*
X3140683Y43538377D01*
X2901600Y43299711D01*
X2901600Y44387437D01*
X22328089Y44387437D01*
X23000000Y43715526D01*
X23638645Y44354171D01*
X24369963Y44354171D01*
X24411508Y43896965D01*
X24506545Y43667528D01*
X24652563Y43558089D01*
X25324474Y44230000D01*
X25755526Y44230000D01*
X26427437Y43558089D01*
X26573455Y43667528D01*
X26710037Y44105829D01*
X26668492Y44563035D01*
X26573455Y44792472D01*
X26562712Y44800524D01*
X27146000Y44800524D01*
X27146000Y43715900D01*
X27209500Y43652400D01*
X28097600Y43652400D01*
X28097600Y44940500D01*
X28402400Y44940500D01*
X28402400Y43652400D01*
X29290500Y43652400D01*
X29354000Y43715900D01*
X29354000Y44800524D01*
X29315331Y44893880D01*
X29243879Y44965331D01*
X29150524Y45004000D01*
X28465900Y45004000D01*
X28402400Y44940500D01*
X28097600Y44940500D01*
X28034100Y45004000D01*
X27349476Y45004000D01*
X27256121Y44965331D01*
X27184669Y44893880D01*
X27146000Y44800524D01*
X26562712Y44800524D01*
X26427437Y44901911D01*
X25755526Y44230000D01*
X25324474Y44230000D01*
X24652563Y44901911D01*
X24506545Y44792472D01*
X24369963Y44354171D01*
X23638645Y44354171D01*
X23671911Y44387437D01*
X23562472Y44533455D01*
X23124171Y44670037D01*
X22666965Y44628492D01*
X22437528Y44533455D01*
X22328089Y44387437D01*
X2901600Y44387437D01*
X2901600Y47700196D01*
X3137902Y47463481D01*
X3828484Y47176727D01*
X4576235Y47176074D01*
X5267317Y47461623D01*
X5796519Y47989902D01*
X6083273Y48680484D01*
X6083926Y49428235D01*
X5798377Y50119317D01*
X5270098Y50648519D01*
X4668316Y50898400D01*
X19187141Y50898400D01*
X18867481Y50579298D01*
G36*
X18867481Y39079298D02*
X18580727Y38388716D01*
X18580074Y37640965D01*
X18865623Y36949883D01*
X19393902Y36420681D01*
X20084484Y36133927D01*
X20832235Y36133274D01*
X21523317Y36418823D01*
X21550683Y36446141D01*
X21490662Y36301595D01*
X21490138Y35701039D01*
X21719477Y35145997D01*
X22143764Y34720969D01*
X22698405Y34490662D01*
X23298961Y34490138D01*
X23854003Y34719477D01*
X24052293Y34917421D01*
X24259477Y34415997D01*
X24683764Y33990969D01*
X25104759Y33816157D01*
X24977528Y33763455D01*
X24868089Y33617437D01*
X25540000Y32945526D01*
X26211911Y33617437D01*
X26102472Y33763455D01*
X26036222Y33784100D01*
X30555000Y33784100D01*
X30555000Y32044476D01*
X30593669Y31951120D01*
X30665121Y31879669D01*
X30758476Y31841000D01*
X31609100Y31841000D01*
X31672600Y31904500D01*
X31672600Y33847600D01*
X31977400Y33847600D01*
X31977400Y31904500D01*
X32040900Y31841000D01*
X32891524Y31841000D01*
X32984879Y31879669D01*
X33056331Y31951120D01*
X33095000Y32044476D01*
X33095000Y33784100D01*
X33031500Y33847600D01*
X31977400Y33847600D01*
X31672600Y33847600D01*
X30618500Y33847600D01*
X30555000Y33784100D01*
X26036222Y33784100D01*
X25956829Y33808840D01*
X26394003Y33989477D01*
X26819031Y34413764D01*
X26847635Y34482650D01*
X26954474Y34316617D01*
X27158185Y34177427D01*
X27400000Y34128458D01*
X29100000Y34128458D01*
X29325904Y34170965D01*
X29533383Y34304474D01*
X29672573Y34508185D01*
X29721542Y34750000D01*
X29721542Y35955524D01*
X30555000Y35955524D01*
X30555000Y34215900D01*
X30618500Y34152400D01*
X31672600Y34152400D01*
X31672600Y36095500D01*
X31977400Y36095500D01*
X31977400Y34152400D01*
X33031500Y34152400D01*
X33095000Y34215900D01*
X33095000Y35955524D01*
X33056331Y36048880D01*
X32984879Y36120331D01*
X32891524Y36159000D01*
X32040900Y36159000D01*
X31977400Y36095500D01*
X31672600Y36095500D01*
X31609100Y36159000D01*
X30758476Y36159000D01*
X30665121Y36120331D01*
X30593669Y36048880D01*
X30555000Y35955524D01*
X29721542Y35955524D01*
X29721542Y37250000D01*
X29679035Y37475904D01*
X29545526Y37683383D01*
X29341815Y37822573D01*
X29240600Y37843070D01*
X29240600Y37889680D01*
X29610320Y38259400D01*
X36898400Y38259400D01*
X36898400Y37604709D01*
X36725617Y37493526D01*
X36586427Y37289815D01*
X36537458Y37048000D01*
X36537458Y35524000D01*
X36579965Y35298096D01*
X36713474Y35090617D01*
X36898400Y34964262D01*
X36898400Y33032709D01*
X36725617Y32921526D01*
X36586427Y32717815D01*
X36537458Y32476000D01*
X36537458Y30952000D01*
X36579965Y30726096D01*
X36713474Y30518617D01*
X36898400Y30392262D01*
X36898400Y29145008D01*
X36855958Y28931637D01*
X36740764Y28759236D01*
X36568363Y28644042D01*
X36354992Y28601600D01*
X21732859Y28601600D01*
X22052519Y28920702D01*
X22339273Y29611284D01*
X22339926Y30359035D01*
X22054377Y31050117D01*
X21992040Y31112563D01*
X22328089Y31112563D01*
X22437528Y30966545D01*
X22875829Y30829963D01*
X23333035Y30871508D01*
X23562472Y30966545D01*
X23671911Y31112563D01*
X23000000Y31784474D01*
X22328089Y31112563D01*
X21992040Y31112563D01*
X21526098Y31579319D01*
X20835516Y31866073D01*
X20087765Y31866726D01*
X19396683Y31581177D01*
X18867481Y31052898D01*
X18580727Y30362316D01*
X18580074Y29614565D01*
X18865623Y28923483D01*
X19186945Y28601600D01*
X4667055Y28601600D01*
X5267317Y28849623D01*
X5796519Y29377902D01*
X6083273Y30068484D01*
X6083926Y30816235D01*
X5798377Y31507317D01*
X5270098Y32036519D01*
X5059009Y32124171D01*
X21829963Y32124171D01*
X21871508Y31666965D01*
X21966545Y31437528D01*
X22112563Y31328089D01*
X22784474Y32000000D01*
X23215526Y32000000D01*
X23887437Y31328089D01*
X24033455Y31437528D01*
X24159670Y31842563D01*
X24868089Y31842563D01*
X24977528Y31696545D01*
X25415829Y31559963D01*
X25873035Y31601508D01*
X26102472Y31696545D01*
X26168093Y31784100D01*
X27146000Y31784100D01*
X27146000Y30699476D01*
X27184669Y30606120D01*
X27256121Y30534669D01*
X27349476Y30496000D01*
X28034100Y30496000D01*
X28097600Y30559500D01*
X28097600Y31847600D01*
X28402400Y31847600D01*
X28402400Y30559500D01*
X28465900Y30496000D01*
X29150524Y30496000D01*
X29243879Y30534669D01*
X29315331Y30606120D01*
X29354000Y30699476D01*
X29354000Y31784100D01*
X29290500Y31847600D01*
X28402400Y31847600D01*
X28097600Y31847600D01*
X27209500Y31847600D01*
X27146000Y31784100D01*
X26168093Y31784100D01*
X26211911Y31842563D01*
X25540000Y32514474D01*
X24868089Y31842563D01*
X24159670Y31842563D01*
X24170037Y31875829D01*
X24128492Y32333035D01*
X24033455Y32562472D01*
X23887437Y32671911D01*
X23215526Y32000000D01*
X22784474Y32000000D01*
X22112563Y32671911D01*
X21966545Y32562472D01*
X21829963Y32124171D01*
X5059009Y32124171D01*
X4579516Y32323273D01*
X3831765Y32323926D01*
X3140683Y32038377D01*
X2901600Y31799711D01*
X2901600Y32887437D01*
X22328089Y32887437D01*
X23000000Y32215526D01*
X23638645Y32854171D01*
X24369963Y32854171D01*
X24411508Y32396965D01*
X24506545Y32167528D01*
X24652563Y32058089D01*
X25324474Y32730000D01*
X25755526Y32730000D01*
X26427437Y32058089D01*
X26573455Y32167528D01*
X26710037Y32605829D01*
X26668492Y33063035D01*
X26573455Y33292472D01*
X26562712Y33300524D01*
X27146000Y33300524D01*
X27146000Y32215900D01*
X27209500Y32152400D01*
X28097600Y32152400D01*
X28097600Y33440500D01*
X28402400Y33440500D01*
X28402400Y32152400D01*
X29290500Y32152400D01*
X29354000Y32215900D01*
X29354000Y33300524D01*
X29315331Y33393880D01*
X29243879Y33465331D01*
X29150524Y33504000D01*
X28465900Y33504000D01*
X28402400Y33440500D01*
X28097600Y33440500D01*
X28034100Y33504000D01*
X27349476Y33504000D01*
X27256121Y33465331D01*
X27184669Y33393880D01*
X27146000Y33300524D01*
X26562712Y33300524D01*
X26427437Y33401911D01*
X25755526Y32730000D01*
X25324474Y32730000D01*
X24652563Y33401911D01*
X24506545Y33292472D01*
X24369963Y32854171D01*
X23638645Y32854171D01*
X23671911Y32887437D01*
X23562472Y33033455D01*
X23124171Y33170037D01*
X22666965Y33128492D01*
X22437528Y33033455D01*
X22328089Y32887437D01*
X2901600Y32887437D01*
X2901600Y36200196D01*
X3137902Y35963481D01*
X3828484Y35676727D01*
X4576235Y35676074D01*
X5267317Y35961623D01*
X5796519Y36489902D01*
X6083273Y37180484D01*
X6083926Y37928235D01*
X5798377Y38619317D01*
X5270098Y39148519D01*
X5149971Y39198400D01*
X18986791Y39198400D01*
X18867481Y39079298D01*
X18867481Y39079298D01*
G37*
X18867481Y39079298D02*
X18580727Y38388716D01*
X18580074Y37640965D01*
X18865623Y36949883D01*
X19393902Y36420681D01*
X20084484Y36133927D01*
X20832235Y36133274D01*
X21523317Y36418823D01*
X21550683Y36446141D01*
X21490662Y36301595D01*
X21490138Y35701039D01*
X21719477Y35145997D01*
X22143764Y34720969D01*
X22698405Y34490662D01*
X23298961Y34490138D01*
X23854003Y34719477D01*
X24052293Y34917421D01*
X24259477Y34415997D01*
X24683764Y33990969D01*
X25104759Y33816157D01*
X24977528Y33763455D01*
X24868089Y33617437D01*
X25540000Y32945526D01*
X26211911Y33617437D01*
X26102472Y33763455D01*
X26036222Y33784100D01*
X30555000Y33784100D01*
X30555000Y32044476D01*
X30593669Y31951120D01*
X30665121Y31879669D01*
X30758476Y31841000D01*
X31609100Y31841000D01*
X31672600Y31904500D01*
X31672600Y33847600D01*
X31977400Y33847600D01*
X31977400Y31904500D01*
X32040900Y31841000D01*
X32891524Y31841000D01*
X32984879Y31879669D01*
X33056331Y31951120D01*
X33095000Y32044476D01*
X33095000Y33784100D01*
X33031500Y33847600D01*
X31977400Y33847600D01*
X31672600Y33847600D01*
X30618500Y33847600D01*
X30555000Y33784100D01*
X26036222Y33784100D01*
X25956829Y33808840D01*
X26394003Y33989477D01*
X26819031Y34413764D01*
X26847635Y34482650D01*
X26954474Y34316617D01*
X27158185Y34177427D01*
X27400000Y34128458D01*
X29100000Y34128458D01*
X29325904Y34170965D01*
X29533383Y34304474D01*
X29672573Y34508185D01*
X29721542Y34750000D01*
X29721542Y35955524D01*
X30555000Y35955524D01*
X30555000Y34215900D01*
X30618500Y34152400D01*
X31672600Y34152400D01*
X31672600Y36095500D01*
X31977400Y36095500D01*
X31977400Y34152400D01*
X33031500Y34152400D01*
X33095000Y34215900D01*
X33095000Y35955524D01*
X33056331Y36048880D01*
X32984879Y36120331D01*
X32891524Y36159000D01*
X32040900Y36159000D01*
X31977400Y36095500D01*
X31672600Y36095500D01*
X31609100Y36159000D01*
X30758476Y36159000D01*
X30665121Y36120331D01*
X30593669Y36048880D01*
X30555000Y35955524D01*
X29721542Y35955524D01*
X29721542Y37250000D01*
X29679035Y37475904D01*
X29545526Y37683383D01*
X29341815Y37822573D01*
X29240600Y37843070D01*
X29240600Y37889680D01*
X29610320Y38259400D01*
X36898400Y38259400D01*
X36898400Y37604709D01*
X36725617Y37493526D01*
X36586427Y37289815D01*
X36537458Y37048000D01*
X36537458Y35524000D01*
X36579965Y35298096D01*
X36713474Y35090617D01*
X36898400Y34964262D01*
X36898400Y33032709D01*
X36725617Y32921526D01*
X36586427Y32717815D01*
X36537458Y32476000D01*
X36537458Y30952000D01*
X36579965Y30726096D01*
X36713474Y30518617D01*
X36898400Y30392262D01*
X36898400Y29145008D01*
X36855958Y28931637D01*
X36740764Y28759236D01*
X36568363Y28644042D01*
X36354992Y28601600D01*
X21732859Y28601600D01*
X22052519Y28920702D01*
X22339273Y29611284D01*
X22339926Y30359035D01*
X22054377Y31050117D01*
X21992040Y31112563D01*
X22328089Y31112563D01*
X22437528Y30966545D01*
X22875829Y30829963D01*
X23333035Y30871508D01*
X23562472Y30966545D01*
X23671911Y31112563D01*
X23000000Y31784474D01*
X22328089Y31112563D01*
X21992040Y31112563D01*
X21526098Y31579319D01*
X20835516Y31866073D01*
X20087765Y31866726D01*
X19396683Y31581177D01*
X18867481Y31052898D01*
X18580727Y30362316D01*
X18580074Y29614565D01*
X18865623Y28923483D01*
X19186945Y28601600D01*
X4667055Y28601600D01*
X5267317Y28849623D01*
X5796519Y29377902D01*
X6083273Y30068484D01*
X6083926Y30816235D01*
X5798377Y31507317D01*
X5270098Y32036519D01*
X5059009Y32124171D01*
X21829963Y32124171D01*
X21871508Y31666965D01*
X21966545Y31437528D01*
X22112563Y31328089D01*
X22784474Y32000000D01*
X23215526Y32000000D01*
X23887437Y31328089D01*
X24033455Y31437528D01*
X24159670Y31842563D01*
X24868089Y31842563D01*
X24977528Y31696545D01*
X25415829Y31559963D01*
X25873035Y31601508D01*
X26102472Y31696545D01*
X26168093Y31784100D01*
X27146000Y31784100D01*
X27146000Y30699476D01*
X27184669Y30606120D01*
X27256121Y30534669D01*
X27349476Y30496000D01*
X28034100Y30496000D01*
X28097600Y30559500D01*
X28097600Y31847600D01*
X28402400Y31847600D01*
X28402400Y30559500D01*
X28465900Y30496000D01*
X29150524Y30496000D01*
X29243879Y30534669D01*
X29315331Y30606120D01*
X29354000Y30699476D01*
X29354000Y31784100D01*
X29290500Y31847600D01*
X28402400Y31847600D01*
X28097600Y31847600D01*
X27209500Y31847600D01*
X27146000Y31784100D01*
X26168093Y31784100D01*
X26211911Y31842563D01*
X25540000Y32514474D01*
X24868089Y31842563D01*
X24159670Y31842563D01*
X24170037Y31875829D01*
X24128492Y32333035D01*
X24033455Y32562472D01*
X23887437Y32671911D01*
X23215526Y32000000D01*
X22784474Y32000000D01*
X22112563Y32671911D01*
X21966545Y32562472D01*
X21829963Y32124171D01*
X5059009Y32124171D01*
X4579516Y32323273D01*
X3831765Y32323926D01*
X3140683Y32038377D01*
X2901600Y31799711D01*
X2901600Y32887437D01*
X22328089Y32887437D01*
X23000000Y32215526D01*
X23638645Y32854171D01*
X24369963Y32854171D01*
X24411508Y32396965D01*
X24506545Y32167528D01*
X24652563Y32058089D01*
X25324474Y32730000D01*
X25755526Y32730000D01*
X26427437Y32058089D01*
X26573455Y32167528D01*
X26710037Y32605829D01*
X26668492Y33063035D01*
X26573455Y33292472D01*
X26562712Y33300524D01*
X27146000Y33300524D01*
X27146000Y32215900D01*
X27209500Y32152400D01*
X28097600Y32152400D01*
X28097600Y33440500D01*
X28402400Y33440500D01*
X28402400Y32152400D01*
X29290500Y32152400D01*
X29354000Y32215900D01*
X29354000Y33300524D01*
X29315331Y33393880D01*
X29243879Y33465331D01*
X29150524Y33504000D01*
X28465900Y33504000D01*
X28402400Y33440500D01*
X28097600Y33440500D01*
X28034100Y33504000D01*
X27349476Y33504000D01*
X27256121Y33465331D01*
X27184669Y33393880D01*
X27146000Y33300524D01*
X26562712Y33300524D01*
X26427437Y33401911D01*
X25755526Y32730000D01*
X25324474Y32730000D01*
X24652563Y33401911D01*
X24506545Y33292472D01*
X24369963Y32854171D01*
X23638645Y32854171D01*
X23671911Y32887437D01*
X23562472Y33033455D01*
X23124171Y33170037D01*
X22666965Y33128492D01*
X22437528Y33033455D01*
X22328089Y32887437D01*
X2901600Y32887437D01*
X2901600Y36200196D01*
X3137902Y35963481D01*
X3828484Y35676727D01*
X4576235Y35676074D01*
X5267317Y35961623D01*
X5796519Y36489902D01*
X6083273Y37180484D01*
X6083926Y37928235D01*
X5798377Y38619317D01*
X5270098Y39148519D01*
X5149971Y39198400D01*
X18986791Y39198400D01*
X18867481Y39079298D01*
G36*
X23299400Y20312542D02*
X23274000Y20312542D01*
X23048096Y20270035D01*
X22840617Y20136526D01*
X22701427Y19932815D01*
X22689297Y19872914D01*
X22655880Y19906331D01*
X22562524Y19945000D01*
X21965900Y19945000D01*
X21902400Y19881500D01*
X21902400Y18827400D01*
X21922400Y18827400D01*
X21922400Y18522600D01*
X21902400Y18522600D01*
X21902400Y17468500D01*
X21965900Y17405000D01*
X22562524Y17405000D01*
X22655880Y17443669D01*
X22687101Y17474890D01*
X22694965Y17433096D01*
X22828474Y17225617D01*
X23032185Y17086427D01*
X23274000Y17037458D01*
X24798000Y17037458D01*
X25023904Y17079965D01*
X25148400Y17160076D01*
X25148400Y8635810D01*
X25118879Y8665331D01*
X25025524Y8704000D01*
X24465900Y8704000D01*
X24402400Y8640500D01*
X24402400Y8102400D01*
X24422400Y8102400D01*
X24422400Y7797600D01*
X24402400Y7797600D01*
X24402400Y7259500D01*
X24465900Y7196000D01*
X25025524Y7196000D01*
X25118879Y7234669D01*
X25148400Y7264190D01*
X25148400Y7136428D01*
X24975000Y7171542D01*
X23525000Y7171542D01*
X23299096Y7129035D01*
X23091617Y6995526D01*
X22952427Y6791815D01*
X22944454Y6752443D01*
X22841815Y6822573D01*
X22600000Y6871542D01*
X20900000Y6871542D01*
X20674096Y6829035D01*
X20466617Y6695526D01*
X20327427Y6491815D01*
X20278458Y6250000D01*
X20278458Y3750000D01*
X20320965Y3524096D01*
X20454474Y3316617D01*
X20658185Y3177427D01*
X20759400Y3156930D01*
X20759400Y2160320D01*
X20509680Y1910600D01*
X10601600Y1910600D01*
X10601600Y5482622D01*
X10600705Y5496079D01*
X10578424Y5662814D01*
X10571357Y5688785D01*
X10506077Y5843820D01*
X10492438Y5867024D01*
X10388740Y5999477D01*
X10379740Y6009521D01*
X7539621Y8784100D01*
X20646000Y8784100D01*
X20646000Y7699476D01*
X20684669Y7606120D01*
X20756121Y7534669D01*
X20849476Y7496000D01*
X21534100Y7496000D01*
X21597600Y7559500D01*
X21597600Y8847600D01*
X21902400Y8847600D01*
X21902400Y7559500D01*
X21965900Y7496000D01*
X22650524Y7496000D01*
X22743879Y7534669D01*
X22815331Y7606120D01*
X22854000Y7699476D01*
X22854000Y7734100D01*
X23271000Y7734100D01*
X23271000Y7399476D01*
X23309669Y7306120D01*
X23381121Y7234669D01*
X23474476Y7196000D01*
X24034100Y7196000D01*
X24097600Y7259500D01*
X24097600Y7797600D01*
X23334500Y7797600D01*
X23271000Y7734100D01*
X22854000Y7734100D01*
X22854000Y8500524D01*
X23271000Y8500524D01*
X23271000Y8165900D01*
X23334500Y8102400D01*
X24097600Y8102400D01*
X24097600Y8640500D01*
X24034100Y8704000D01*
X23474476Y8704000D01*
X23381121Y8665331D01*
X23309669Y8593880D01*
X23271000Y8500524D01*
X22854000Y8500524D01*
X22854000Y8784100D01*
X22790500Y8847600D01*
X21902400Y8847600D01*
X21597600Y8847600D01*
X20709500Y8847600D01*
X20646000Y8784100D01*
X7539621Y8784100D01*
X5987376Y10300524D01*
X20646000Y10300524D01*
X20646000Y9215900D01*
X20709500Y9152400D01*
X21597600Y9152400D01*
X21597600Y10440500D01*
X21902400Y10440500D01*
X21902400Y9152400D01*
X22790500Y9152400D01*
X22854000Y9215900D01*
X22854000Y10300524D01*
X22815331Y10393880D01*
X22743879Y10465331D01*
X22650524Y10504000D01*
X21965900Y10504000D01*
X21902400Y10440500D01*
X21597600Y10440500D01*
X21534100Y10504000D01*
X20849476Y10504000D01*
X20756121Y10465331D01*
X20684669Y10393880D01*
X20646000Y10300524D01*
X5987376Y10300524D01*
X4267091Y11981110D01*
X4175930Y12097549D01*
X4171067Y12109100D01*
X19591000Y12109100D01*
X19591000Y11258476D01*
X19629669Y11165121D01*
X19701120Y11093669D01*
X19794476Y11055000D01*
X21534100Y11055000D01*
X21597600Y11118500D01*
X21597600Y12172600D01*
X21902400Y12172600D01*
X21902400Y11118500D01*
X21965900Y11055000D01*
X23705524Y11055000D01*
X23798880Y11093669D01*
X23870331Y11165121D01*
X23909000Y11258476D01*
X23909000Y12109100D01*
X23845500Y12172600D01*
X21902400Y12172600D01*
X21597600Y12172600D01*
X19654500Y12172600D01*
X19591000Y12109100D01*
X4171067Y12109100D01*
X4121187Y12227559D01*
X4101600Y12374137D01*
X4101600Y12759400D01*
X4541379Y12759400D01*
X4820003Y12480290D01*
X5370602Y12251661D01*
X5966782Y12251141D01*
X6517780Y12478808D01*
X6798862Y12759400D01*
X7081379Y12759400D01*
X7360003Y12480290D01*
X7910602Y12251661D01*
X8506782Y12251141D01*
X9057780Y12478808D01*
X9450224Y12870569D01*
X10086095Y12870569D01*
X10194176Y12725695D01*
X10628470Y12590961D01*
X11081266Y12632680D01*
X11305824Y12725695D01*
X11413905Y12870569D01*
X12626095Y12870569D01*
X12734176Y12725695D01*
X13168470Y12590961D01*
X13621266Y12632680D01*
X13845824Y12725695D01*
X13953905Y12870569D01*
X15166095Y12870569D01*
X15274176Y12725695D01*
X15708470Y12590961D01*
X16161266Y12632680D01*
X16385824Y12725695D01*
X16493905Y12870569D01*
X15830000Y13534474D01*
X15166095Y12870569D01*
X13953905Y12870569D01*
X13290000Y13534474D01*
X12626095Y12870569D01*
X11413905Y12870569D01*
X10750000Y13534474D01*
X10086095Y12870569D01*
X9450224Y12870569D01*
X9479710Y12900003D01*
X9663855Y13343472D01*
X9725695Y13194176D01*
X9870569Y13086095D01*
X10534474Y13750000D01*
X10965526Y13750000D01*
X11629431Y13086095D01*
X11774305Y13194176D01*
X11909039Y13628470D01*
X11886645Y13871530D01*
X12130961Y13871530D01*
X12172680Y13418734D01*
X12265695Y13194176D01*
X12410569Y13086095D01*
X13074474Y13750000D01*
X13505526Y13750000D01*
X14169431Y13086095D01*
X14314305Y13194176D01*
X14449039Y13628470D01*
X14426645Y13871530D01*
X14670961Y13871530D01*
X14712680Y13418734D01*
X14805695Y13194176D01*
X14950569Y13086095D01*
X15614474Y13750000D01*
X16045526Y13750000D01*
X16709431Y13086095D01*
X16854305Y13194176D01*
X16915529Y13391524D01*
X19591000Y13391524D01*
X19591000Y12540900D01*
X19654500Y12477400D01*
X21597600Y12477400D01*
X21597600Y13531500D01*
X21902400Y13531500D01*
X21902400Y12477400D01*
X23845500Y12477400D01*
X23909000Y12540900D01*
X23909000Y13391524D01*
X23870331Y13484879D01*
X23798880Y13556331D01*
X23705524Y13595000D01*
X21965900Y13595000D01*
X21902400Y13531500D01*
X21597600Y13531500D01*
X21534100Y13595000D01*
X19794476Y13595000D01*
X19701120Y13556331D01*
X19629669Y13484879D01*
X19591000Y13391524D01*
X16915529Y13391524D01*
X16989039Y13628470D01*
X16947320Y14081266D01*
X16854305Y14305824D01*
X16709431Y14413905D01*
X16045526Y13750000D01*
X15614474Y13750000D01*
X14950569Y14413905D01*
X14805695Y14305824D01*
X14670961Y13871530D01*
X14426645Y13871530D01*
X14407320Y14081266D01*
X14314305Y14305824D01*
X14169431Y14413905D01*
X13505526Y13750000D01*
X13074474Y13750000D01*
X12410569Y14413905D01*
X12265695Y14305824D01*
X12130961Y13871530D01*
X11886645Y13871530D01*
X11867320Y14081266D01*
X11774305Y14305824D01*
X11629431Y14413905D01*
X10965526Y13750000D01*
X10534474Y13750000D01*
X9870569Y14413905D01*
X9725695Y14305824D01*
X9672574Y14134598D01*
X9481192Y14597780D01*
X9449597Y14629431D01*
X10086095Y14629431D01*
X10750000Y13965526D01*
X11413905Y14629431D01*
X12626095Y14629431D01*
X13290000Y13965526D01*
X13953905Y14629431D01*
X15166095Y14629431D01*
X15830000Y13965526D01*
X16493905Y14629431D01*
X16385824Y14774305D01*
X15951530Y14909039D01*
X15498734Y14867320D01*
X15274176Y14774305D01*
X15166095Y14629431D01*
X13953905Y14629431D01*
X13845824Y14774305D01*
X13411530Y14909039D01*
X12958734Y14867320D01*
X12734176Y14774305D01*
X12626095Y14629431D01*
X11413905Y14629431D01*
X11305824Y14774305D01*
X10871530Y14909039D01*
X10418734Y14867320D01*
X10194176Y14774305D01*
X10086095Y14629431D01*
X9449597Y14629431D01*
X9059997Y15019710D01*
X8509398Y15248339D01*
X7913218Y15248859D01*
X7362220Y15021192D01*
X7081138Y14740600D01*
X6798621Y14740600D01*
X6519997Y15019710D01*
X5969398Y15248339D01*
X5373218Y15248859D01*
X4822220Y15021192D01*
X4541138Y14740600D01*
X4101600Y14740600D01*
X4101600Y18860451D01*
X16290191Y18860451D01*
X16473953Y18415712D01*
X16813922Y18075149D01*
X17258340Y17890611D01*
X17350269Y17890531D01*
X17545914Y17759805D01*
X17925000Y17684400D01*
X18080458Y17684400D01*
X18080458Y17659000D01*
X18122965Y17433096D01*
X18256474Y17225617D01*
X18460185Y17086427D01*
X18702000Y17037458D01*
X20226000Y17037458D01*
X20451904Y17079965D01*
X20659383Y17213474D01*
X20798573Y17417185D01*
X20810703Y17477086D01*
X20844120Y17443669D01*
X20937476Y17405000D01*
X21534100Y17405000D01*
X21597600Y17468500D01*
X21597600Y18522600D01*
X21577600Y18522600D01*
X21577600Y18827400D01*
X21597600Y18827400D01*
X21597600Y19881500D01*
X21534100Y19945000D01*
X20937476Y19945000D01*
X20844120Y19906331D01*
X20812899Y19875110D01*
X20805035Y19916904D01*
X20671526Y20124383D01*
X20467815Y20263573D01*
X20226000Y20312542D01*
X18702000Y20312542D01*
X18476096Y20270035D01*
X18268617Y20136526D01*
X18230342Y20080509D01*
X18186078Y20124851D01*
X17741660Y20309389D01*
X17260451Y20309809D01*
X16815712Y20126047D01*
X16475149Y19786078D01*
X16290611Y19341660D01*
X16290191Y18860451D01*
X4101600Y18860451D01*
X4101600Y21854992D01*
X4144042Y22068363D01*
X4259236Y22240764D01*
X4431637Y22355958D01*
X4645008Y22398400D01*
X23299400Y22398400D01*
X23299400Y20312542D01*
X23299400Y20312542D01*
G37*
X23299400Y20312542D02*
X23274000Y20312542D01*
X23048096Y20270035D01*
X22840617Y20136526D01*
X22701427Y19932815D01*
X22689297Y19872914D01*
X22655880Y19906331D01*
X22562524Y19945000D01*
X21965900Y19945000D01*
X21902400Y19881500D01*
X21902400Y18827400D01*
X21922400Y18827400D01*
X21922400Y18522600D01*
X21902400Y18522600D01*
X21902400Y17468500D01*
X21965900Y17405000D01*
X22562524Y17405000D01*
X22655880Y17443669D01*
X22687101Y17474890D01*
X22694965Y17433096D01*
X22828474Y17225617D01*
X23032185Y17086427D01*
X23274000Y17037458D01*
X24798000Y17037458D01*
X25023904Y17079965D01*
X25148400Y17160076D01*
X25148400Y8635810D01*
X25118879Y8665331D01*
X25025524Y8704000D01*
X24465900Y8704000D01*
X24402400Y8640500D01*
X24402400Y8102400D01*
X24422400Y8102400D01*
X24422400Y7797600D01*
X24402400Y7797600D01*
X24402400Y7259500D01*
X24465900Y7196000D01*
X25025524Y7196000D01*
X25118879Y7234669D01*
X25148400Y7264190D01*
X25148400Y7136428D01*
X24975000Y7171542D01*
X23525000Y7171542D01*
X23299096Y7129035D01*
X23091617Y6995526D01*
X22952427Y6791815D01*
X22944454Y6752443D01*
X22841815Y6822573D01*
X22600000Y6871542D01*
X20900000Y6871542D01*
X20674096Y6829035D01*
X20466617Y6695526D01*
X20327427Y6491815D01*
X20278458Y6250000D01*
X20278458Y3750000D01*
X20320965Y3524096D01*
X20454474Y3316617D01*
X20658185Y3177427D01*
X20759400Y3156930D01*
X20759400Y2160320D01*
X20509680Y1910600D01*
X10601600Y1910600D01*
X10601600Y5482622D01*
X10600705Y5496079D01*
X10578424Y5662814D01*
X10571357Y5688785D01*
X10506077Y5843820D01*
X10492438Y5867024D01*
X10388740Y5999477D01*
X10379740Y6009521D01*
X7539621Y8784100D01*
X20646000Y8784100D01*
X20646000Y7699476D01*
X20684669Y7606120D01*
X20756121Y7534669D01*
X20849476Y7496000D01*
X21534100Y7496000D01*
X21597600Y7559500D01*
X21597600Y8847600D01*
X21902400Y8847600D01*
X21902400Y7559500D01*
X21965900Y7496000D01*
X22650524Y7496000D01*
X22743879Y7534669D01*
X22815331Y7606120D01*
X22854000Y7699476D01*
X22854000Y7734100D01*
X23271000Y7734100D01*
X23271000Y7399476D01*
X23309669Y7306120D01*
X23381121Y7234669D01*
X23474476Y7196000D01*
X24034100Y7196000D01*
X24097600Y7259500D01*
X24097600Y7797600D01*
X23334500Y7797600D01*
X23271000Y7734100D01*
X22854000Y7734100D01*
X22854000Y8500524D01*
X23271000Y8500524D01*
X23271000Y8165900D01*
X23334500Y8102400D01*
X24097600Y8102400D01*
X24097600Y8640500D01*
X24034100Y8704000D01*
X23474476Y8704000D01*
X23381121Y8665331D01*
X23309669Y8593880D01*
X23271000Y8500524D01*
X22854000Y8500524D01*
X22854000Y8784100D01*
X22790500Y8847600D01*
X21902400Y8847600D01*
X21597600Y8847600D01*
X20709500Y8847600D01*
X20646000Y8784100D01*
X7539621Y8784100D01*
X5987376Y10300524D01*
X20646000Y10300524D01*
X20646000Y9215900D01*
X20709500Y9152400D01*
X21597600Y9152400D01*
X21597600Y10440500D01*
X21902400Y10440500D01*
X21902400Y9152400D01*
X22790500Y9152400D01*
X22854000Y9215900D01*
X22854000Y10300524D01*
X22815331Y10393880D01*
X22743879Y10465331D01*
X22650524Y10504000D01*
X21965900Y10504000D01*
X21902400Y10440500D01*
X21597600Y10440500D01*
X21534100Y10504000D01*
X20849476Y10504000D01*
X20756121Y10465331D01*
X20684669Y10393880D01*
X20646000Y10300524D01*
X5987376Y10300524D01*
X4267091Y11981110D01*
X4175930Y12097549D01*
X4171067Y12109100D01*
X19591000Y12109100D01*
X19591000Y11258476D01*
X19629669Y11165121D01*
X19701120Y11093669D01*
X19794476Y11055000D01*
X21534100Y11055000D01*
X21597600Y11118500D01*
X21597600Y12172600D01*
X21902400Y12172600D01*
X21902400Y11118500D01*
X21965900Y11055000D01*
X23705524Y11055000D01*
X23798880Y11093669D01*
X23870331Y11165121D01*
X23909000Y11258476D01*
X23909000Y12109100D01*
X23845500Y12172600D01*
X21902400Y12172600D01*
X21597600Y12172600D01*
X19654500Y12172600D01*
X19591000Y12109100D01*
X4171067Y12109100D01*
X4121187Y12227559D01*
X4101600Y12374137D01*
X4101600Y12759400D01*
X4541379Y12759400D01*
X4820003Y12480290D01*
X5370602Y12251661D01*
X5966782Y12251141D01*
X6517780Y12478808D01*
X6798862Y12759400D01*
X7081379Y12759400D01*
X7360003Y12480290D01*
X7910602Y12251661D01*
X8506782Y12251141D01*
X9057780Y12478808D01*
X9450224Y12870569D01*
X10086095Y12870569D01*
X10194176Y12725695D01*
X10628470Y12590961D01*
X11081266Y12632680D01*
X11305824Y12725695D01*
X11413905Y12870569D01*
X12626095Y12870569D01*
X12734176Y12725695D01*
X13168470Y12590961D01*
X13621266Y12632680D01*
X13845824Y12725695D01*
X13953905Y12870569D01*
X15166095Y12870569D01*
X15274176Y12725695D01*
X15708470Y12590961D01*
X16161266Y12632680D01*
X16385824Y12725695D01*
X16493905Y12870569D01*
X15830000Y13534474D01*
X15166095Y12870569D01*
X13953905Y12870569D01*
X13290000Y13534474D01*
X12626095Y12870569D01*
X11413905Y12870569D01*
X10750000Y13534474D01*
X10086095Y12870569D01*
X9450224Y12870569D01*
X9479710Y12900003D01*
X9663855Y13343472D01*
X9725695Y13194176D01*
X9870569Y13086095D01*
X10534474Y13750000D01*
X10965526Y13750000D01*
X11629431Y13086095D01*
X11774305Y13194176D01*
X11909039Y13628470D01*
X11886645Y13871530D01*
X12130961Y13871530D01*
X12172680Y13418734D01*
X12265695Y13194176D01*
X12410569Y13086095D01*
X13074474Y13750000D01*
X13505526Y13750000D01*
X14169431Y13086095D01*
X14314305Y13194176D01*
X14449039Y13628470D01*
X14426645Y13871530D01*
X14670961Y13871530D01*
X14712680Y13418734D01*
X14805695Y13194176D01*
X14950569Y13086095D01*
X15614474Y13750000D01*
X16045526Y13750000D01*
X16709431Y13086095D01*
X16854305Y13194176D01*
X16915529Y13391524D01*
X19591000Y13391524D01*
X19591000Y12540900D01*
X19654500Y12477400D01*
X21597600Y12477400D01*
X21597600Y13531500D01*
X21902400Y13531500D01*
X21902400Y12477400D01*
X23845500Y12477400D01*
X23909000Y12540900D01*
X23909000Y13391524D01*
X23870331Y13484879D01*
X23798880Y13556331D01*
X23705524Y13595000D01*
X21965900Y13595000D01*
X21902400Y13531500D01*
X21597600Y13531500D01*
X21534100Y13595000D01*
X19794476Y13595000D01*
X19701120Y13556331D01*
X19629669Y13484879D01*
X19591000Y13391524D01*
X16915529Y13391524D01*
X16989039Y13628470D01*
X16947320Y14081266D01*
X16854305Y14305824D01*
X16709431Y14413905D01*
X16045526Y13750000D01*
X15614474Y13750000D01*
X14950569Y14413905D01*
X14805695Y14305824D01*
X14670961Y13871530D01*
X14426645Y13871530D01*
X14407320Y14081266D01*
X14314305Y14305824D01*
X14169431Y14413905D01*
X13505526Y13750000D01*
X13074474Y13750000D01*
X12410569Y14413905D01*
X12265695Y14305824D01*
X12130961Y13871530D01*
X11886645Y13871530D01*
X11867320Y14081266D01*
X11774305Y14305824D01*
X11629431Y14413905D01*
X10965526Y13750000D01*
X10534474Y13750000D01*
X9870569Y14413905D01*
X9725695Y14305824D01*
X9672574Y14134598D01*
X9481192Y14597780D01*
X9449597Y14629431D01*
X10086095Y14629431D01*
X10750000Y13965526D01*
X11413905Y14629431D01*
X12626095Y14629431D01*
X13290000Y13965526D01*
X13953905Y14629431D01*
X15166095Y14629431D01*
X15830000Y13965526D01*
X16493905Y14629431D01*
X16385824Y14774305D01*
X15951530Y14909039D01*
X15498734Y14867320D01*
X15274176Y14774305D01*
X15166095Y14629431D01*
X13953905Y14629431D01*
X13845824Y14774305D01*
X13411530Y14909039D01*
X12958734Y14867320D01*
X12734176Y14774305D01*
X12626095Y14629431D01*
X11413905Y14629431D01*
X11305824Y14774305D01*
X10871530Y14909039D01*
X10418734Y14867320D01*
X10194176Y14774305D01*
X10086095Y14629431D01*
X9449597Y14629431D01*
X9059997Y15019710D01*
X8509398Y15248339D01*
X7913218Y15248859D01*
X7362220Y15021192D01*
X7081138Y14740600D01*
X6798621Y14740600D01*
X6519997Y15019710D01*
X5969398Y15248339D01*
X5373218Y15248859D01*
X4822220Y15021192D01*
X4541138Y14740600D01*
X4101600Y14740600D01*
X4101600Y18860451D01*
X16290191Y18860451D01*
X16473953Y18415712D01*
X16813922Y18075149D01*
X17258340Y17890611D01*
X17350269Y17890531D01*
X17545914Y17759805D01*
X17925000Y17684400D01*
X18080458Y17684400D01*
X18080458Y17659000D01*
X18122965Y17433096D01*
X18256474Y17225617D01*
X18460185Y17086427D01*
X18702000Y17037458D01*
X20226000Y17037458D01*
X20451904Y17079965D01*
X20659383Y17213474D01*
X20798573Y17417185D01*
X20810703Y17477086D01*
X20844120Y17443669D01*
X20937476Y17405000D01*
X21534100Y17405000D01*
X21597600Y17468500D01*
X21597600Y18522600D01*
X21577600Y18522600D01*
X21577600Y18827400D01*
X21597600Y18827400D01*
X21597600Y19881500D01*
X21534100Y19945000D01*
X20937476Y19945000D01*
X20844120Y19906331D01*
X20812899Y19875110D01*
X20805035Y19916904D01*
X20671526Y20124383D01*
X20467815Y20263573D01*
X20226000Y20312542D01*
X18702000Y20312542D01*
X18476096Y20270035D01*
X18268617Y20136526D01*
X18230342Y20080509D01*
X18186078Y20124851D01*
X17741660Y20309389D01*
X17260451Y20309809D01*
X16815712Y20126047D01*
X16475149Y19786078D01*
X16290611Y19341660D01*
X16290191Y18860451D01*
X4101600Y18860451D01*
X4101600Y21854992D01*
X4144042Y22068363D01*
X4259236Y22240764D01*
X4431637Y22355958D01*
X4645008Y22398400D01*
X23299400Y22398400D01*
X23299400Y20312542D01*
G36*
X59898400Y71990600D02*
X46000000Y71990600D01*
X45620913Y71915195D01*
X45299540Y71700460D01*
X44899540Y71300460D01*
X44684805Y70979086D01*
X44609400Y70600000D01*
X44609400Y69681969D01*
X44591617Y69670526D01*
X44452427Y69466815D01*
X44403458Y69225000D01*
X44403458Y67775000D01*
X44445965Y67549096D01*
X44579474Y67341617D01*
X44609400Y67321169D01*
X44609400Y67260320D01*
X43513540Y66164460D01*
X43298805Y65843086D01*
X43223400Y65464000D01*
X43223400Y65434342D01*
X42690000Y65434342D01*
X42464096Y65391835D01*
X42256617Y65258326D01*
X42117427Y65054615D01*
X42068458Y64812800D01*
X42068458Y63187200D01*
X42110965Y62961296D01*
X42244474Y62753817D01*
X42448185Y62614627D01*
X42690000Y62565658D01*
X45738000Y62565658D01*
X45963904Y62608165D01*
X46171383Y62741674D01*
X46310573Y62945385D01*
X46359542Y63187200D01*
X46359542Y63847600D01*
X47008000Y63847600D01*
X47008000Y63200176D01*
X47046669Y63106820D01*
X47118121Y63035369D01*
X47211476Y62996700D01*
X48570100Y62996700D01*
X48633600Y63060200D01*
X48633600Y63911100D01*
X48938400Y63911100D01*
X48938400Y63060200D01*
X49001900Y62996700D01*
X50360524Y62996700D01*
X50453879Y63035369D01*
X50525331Y63106820D01*
X50564000Y63200176D01*
X50564000Y63847600D01*
X50500500Y63911100D01*
X48938400Y63911100D01*
X48633600Y63911100D01*
X47071500Y63911100D01*
X47008000Y63847600D01*
X46359542Y63847600D01*
X46359542Y64812800D01*
X46338087Y64926824D01*
X47008000Y64926824D01*
X47008000Y64279400D01*
X47071500Y64215900D01*
X48633600Y64215900D01*
X48633600Y65066800D01*
X48938400Y65066800D01*
X48938400Y64215900D01*
X50500500Y64215900D01*
X50564000Y64279400D01*
X50564000Y64926824D01*
X50525331Y65020180D01*
X50453879Y65091631D01*
X50360524Y65130300D01*
X49001900Y65130300D01*
X48938400Y65066800D01*
X48633600Y65066800D01*
X48570100Y65130300D01*
X47211476Y65130300D01*
X47118121Y65091631D01*
X47046669Y65020180D01*
X47008000Y64926824D01*
X46338087Y64926824D01*
X46317035Y65038704D01*
X46183526Y65246183D01*
X45979815Y65385373D01*
X45738000Y65434342D01*
X45585262Y65434342D01*
X46300460Y66149540D01*
X46515195Y66470914D01*
X46590600Y66850000D01*
X46590600Y67318031D01*
X46608383Y67329474D01*
X46747018Y67532373D01*
X46774476Y67521000D01*
X47184100Y67521000D01*
X47247600Y67584500D01*
X47247600Y68347600D01*
X47552400Y68347600D01*
X47552400Y67584500D01*
X47615900Y67521000D01*
X48025524Y67521000D01*
X48118880Y67559669D01*
X48190331Y67631121D01*
X48229000Y67724476D01*
X48229000Y68284100D01*
X48165500Y68347600D01*
X47552400Y68347600D01*
X47247600Y68347600D01*
X47227600Y68347600D01*
X47227600Y68652400D01*
X47247600Y68652400D01*
X47247600Y69415500D01*
X47552400Y69415500D01*
X47552400Y68652400D01*
X48165500Y68652400D01*
X48229000Y68715900D01*
X48229000Y69275524D01*
X48190331Y69368879D01*
X48118880Y69440331D01*
X48025524Y69479000D01*
X47615900Y69479000D01*
X47552400Y69415500D01*
X47247600Y69415500D01*
X47184100Y69479000D01*
X46774476Y69479000D01*
X46744062Y69466402D01*
X46620526Y69658383D01*
X46590600Y69678831D01*
X46590600Y70009400D01*
X59898400Y70009400D01*
X59898400Y55400012D01*
X59819470Y55281885D01*
X59763400Y55000000D01*
X59763400Y52305110D01*
X59670733Y52212443D01*
X59568363Y52144042D01*
X59354992Y52101600D01*
X58592492Y52101600D01*
X58643101Y52152121D01*
X58803917Y52539407D01*
X58804283Y52958754D01*
X58644144Y53346320D01*
X58347879Y53643101D01*
X57960593Y53803917D01*
X57737598Y53804112D01*
X57411600Y54130110D01*
X57411600Y54330458D01*
X57691000Y54330458D01*
X57916904Y54372965D01*
X58124383Y54506474D01*
X58263573Y54710185D01*
X58312542Y54952000D01*
X58312542Y56476000D01*
X58270035Y56701904D01*
X58136526Y56909383D01*
X57932815Y57048573D01*
X57872914Y57060703D01*
X57906331Y57094120D01*
X57945000Y57187476D01*
X57945000Y57784100D01*
X57881500Y57847600D01*
X56827400Y57847600D01*
X56827400Y57827600D01*
X56522600Y57827600D01*
X56522600Y57847600D01*
X55468500Y57847600D01*
X55405000Y57784100D01*
X55405000Y57187476D01*
X55443669Y57094120D01*
X55474890Y57062899D01*
X55433096Y57055035D01*
X55225617Y56921526D01*
X55086427Y56717815D01*
X55037458Y56476000D01*
X55037458Y54952000D01*
X55079965Y54726096D01*
X55213474Y54518617D01*
X55417185Y54379427D01*
X55659000Y54330458D01*
X55938400Y54330458D01*
X55938400Y53825000D01*
X55994470Y53543115D01*
X56154145Y53304145D01*
X56695910Y52762380D01*
X56695717Y52541246D01*
X56855856Y52153680D01*
X56907846Y52101600D01*
X45540110Y52101600D01*
X45236600Y52405110D01*
X45236600Y55930641D01*
X45450904Y55970965D01*
X45658383Y56104474D01*
X45742233Y56227193D01*
X45829474Y56091617D01*
X46033185Y55952427D01*
X46275000Y55903458D01*
X47725000Y55903458D01*
X47950904Y55945965D01*
X48158383Y56079474D01*
X48297573Y56283185D01*
X48346542Y56525000D01*
X48346542Y57675000D01*
X48326014Y57784100D01*
X49055000Y57784100D01*
X49055000Y56044476D01*
X49093669Y55951120D01*
X49165121Y55879669D01*
X49258476Y55841000D01*
X50109100Y55841000D01*
X50172600Y55904500D01*
X50172600Y57847600D01*
X50477400Y57847600D01*
X50477400Y55904500D01*
X50540900Y55841000D01*
X51391524Y55841000D01*
X51484879Y55879669D01*
X51556331Y55951120D01*
X51595000Y56044476D01*
X51595000Y57784100D01*
X51531500Y57847600D01*
X50477400Y57847600D01*
X50172600Y57847600D01*
X49118500Y57847600D01*
X49055000Y57784100D01*
X48326014Y57784100D01*
X48304035Y57900904D01*
X48170526Y58108383D01*
X47967627Y58247018D01*
X47979000Y58274476D01*
X47979000Y58684100D01*
X47915500Y58747600D01*
X47152400Y58747600D01*
X47152400Y58727600D01*
X46847600Y58727600D01*
X46847600Y58747600D01*
X46084500Y58747600D01*
X46021000Y58684100D01*
X46021000Y58274476D01*
X46033598Y58244062D01*
X45841617Y58120526D01*
X45708058Y57925056D01*
X45670526Y57983383D01*
X45648740Y57998269D01*
X45658383Y58004474D01*
X45797573Y58208185D01*
X45846542Y58450000D01*
X45846542Y59450000D01*
X45832332Y59525524D01*
X46021000Y59525524D01*
X46021000Y59115900D01*
X46084500Y59052400D01*
X46847600Y59052400D01*
X46847600Y59665500D01*
X47152400Y59665500D01*
X47152400Y59052400D01*
X47915500Y59052400D01*
X47979000Y59115900D01*
X47979000Y59525524D01*
X47940331Y59618880D01*
X47868879Y59690331D01*
X47775524Y59729000D01*
X47215900Y59729000D01*
X47152400Y59665500D01*
X46847600Y59665500D01*
X46784100Y59729000D01*
X46224476Y59729000D01*
X46131121Y59690331D01*
X46059669Y59618880D01*
X46021000Y59525524D01*
X45832332Y59525524D01*
X45804035Y59675904D01*
X45670526Y59883383D01*
X45564945Y59955524D01*
X49055000Y59955524D01*
X49055000Y58215900D01*
X49118500Y58152400D01*
X50172600Y58152400D01*
X50172600Y60095500D01*
X50477400Y60095500D01*
X50477400Y58152400D01*
X51531500Y58152400D01*
X51595000Y58215900D01*
X51595000Y59955524D01*
X51556331Y60048880D01*
X51484879Y60120331D01*
X51391524Y60159000D01*
X50540900Y60159000D01*
X50477400Y60095500D01*
X50172600Y60095500D01*
X50109100Y60159000D01*
X49258476Y60159000D01*
X49165121Y60120331D01*
X49093669Y60048880D01*
X49055000Y59955524D01*
X45564945Y59955524D01*
X45466815Y60022573D01*
X45225000Y60071542D01*
X43775000Y60071542D01*
X43549096Y60029035D01*
X43411664Y59940600D01*
X42950000Y59940600D01*
X42570914Y59865195D01*
X42249540Y59650460D01*
X41389680Y58790600D01*
X40363077Y58790600D01*
X40210593Y58853917D01*
X39791246Y58854283D01*
X39637121Y58790600D01*
X33690600Y58790600D01*
X33690600Y61048000D01*
X55037458Y61048000D01*
X55037458Y59524000D01*
X55079965Y59298096D01*
X55213474Y59090617D01*
X55417185Y58951427D01*
X55477086Y58939297D01*
X55443669Y58905880D01*
X55405000Y58812524D01*
X55405000Y58215900D01*
X55468500Y58152400D01*
X56522600Y58152400D01*
X56522600Y58172400D01*
X56827400Y58172400D01*
X56827400Y58152400D01*
X57881500Y58152400D01*
X57945000Y58215900D01*
X57945000Y58812524D01*
X57906331Y58905880D01*
X57875110Y58937101D01*
X57916904Y58944965D01*
X58124383Y59078474D01*
X58160449Y59131259D01*
X58258340Y59090611D01*
X58739549Y59090191D01*
X59184288Y59273953D01*
X59524851Y59613922D01*
X59709389Y60058340D01*
X59709809Y60539549D01*
X59526047Y60984288D01*
X59186078Y61324851D01*
X58741660Y61509389D01*
X58260451Y61509809D01*
X58148105Y61463389D01*
X58136526Y61481383D01*
X57932815Y61620573D01*
X57691000Y61669542D01*
X55659000Y61669542D01*
X55433096Y61627035D01*
X55225617Y61493526D01*
X55086427Y61289815D01*
X55037458Y61048000D01*
X33690600Y61048000D01*
X33690600Y65000000D01*
X33615195Y65379086D01*
X33400460Y65700460D01*
X32590460Y66510460D01*
X32269086Y66725195D01*
X32101600Y66758510D01*
X32101600Y75385760D01*
X37897863Y75385760D01*
X38369058Y74245380D01*
X39240791Y73372125D01*
X40380347Y72898940D01*
X41614240Y72897863D01*
X42754620Y73369058D01*
X43627875Y74240791D01*
X44101060Y75380347D01*
X44101064Y75385760D01*
X51897863Y75385760D01*
X52369058Y74245380D01*
X53240791Y73372125D01*
X54380347Y72898940D01*
X55614240Y72897863D01*
X56754620Y73369058D01*
X57627875Y74240791D01*
X58101060Y75380347D01*
X58102137Y76614240D01*
X57630942Y77754620D01*
X56759209Y78627875D01*
X55619653Y79101060D01*
X54385760Y79102137D01*
X53245380Y78630942D01*
X52372125Y77759209D01*
X51898940Y76619653D01*
X51897863Y75385760D01*
X44101064Y75385760D01*
X44102137Y76614240D01*
X43630942Y77754620D01*
X42759209Y78627875D01*
X41619653Y79101060D01*
X40385760Y79102137D01*
X39245380Y78630942D01*
X38372125Y77759209D01*
X37898940Y76619653D01*
X37897863Y75385760D01*
X32101600Y75385760D01*
X32101600Y79326900D01*
X59898400Y79326900D01*
X59898400Y71990600D01*
X59898400Y71990600D01*
G37*
X59898400Y71990600D02*
X46000000Y71990600D01*
X45620913Y71915195D01*
X45299540Y71700460D01*
X44899540Y71300460D01*
X44684805Y70979086D01*
X44609400Y70600000D01*
X44609400Y69681969D01*
X44591617Y69670526D01*
X44452427Y69466815D01*
X44403458Y69225000D01*
X44403458Y67775000D01*
X44445965Y67549096D01*
X44579474Y67341617D01*
X44609400Y67321169D01*
X44609400Y67260320D01*
X43513540Y66164460D01*
X43298805Y65843086D01*
X43223400Y65464000D01*
X43223400Y65434342D01*
X42690000Y65434342D01*
X42464096Y65391835D01*
X42256617Y65258326D01*
X42117427Y65054615D01*
X42068458Y64812800D01*
X42068458Y63187200D01*
X42110965Y62961296D01*
X42244474Y62753817D01*
X42448185Y62614627D01*
X42690000Y62565658D01*
X45738000Y62565658D01*
X45963904Y62608165D01*
X46171383Y62741674D01*
X46310573Y62945385D01*
X46359542Y63187200D01*
X46359542Y63847600D01*
X47008000Y63847600D01*
X47008000Y63200176D01*
X47046669Y63106820D01*
X47118121Y63035369D01*
X47211476Y62996700D01*
X48570100Y62996700D01*
X48633600Y63060200D01*
X48633600Y63911100D01*
X48938400Y63911100D01*
X48938400Y63060200D01*
X49001900Y62996700D01*
X50360524Y62996700D01*
X50453879Y63035369D01*
X50525331Y63106820D01*
X50564000Y63200176D01*
X50564000Y63847600D01*
X50500500Y63911100D01*
X48938400Y63911100D01*
X48633600Y63911100D01*
X47071500Y63911100D01*
X47008000Y63847600D01*
X46359542Y63847600D01*
X46359542Y64812800D01*
X46338087Y64926824D01*
X47008000Y64926824D01*
X47008000Y64279400D01*
X47071500Y64215900D01*
X48633600Y64215900D01*
X48633600Y65066800D01*
X48938400Y65066800D01*
X48938400Y64215900D01*
X50500500Y64215900D01*
X50564000Y64279400D01*
X50564000Y64926824D01*
X50525331Y65020180D01*
X50453879Y65091631D01*
X50360524Y65130300D01*
X49001900Y65130300D01*
X48938400Y65066800D01*
X48633600Y65066800D01*
X48570100Y65130300D01*
X47211476Y65130300D01*
X47118121Y65091631D01*
X47046669Y65020180D01*
X47008000Y64926824D01*
X46338087Y64926824D01*
X46317035Y65038704D01*
X46183526Y65246183D01*
X45979815Y65385373D01*
X45738000Y65434342D01*
X45585262Y65434342D01*
X46300460Y66149540D01*
X46515195Y66470914D01*
X46590600Y66850000D01*
X46590600Y67318031D01*
X46608383Y67329474D01*
X46747018Y67532373D01*
X46774476Y67521000D01*
X47184100Y67521000D01*
X47247600Y67584500D01*
X47247600Y68347600D01*
X47552400Y68347600D01*
X47552400Y67584500D01*
X47615900Y67521000D01*
X48025524Y67521000D01*
X48118880Y67559669D01*
X48190331Y67631121D01*
X48229000Y67724476D01*
X48229000Y68284100D01*
X48165500Y68347600D01*
X47552400Y68347600D01*
X47247600Y68347600D01*
X47227600Y68347600D01*
X47227600Y68652400D01*
X47247600Y68652400D01*
X47247600Y69415500D01*
X47552400Y69415500D01*
X47552400Y68652400D01*
X48165500Y68652400D01*
X48229000Y68715900D01*
X48229000Y69275524D01*
X48190331Y69368879D01*
X48118880Y69440331D01*
X48025524Y69479000D01*
X47615900Y69479000D01*
X47552400Y69415500D01*
X47247600Y69415500D01*
X47184100Y69479000D01*
X46774476Y69479000D01*
X46744062Y69466402D01*
X46620526Y69658383D01*
X46590600Y69678831D01*
X46590600Y70009400D01*
X59898400Y70009400D01*
X59898400Y55400012D01*
X59819470Y55281885D01*
X59763400Y55000000D01*
X59763400Y52305110D01*
X59670733Y52212443D01*
X59568363Y52144042D01*
X59354992Y52101600D01*
X58592492Y52101600D01*
X58643101Y52152121D01*
X58803917Y52539407D01*
X58804283Y52958754D01*
X58644144Y53346320D01*
X58347879Y53643101D01*
X57960593Y53803917D01*
X57737598Y53804112D01*
X57411600Y54130110D01*
X57411600Y54330458D01*
X57691000Y54330458D01*
X57916904Y54372965D01*
X58124383Y54506474D01*
X58263573Y54710185D01*
X58312542Y54952000D01*
X58312542Y56476000D01*
X58270035Y56701904D01*
X58136526Y56909383D01*
X57932815Y57048573D01*
X57872914Y57060703D01*
X57906331Y57094120D01*
X57945000Y57187476D01*
X57945000Y57784100D01*
X57881500Y57847600D01*
X56827400Y57847600D01*
X56827400Y57827600D01*
X56522600Y57827600D01*
X56522600Y57847600D01*
X55468500Y57847600D01*
X55405000Y57784100D01*
X55405000Y57187476D01*
X55443669Y57094120D01*
X55474890Y57062899D01*
X55433096Y57055035D01*
X55225617Y56921526D01*
X55086427Y56717815D01*
X55037458Y56476000D01*
X55037458Y54952000D01*
X55079965Y54726096D01*
X55213474Y54518617D01*
X55417185Y54379427D01*
X55659000Y54330458D01*
X55938400Y54330458D01*
X55938400Y53825000D01*
X55994470Y53543115D01*
X56154145Y53304145D01*
X56695910Y52762380D01*
X56695717Y52541246D01*
X56855856Y52153680D01*
X56907846Y52101600D01*
X45540110Y52101600D01*
X45236600Y52405110D01*
X45236600Y55930641D01*
X45450904Y55970965D01*
X45658383Y56104474D01*
X45742233Y56227193D01*
X45829474Y56091617D01*
X46033185Y55952427D01*
X46275000Y55903458D01*
X47725000Y55903458D01*
X47950904Y55945965D01*
X48158383Y56079474D01*
X48297573Y56283185D01*
X48346542Y56525000D01*
X48346542Y57675000D01*
X48326014Y57784100D01*
X49055000Y57784100D01*
X49055000Y56044476D01*
X49093669Y55951120D01*
X49165121Y55879669D01*
X49258476Y55841000D01*
X50109100Y55841000D01*
X50172600Y55904500D01*
X50172600Y57847600D01*
X50477400Y57847600D01*
X50477400Y55904500D01*
X50540900Y55841000D01*
X51391524Y55841000D01*
X51484879Y55879669D01*
X51556331Y55951120D01*
X51595000Y56044476D01*
X51595000Y57784100D01*
X51531500Y57847600D01*
X50477400Y57847600D01*
X50172600Y57847600D01*
X49118500Y57847600D01*
X49055000Y57784100D01*
X48326014Y57784100D01*
X48304035Y57900904D01*
X48170526Y58108383D01*
X47967627Y58247018D01*
X47979000Y58274476D01*
X47979000Y58684100D01*
X47915500Y58747600D01*
X47152400Y58747600D01*
X47152400Y58727600D01*
X46847600Y58727600D01*
X46847600Y58747600D01*
X46084500Y58747600D01*
X46021000Y58684100D01*
X46021000Y58274476D01*
X46033598Y58244062D01*
X45841617Y58120526D01*
X45708058Y57925056D01*
X45670526Y57983383D01*
X45648740Y57998269D01*
X45658383Y58004474D01*
X45797573Y58208185D01*
X45846542Y58450000D01*
X45846542Y59450000D01*
X45832332Y59525524D01*
X46021000Y59525524D01*
X46021000Y59115900D01*
X46084500Y59052400D01*
X46847600Y59052400D01*
X46847600Y59665500D01*
X47152400Y59665500D01*
X47152400Y59052400D01*
X47915500Y59052400D01*
X47979000Y59115900D01*
X47979000Y59525524D01*
X47940331Y59618880D01*
X47868879Y59690331D01*
X47775524Y59729000D01*
X47215900Y59729000D01*
X47152400Y59665500D01*
X46847600Y59665500D01*
X46784100Y59729000D01*
X46224476Y59729000D01*
X46131121Y59690331D01*
X46059669Y59618880D01*
X46021000Y59525524D01*
X45832332Y59525524D01*
X45804035Y59675904D01*
X45670526Y59883383D01*
X45564945Y59955524D01*
X49055000Y59955524D01*
X49055000Y58215900D01*
X49118500Y58152400D01*
X50172600Y58152400D01*
X50172600Y60095500D01*
X50477400Y60095500D01*
X50477400Y58152400D01*
X51531500Y58152400D01*
X51595000Y58215900D01*
X51595000Y59955524D01*
X51556331Y60048880D01*
X51484879Y60120331D01*
X51391524Y60159000D01*
X50540900Y60159000D01*
X50477400Y60095500D01*
X50172600Y60095500D01*
X50109100Y60159000D01*
X49258476Y60159000D01*
X49165121Y60120331D01*
X49093669Y60048880D01*
X49055000Y59955524D01*
X45564945Y59955524D01*
X45466815Y60022573D01*
X45225000Y60071542D01*
X43775000Y60071542D01*
X43549096Y60029035D01*
X43411664Y59940600D01*
X42950000Y59940600D01*
X42570914Y59865195D01*
X42249540Y59650460D01*
X41389680Y58790600D01*
X40363077Y58790600D01*
X40210593Y58853917D01*
X39791246Y58854283D01*
X39637121Y58790600D01*
X33690600Y58790600D01*
X33690600Y61048000D01*
X55037458Y61048000D01*
X55037458Y59524000D01*
X55079965Y59298096D01*
X55213474Y59090617D01*
X55417185Y58951427D01*
X55477086Y58939297D01*
X55443669Y58905880D01*
X55405000Y58812524D01*
X55405000Y58215900D01*
X55468500Y58152400D01*
X56522600Y58152400D01*
X56522600Y58172400D01*
X56827400Y58172400D01*
X56827400Y58152400D01*
X57881500Y58152400D01*
X57945000Y58215900D01*
X57945000Y58812524D01*
X57906331Y58905880D01*
X57875110Y58937101D01*
X57916904Y58944965D01*
X58124383Y59078474D01*
X58160449Y59131259D01*
X58258340Y59090611D01*
X58739549Y59090191D01*
X59184288Y59273953D01*
X59524851Y59613922D01*
X59709389Y60058340D01*
X59709809Y60539549D01*
X59526047Y60984288D01*
X59186078Y61324851D01*
X58741660Y61509389D01*
X58260451Y61509809D01*
X58148105Y61463389D01*
X58136526Y61481383D01*
X57932815Y61620573D01*
X57691000Y61669542D01*
X55659000Y61669542D01*
X55433096Y61627035D01*
X55225617Y61493526D01*
X55086427Y61289815D01*
X55037458Y61048000D01*
X33690600Y61048000D01*
X33690600Y65000000D01*
X33615195Y65379086D01*
X33400460Y65700460D01*
X32590460Y66510460D01*
X32269086Y66725195D01*
X32101600Y66758510D01*
X32101600Y75385760D01*
X37897863Y75385760D01*
X38369058Y74245380D01*
X39240791Y73372125D01*
X40380347Y72898940D01*
X41614240Y72897863D01*
X42754620Y73369058D01*
X43627875Y74240791D01*
X44101060Y75380347D01*
X44101064Y75385760D01*
X51897863Y75385760D01*
X52369058Y74245380D01*
X53240791Y73372125D01*
X54380347Y72898940D01*
X55614240Y72897863D01*
X56754620Y73369058D01*
X57627875Y74240791D01*
X58101060Y75380347D01*
X58102137Y76614240D01*
X57630942Y77754620D01*
X56759209Y78627875D01*
X55619653Y79101060D01*
X54385760Y79102137D01*
X53245380Y78630942D01*
X52372125Y77759209D01*
X51898940Y76619653D01*
X51897863Y75385760D01*
X44101064Y75385760D01*
X44102137Y76614240D01*
X43630942Y77754620D01*
X42759209Y78627875D01*
X41619653Y79101060D01*
X40385760Y79102137D01*
X39245380Y78630942D01*
X38372125Y77759209D01*
X37898940Y76619653D01*
X37897863Y75385760D01*
X32101600Y75385760D01*
X32101600Y79326900D01*
X59898400Y79326900D01*
X59898400Y71990600D01*
G36*
X49268363Y20355958D02*
X49440764Y20240764D01*
X49555958Y20068363D01*
X49598400Y19854992D01*
X49598400Y5945008D01*
X49555958Y5731637D01*
X49440764Y5559236D01*
X49268363Y5444042D01*
X49054992Y5401600D01*
X42404662Y5401600D01*
X42469181Y5648058D01*
X42447406Y5806400D01*
X42600200Y5775458D01*
X43209800Y5775458D01*
X43435704Y5817965D01*
X43643183Y5951474D01*
X43782373Y6155185D01*
X43831342Y6397000D01*
X43831342Y7324100D01*
X44346000Y7324100D01*
X44346000Y6289476D01*
X44384669Y6196120D01*
X44456121Y6124669D01*
X44549476Y6086000D01*
X46534100Y6086000D01*
X46597600Y6149500D01*
X46597600Y7387600D01*
X46902400Y7387600D01*
X46902400Y6149500D01*
X46965900Y6086000D01*
X48950524Y6086000D01*
X49043879Y6124669D01*
X49115331Y6196120D01*
X49154000Y6289476D01*
X49154000Y7324100D01*
X49090500Y7387600D01*
X46902400Y7387600D01*
X46597600Y7387600D01*
X44409500Y7387600D01*
X44346000Y7324100D01*
X43831342Y7324100D01*
X43831342Y8289632D01*
X44220855Y8679145D01*
X44295276Y8790524D01*
X44346000Y8790524D01*
X44346000Y7755900D01*
X44409500Y7692400D01*
X46597600Y7692400D01*
X46597600Y7712400D01*
X46902400Y7712400D01*
X46902400Y7692400D01*
X49090500Y7692400D01*
X49154000Y7755900D01*
X49154000Y8790524D01*
X49115331Y8883880D01*
X49043879Y8955331D01*
X48950524Y8994000D01*
X48897663Y8994000D01*
X48952770Y9081703D01*
X48500000Y9534474D01*
X48047230Y9081703D01*
X48102337Y8994000D01*
X47497663Y8994000D01*
X47552770Y9081703D01*
X47100000Y9534474D01*
X46647230Y9081703D01*
X46702337Y8994000D01*
X46597598Y8994000D01*
X46597598Y8930502D01*
X46534100Y8994000D01*
X46097663Y8994000D01*
X46152770Y9081703D01*
X45700000Y9534474D01*
X45247230Y9081703D01*
X45302337Y8994000D01*
X44549476Y8994000D01*
X44456121Y8955331D01*
X44384669Y8883880D01*
X44346000Y8790524D01*
X44295276Y8790524D01*
X44380530Y8918115D01*
X44384521Y8938178D01*
X44425904Y8945965D01*
X44633383Y9079474D01*
X44772573Y9283185D01*
X44821542Y9525000D01*
X44821542Y9801942D01*
X44830819Y9801942D01*
X44877104Y9465367D01*
X44916859Y9369391D01*
X45031703Y9297230D01*
X45484474Y9750000D01*
X45915526Y9750000D01*
X46368297Y9297230D01*
X46400000Y9317150D01*
X46431703Y9297230D01*
X46884474Y9750000D01*
X47315526Y9750000D01*
X47768297Y9297230D01*
X47800000Y9317150D01*
X47831703Y9297230D01*
X48284474Y9750000D01*
X48715526Y9750000D01*
X49168297Y9297230D01*
X49283141Y9369391D01*
X49369181Y9698058D01*
X49322896Y10034633D01*
X49283141Y10130609D01*
X49168297Y10202770D01*
X48715526Y9750000D01*
X48284474Y9750000D01*
X47831703Y10202770D01*
X47800000Y10182850D01*
X47768297Y10202770D01*
X47315526Y9750000D01*
X46884474Y9750000D01*
X46431703Y10202770D01*
X46400000Y10182850D01*
X46368297Y10202770D01*
X45915526Y9750000D01*
X45484474Y9750000D01*
X45031703Y10202770D01*
X44916859Y10130609D01*
X44830819Y9801942D01*
X44821542Y9801942D01*
X44821542Y10418297D01*
X45247230Y10418297D01*
X45700000Y9965526D01*
X46152770Y10418297D01*
X46647230Y10418297D01*
X47100000Y9965526D01*
X47552770Y10418297D01*
X48047230Y10418297D01*
X48500000Y9965526D01*
X48952770Y10418297D01*
X48880609Y10533141D01*
X48551942Y10619181D01*
X48215367Y10572896D01*
X48119391Y10533141D01*
X48047230Y10418297D01*
X47552770Y10418297D01*
X47480609Y10533141D01*
X47151942Y10619181D01*
X46815367Y10572896D01*
X46719391Y10533141D01*
X46647230Y10418297D01*
X46152770Y10418297D01*
X46080609Y10533141D01*
X45751942Y10619181D01*
X45415367Y10572896D01*
X45319391Y10533141D01*
X45247230Y10418297D01*
X44821542Y10418297D01*
X44821542Y10975000D01*
X44779035Y11200904D01*
X44645526Y11408383D01*
X44441815Y11547573D01*
X44200000Y11596542D01*
X43200000Y11596542D01*
X42974096Y11554035D01*
X42766617Y11420526D01*
X42627427Y11216815D01*
X42578458Y10975000D01*
X42578458Y9525000D01*
X42620965Y9299096D01*
X42674379Y9216089D01*
X42487655Y9029365D01*
X42374296Y9008035D01*
X42166817Y8874526D01*
X42027627Y8670815D01*
X42027017Y8667801D01*
X41990324Y8683000D01*
X41850900Y8683000D01*
X41787400Y8619500D01*
X41787400Y7565400D01*
X41807400Y7565400D01*
X41807400Y7260600D01*
X41787400Y7260600D01*
X41787400Y7240600D01*
X41482600Y7240600D01*
X41482600Y7260600D01*
X41462600Y7260600D01*
X41462600Y7565400D01*
X41482600Y7565400D01*
X41482600Y8619500D01*
X41419100Y8683000D01*
X41355600Y8683000D01*
X41355600Y9271000D01*
X41584100Y9271000D01*
X41647600Y9334500D01*
X41647600Y10097600D01*
X41952400Y10097600D01*
X41952400Y9334500D01*
X42015900Y9271000D01*
X42350524Y9271000D01*
X42443880Y9309669D01*
X42515331Y9381121D01*
X42554000Y9474476D01*
X42554000Y10034100D01*
X42490500Y10097600D01*
X41952400Y10097600D01*
X41647600Y10097600D01*
X41627600Y10097600D01*
X41627600Y10402400D01*
X41647600Y10402400D01*
X41647600Y10422400D01*
X41952400Y10422400D01*
X41952400Y10402400D01*
X42490500Y10402400D01*
X42554000Y10465900D01*
X42554000Y11025524D01*
X42515331Y11118879D01*
X42443880Y11190331D01*
X42426226Y11197643D01*
X42522056Y11293473D01*
X42468298Y11347231D01*
X42583141Y11419391D01*
X42669181Y11748058D01*
X42660606Y11810416D01*
X42719391Y11716859D01*
X43048058Y11630819D01*
X43384633Y11677104D01*
X43480609Y11716859D01*
X43552770Y11831703D01*
X43100000Y12284474D01*
X43085858Y12270331D01*
X42870332Y12485857D01*
X42884474Y12500000D01*
X43315526Y12500000D01*
X43768297Y12047230D01*
X43883141Y12119391D01*
X43969181Y12448058D01*
X43950803Y12581703D01*
X45247230Y12581703D01*
X45319391Y12466859D01*
X45648058Y12380819D01*
X45984633Y12427104D01*
X46080609Y12466859D01*
X46152770Y12581703D01*
X46647230Y12581703D01*
X46719391Y12466859D01*
X47048058Y12380819D01*
X47384633Y12427104D01*
X47480609Y12466859D01*
X47552770Y12581703D01*
X48047230Y12581703D01*
X48119391Y12466859D01*
X48448058Y12380819D01*
X48784633Y12427104D01*
X48880609Y12466859D01*
X48952770Y12581703D01*
X48500000Y13034474D01*
X48047230Y12581703D01*
X47552770Y12581703D01*
X47100000Y13034474D01*
X46647230Y12581703D01*
X46152770Y12581703D01*
X45700000Y13034474D01*
X45247230Y12581703D01*
X43950803Y12581703D01*
X43922896Y12784633D01*
X43883141Y12880609D01*
X43768297Y12952770D01*
X43315526Y12500000D01*
X42884474Y12500000D01*
X42870331Y12514142D01*
X43085858Y12729669D01*
X43100000Y12715526D01*
X43552770Y13168297D01*
X43480609Y13283141D01*
X43408791Y13301942D01*
X44830819Y13301942D01*
X44877104Y12965367D01*
X44916859Y12869391D01*
X45031703Y12797230D01*
X45484474Y13250000D01*
X45915526Y13250000D01*
X46368297Y12797230D01*
X46400000Y12817150D01*
X46431703Y12797230D01*
X46884474Y13250000D01*
X47315526Y13250000D01*
X47768297Y12797230D01*
X47800000Y12817150D01*
X47831703Y12797230D01*
X48284474Y13250000D01*
X48715526Y13250000D01*
X49168297Y12797230D01*
X49283141Y12869391D01*
X49369181Y13198058D01*
X49322896Y13534633D01*
X49283141Y13630609D01*
X49168297Y13702770D01*
X48715526Y13250000D01*
X48284474Y13250000D01*
X47831703Y13702770D01*
X47800000Y13682850D01*
X47768297Y13702770D01*
X47315526Y13250000D01*
X46884474Y13250000D01*
X46431703Y13702770D01*
X46400000Y13682850D01*
X46368297Y13702770D01*
X45915526Y13250000D01*
X45484474Y13250000D01*
X45031703Y13702770D01*
X44916859Y13630609D01*
X44830819Y13301942D01*
X43408791Y13301942D01*
X43151942Y13369181D01*
X42815367Y13322896D01*
X42719391Y13283141D01*
X42649066Y13171218D01*
X42669181Y13248058D01*
X42622896Y13584633D01*
X42583141Y13680609D01*
X42468298Y13752769D01*
X42522056Y13806527D01*
X42418432Y13910151D01*
X42461724Y13918297D01*
X45247230Y13918297D01*
X45700000Y13465526D01*
X46152770Y13918297D01*
X46647230Y13918297D01*
X47100000Y13465526D01*
X47552770Y13918297D01*
X48047230Y13918297D01*
X48500000Y13465526D01*
X48952770Y13918297D01*
X48880609Y14033141D01*
X48551942Y14119181D01*
X48215367Y14072896D01*
X48119391Y14033141D01*
X48047230Y13918297D01*
X47552770Y13918297D01*
X47480609Y14033141D01*
X47151942Y14119181D01*
X46815367Y14072896D01*
X46719391Y14033141D01*
X46647230Y13918297D01*
X46152770Y13918297D01*
X46080609Y14033141D01*
X45751942Y14119181D01*
X45415367Y14072896D01*
X45319391Y14033141D01*
X45247230Y13918297D01*
X42461724Y13918297D01*
X42475904Y13920965D01*
X42683383Y14054474D01*
X42822573Y14258185D01*
X42871542Y14500000D01*
X42871542Y15534100D01*
X44996000Y15534100D01*
X44996000Y14449476D01*
X45034669Y14356120D01*
X45106121Y14284669D01*
X45199476Y14246000D01*
X46784100Y14246000D01*
X46847600Y14309500D01*
X46847600Y15597600D01*
X47152400Y15597600D01*
X47152400Y14309500D01*
X47215900Y14246000D01*
X48800524Y14246000D01*
X48893879Y14284669D01*
X48965331Y14356120D01*
X49004000Y14449476D01*
X49004000Y15534100D01*
X48940500Y15597600D01*
X47152400Y15597600D01*
X46847600Y15597600D01*
X45059500Y15597600D01*
X44996000Y15534100D01*
X42871542Y15534100D01*
X42871542Y17000000D01*
X42862036Y17050524D01*
X44996000Y17050524D01*
X44996000Y15965900D01*
X45059500Y15902400D01*
X46847600Y15902400D01*
X46847600Y17190500D01*
X47152400Y17190500D01*
X47152400Y15902400D01*
X48940500Y15902400D01*
X49004000Y15965900D01*
X49004000Y17050524D01*
X48965331Y17143880D01*
X48893879Y17215331D01*
X48800524Y17254000D01*
X47215900Y17254000D01*
X47152400Y17190500D01*
X46847600Y17190500D01*
X46784100Y17254000D01*
X45199476Y17254000D01*
X45106121Y17215331D01*
X45034669Y17143880D01*
X44996000Y17050524D01*
X42862036Y17050524D01*
X42829035Y17225904D01*
X42695526Y17433383D01*
X42491815Y17572573D01*
X42250000Y17621542D01*
X41490600Y17621542D01*
X41490600Y20398400D01*
X49054992Y20398400D01*
X49268363Y20355958D01*
X49268363Y20355958D01*
G37*
X49268363Y20355958D02*
X49440764Y20240764D01*
X49555958Y20068363D01*
X49598400Y19854992D01*
X49598400Y5945008D01*
X49555958Y5731637D01*
X49440764Y5559236D01*
X49268363Y5444042D01*
X49054992Y5401600D01*
X42404662Y5401600D01*
X42469181Y5648058D01*
X42447406Y5806400D01*
X42600200Y5775458D01*
X43209800Y5775458D01*
X43435704Y5817965D01*
X43643183Y5951474D01*
X43782373Y6155185D01*
X43831342Y6397000D01*
X43831342Y7324100D01*
X44346000Y7324100D01*
X44346000Y6289476D01*
X44384669Y6196120D01*
X44456121Y6124669D01*
X44549476Y6086000D01*
X46534100Y6086000D01*
X46597600Y6149500D01*
X46597600Y7387600D01*
X46902400Y7387600D01*
X46902400Y6149500D01*
X46965900Y6086000D01*
X48950524Y6086000D01*
X49043879Y6124669D01*
X49115331Y6196120D01*
X49154000Y6289476D01*
X49154000Y7324100D01*
X49090500Y7387600D01*
X46902400Y7387600D01*
X46597600Y7387600D01*
X44409500Y7387600D01*
X44346000Y7324100D01*
X43831342Y7324100D01*
X43831342Y8289632D01*
X44220855Y8679145D01*
X44295276Y8790524D01*
X44346000Y8790524D01*
X44346000Y7755900D01*
X44409500Y7692400D01*
X46597600Y7692400D01*
X46597600Y7712400D01*
X46902400Y7712400D01*
X46902400Y7692400D01*
X49090500Y7692400D01*
X49154000Y7755900D01*
X49154000Y8790524D01*
X49115331Y8883880D01*
X49043879Y8955331D01*
X48950524Y8994000D01*
X48897663Y8994000D01*
X48952770Y9081703D01*
X48500000Y9534474D01*
X48047230Y9081703D01*
X48102337Y8994000D01*
X47497663Y8994000D01*
X47552770Y9081703D01*
X47100000Y9534474D01*
X46647230Y9081703D01*
X46702337Y8994000D01*
X46597598Y8994000D01*
X46597598Y8930502D01*
X46534100Y8994000D01*
X46097663Y8994000D01*
X46152770Y9081703D01*
X45700000Y9534474D01*
X45247230Y9081703D01*
X45302337Y8994000D01*
X44549476Y8994000D01*
X44456121Y8955331D01*
X44384669Y8883880D01*
X44346000Y8790524D01*
X44295276Y8790524D01*
X44380530Y8918115D01*
X44384521Y8938178D01*
X44425904Y8945965D01*
X44633383Y9079474D01*
X44772573Y9283185D01*
X44821542Y9525000D01*
X44821542Y9801942D01*
X44830819Y9801942D01*
X44877104Y9465367D01*
X44916859Y9369391D01*
X45031703Y9297230D01*
X45484474Y9750000D01*
X45915526Y9750000D01*
X46368297Y9297230D01*
X46400000Y9317150D01*
X46431703Y9297230D01*
X46884474Y9750000D01*
X47315526Y9750000D01*
X47768297Y9297230D01*
X47800000Y9317150D01*
X47831703Y9297230D01*
X48284474Y9750000D01*
X48715526Y9750000D01*
X49168297Y9297230D01*
X49283141Y9369391D01*
X49369181Y9698058D01*
X49322896Y10034633D01*
X49283141Y10130609D01*
X49168297Y10202770D01*
X48715526Y9750000D01*
X48284474Y9750000D01*
X47831703Y10202770D01*
X47800000Y10182850D01*
X47768297Y10202770D01*
X47315526Y9750000D01*
X46884474Y9750000D01*
X46431703Y10202770D01*
X46400000Y10182850D01*
X46368297Y10202770D01*
X45915526Y9750000D01*
X45484474Y9750000D01*
X45031703Y10202770D01*
X44916859Y10130609D01*
X44830819Y9801942D01*
X44821542Y9801942D01*
X44821542Y10418297D01*
X45247230Y10418297D01*
X45700000Y9965526D01*
X46152770Y10418297D01*
X46647230Y10418297D01*
X47100000Y9965526D01*
X47552770Y10418297D01*
X48047230Y10418297D01*
X48500000Y9965526D01*
X48952770Y10418297D01*
X48880609Y10533141D01*
X48551942Y10619181D01*
X48215367Y10572896D01*
X48119391Y10533141D01*
X48047230Y10418297D01*
X47552770Y10418297D01*
X47480609Y10533141D01*
X47151942Y10619181D01*
X46815367Y10572896D01*
X46719391Y10533141D01*
X46647230Y10418297D01*
X46152770Y10418297D01*
X46080609Y10533141D01*
X45751942Y10619181D01*
X45415367Y10572896D01*
X45319391Y10533141D01*
X45247230Y10418297D01*
X44821542Y10418297D01*
X44821542Y10975000D01*
X44779035Y11200904D01*
X44645526Y11408383D01*
X44441815Y11547573D01*
X44200000Y11596542D01*
X43200000Y11596542D01*
X42974096Y11554035D01*
X42766617Y11420526D01*
X42627427Y11216815D01*
X42578458Y10975000D01*
X42578458Y9525000D01*
X42620965Y9299096D01*
X42674379Y9216089D01*
X42487655Y9029365D01*
X42374296Y9008035D01*
X42166817Y8874526D01*
X42027627Y8670815D01*
X42027017Y8667801D01*
X41990324Y8683000D01*
X41850900Y8683000D01*
X41787400Y8619500D01*
X41787400Y7565400D01*
X41807400Y7565400D01*
X41807400Y7260600D01*
X41787400Y7260600D01*
X41787400Y7240600D01*
X41482600Y7240600D01*
X41482600Y7260600D01*
X41462600Y7260600D01*
X41462600Y7565400D01*
X41482600Y7565400D01*
X41482600Y8619500D01*
X41419100Y8683000D01*
X41355600Y8683000D01*
X41355600Y9271000D01*
X41584100Y9271000D01*
X41647600Y9334500D01*
X41647600Y10097600D01*
X41952400Y10097600D01*
X41952400Y9334500D01*
X42015900Y9271000D01*
X42350524Y9271000D01*
X42443880Y9309669D01*
X42515331Y9381121D01*
X42554000Y9474476D01*
X42554000Y10034100D01*
X42490500Y10097600D01*
X41952400Y10097600D01*
X41647600Y10097600D01*
X41627600Y10097600D01*
X41627600Y10402400D01*
X41647600Y10402400D01*
X41647600Y10422400D01*
X41952400Y10422400D01*
X41952400Y10402400D01*
X42490500Y10402400D01*
X42554000Y10465900D01*
X42554000Y11025524D01*
X42515331Y11118879D01*
X42443880Y11190331D01*
X42426226Y11197643D01*
X42522056Y11293473D01*
X42468298Y11347231D01*
X42583141Y11419391D01*
X42669181Y11748058D01*
X42660606Y11810416D01*
X42719391Y11716859D01*
X43048058Y11630819D01*
X43384633Y11677104D01*
X43480609Y11716859D01*
X43552770Y11831703D01*
X43100000Y12284474D01*
X43085858Y12270331D01*
X42870332Y12485857D01*
X42884474Y12500000D01*
X43315526Y12500000D01*
X43768297Y12047230D01*
X43883141Y12119391D01*
X43969181Y12448058D01*
X43950803Y12581703D01*
X45247230Y12581703D01*
X45319391Y12466859D01*
X45648058Y12380819D01*
X45984633Y12427104D01*
X46080609Y12466859D01*
X46152770Y12581703D01*
X46647230Y12581703D01*
X46719391Y12466859D01*
X47048058Y12380819D01*
X47384633Y12427104D01*
X47480609Y12466859D01*
X47552770Y12581703D01*
X48047230Y12581703D01*
X48119391Y12466859D01*
X48448058Y12380819D01*
X48784633Y12427104D01*
X48880609Y12466859D01*
X48952770Y12581703D01*
X48500000Y13034474D01*
X48047230Y12581703D01*
X47552770Y12581703D01*
X47100000Y13034474D01*
X46647230Y12581703D01*
X46152770Y12581703D01*
X45700000Y13034474D01*
X45247230Y12581703D01*
X43950803Y12581703D01*
X43922896Y12784633D01*
X43883141Y12880609D01*
X43768297Y12952770D01*
X43315526Y12500000D01*
X42884474Y12500000D01*
X42870331Y12514142D01*
X43085858Y12729669D01*
X43100000Y12715526D01*
X43552770Y13168297D01*
X43480609Y13283141D01*
X43408791Y13301942D01*
X44830819Y13301942D01*
X44877104Y12965367D01*
X44916859Y12869391D01*
X45031703Y12797230D01*
X45484474Y13250000D01*
X45915526Y13250000D01*
X46368297Y12797230D01*
X46400000Y12817150D01*
X46431703Y12797230D01*
X46884474Y13250000D01*
X47315526Y13250000D01*
X47768297Y12797230D01*
X47800000Y12817150D01*
X47831703Y12797230D01*
X48284474Y13250000D01*
X48715526Y13250000D01*
X49168297Y12797230D01*
X49283141Y12869391D01*
X49369181Y13198058D01*
X49322896Y13534633D01*
X49283141Y13630609D01*
X49168297Y13702770D01*
X48715526Y13250000D01*
X48284474Y13250000D01*
X47831703Y13702770D01*
X47800000Y13682850D01*
X47768297Y13702770D01*
X47315526Y13250000D01*
X46884474Y13250000D01*
X46431703Y13702770D01*
X46400000Y13682850D01*
X46368297Y13702770D01*
X45915526Y13250000D01*
X45484474Y13250000D01*
X45031703Y13702770D01*
X44916859Y13630609D01*
X44830819Y13301942D01*
X43408791Y13301942D01*
X43151942Y13369181D01*
X42815367Y13322896D01*
X42719391Y13283141D01*
X42649066Y13171218D01*
X42669181Y13248058D01*
X42622896Y13584633D01*
X42583141Y13680609D01*
X42468298Y13752769D01*
X42522056Y13806527D01*
X42418432Y13910151D01*
X42461724Y13918297D01*
X45247230Y13918297D01*
X45700000Y13465526D01*
X46152770Y13918297D01*
X46647230Y13918297D01*
X47100000Y13465526D01*
X47552770Y13918297D01*
X48047230Y13918297D01*
X48500000Y13465526D01*
X48952770Y13918297D01*
X48880609Y14033141D01*
X48551942Y14119181D01*
X48215367Y14072896D01*
X48119391Y14033141D01*
X48047230Y13918297D01*
X47552770Y13918297D01*
X47480609Y14033141D01*
X47151942Y14119181D01*
X46815367Y14072896D01*
X46719391Y14033141D01*
X46647230Y13918297D01*
X46152770Y13918297D01*
X46080609Y14033141D01*
X45751942Y14119181D01*
X45415367Y14072896D01*
X45319391Y14033141D01*
X45247230Y13918297D01*
X42461724Y13918297D01*
X42475904Y13920965D01*
X42683383Y14054474D01*
X42822573Y14258185D01*
X42871542Y14500000D01*
X42871542Y15534100D01*
X44996000Y15534100D01*
X44996000Y14449476D01*
X45034669Y14356120D01*
X45106121Y14284669D01*
X45199476Y14246000D01*
X46784100Y14246000D01*
X46847600Y14309500D01*
X46847600Y15597600D01*
X47152400Y15597600D01*
X47152400Y14309500D01*
X47215900Y14246000D01*
X48800524Y14246000D01*
X48893879Y14284669D01*
X48965331Y14356120D01*
X49004000Y14449476D01*
X49004000Y15534100D01*
X48940500Y15597600D01*
X47152400Y15597600D01*
X46847600Y15597600D01*
X45059500Y15597600D01*
X44996000Y15534100D01*
X42871542Y15534100D01*
X42871542Y17000000D01*
X42862036Y17050524D01*
X44996000Y17050524D01*
X44996000Y15965900D01*
X45059500Y15902400D01*
X46847600Y15902400D01*
X46847600Y17190500D01*
X47152400Y17190500D01*
X47152400Y15902400D01*
X48940500Y15902400D01*
X49004000Y15965900D01*
X49004000Y17050524D01*
X48965331Y17143880D01*
X48893879Y17215331D01*
X48800524Y17254000D01*
X47215900Y17254000D01*
X47152400Y17190500D01*
X46847600Y17190500D01*
X46784100Y17254000D01*
X45199476Y17254000D01*
X45106121Y17215331D01*
X45034669Y17143880D01*
X44996000Y17050524D01*
X42862036Y17050524D01*
X42829035Y17225904D01*
X42695526Y17433383D01*
X42491815Y17572573D01*
X42250000Y17621542D01*
X41490600Y17621542D01*
X41490600Y20398400D01*
X49054992Y20398400D01*
X49268363Y20355958D01*
G36*
X41600000Y5915526D02*
X41614143Y5929668D01*
X41829669Y5714142D01*
X41815526Y5700000D01*
X41829669Y5685858D01*
X41614143Y5470331D01*
X41600000Y5484474D01*
X41588435Y5472909D01*
X41572900Y5483289D01*
X41383289Y5672900D01*
X41372909Y5688435D01*
X41384474Y5700000D01*
X41370332Y5714142D01*
X41585858Y5929669D01*
X41600000Y5915526D01*
X41600000Y5915526D01*
G37*
X41600000Y5915526D02*
X41614143Y5929668D01*
X41829669Y5714142D01*
X41815526Y5700000D01*
X41829669Y5685858D01*
X41614143Y5470331D01*
X41600000Y5484474D01*
X41588435Y5472909D01*
X41572900Y5483289D01*
X41383289Y5672900D01*
X41372909Y5688435D01*
X41384474Y5700000D01*
X41370332Y5714142D01*
X41585858Y5929669D01*
X41600000Y5915526D01*
G36*
X38106527Y16577944D02*
X38128458Y16599875D01*
X38128458Y14500000D01*
X38170965Y14274096D01*
X38304474Y14066617D01*
X38508185Y13927427D01*
X38750000Y13878458D01*
X39374400Y13878458D01*
X39374400Y12654036D01*
X39091246Y12654283D01*
X38703680Y12494144D01*
X38406899Y12197879D01*
X38246083Y11810593D01*
X38245717Y11391246D01*
X38282758Y11301600D01*
X34745008Y11301600D01*
X34531637Y11344042D01*
X34359236Y11459236D01*
X34244042Y11631637D01*
X34201600Y11845008D01*
X34201600Y14534100D01*
X34546000Y14534100D01*
X34546000Y13099476D01*
X34584669Y13006121D01*
X34656120Y12934669D01*
X34749476Y12896000D01*
X35884100Y12896000D01*
X35947600Y12959500D01*
X35947600Y14597600D01*
X36252400Y14597600D01*
X36252400Y12959500D01*
X36315900Y12896000D01*
X37450524Y12896000D01*
X37543880Y12934669D01*
X37615331Y13006121D01*
X37654000Y13099476D01*
X37654000Y14534100D01*
X37590500Y14597600D01*
X36252400Y14597600D01*
X35947600Y14597600D01*
X34609500Y14597600D01*
X34546000Y14534100D01*
X34201600Y14534100D01*
X34201600Y16586071D01*
X34247231Y16631702D01*
X34319391Y16516859D01*
X34567305Y16451959D01*
X34546000Y16400524D01*
X34546000Y14965900D01*
X34609500Y14902400D01*
X35947600Y14902400D01*
X35947600Y14922400D01*
X36252400Y14922400D01*
X36252400Y14902400D01*
X37590500Y14902400D01*
X37654000Y14965900D01*
X37654000Y16400524D01*
X37636418Y16442970D01*
X37884633Y16477104D01*
X37980609Y16516859D01*
X38052769Y16631702D01*
X38106527Y16577944D01*
X38106527Y16577944D01*
G37*
X38106527Y16577944D02*
X38128458Y16599875D01*
X38128458Y14500000D01*
X38170965Y14274096D01*
X38304474Y14066617D01*
X38508185Y13927427D01*
X38750000Y13878458D01*
X39374400Y13878458D01*
X39374400Y12654036D01*
X39091246Y12654283D01*
X38703680Y12494144D01*
X38406899Y12197879D01*
X38246083Y11810593D01*
X38245717Y11391246D01*
X38282758Y11301600D01*
X34745008Y11301600D01*
X34531637Y11344042D01*
X34359236Y11459236D01*
X34244042Y11631637D01*
X34201600Y11845008D01*
X34201600Y14534100D01*
X34546000Y14534100D01*
X34546000Y13099476D01*
X34584669Y13006121D01*
X34656120Y12934669D01*
X34749476Y12896000D01*
X35884100Y12896000D01*
X35947600Y12959500D01*
X35947600Y14597600D01*
X36252400Y14597600D01*
X36252400Y12959500D01*
X36315900Y12896000D01*
X37450524Y12896000D01*
X37543880Y12934669D01*
X37615331Y13006121D01*
X37654000Y13099476D01*
X37654000Y14534100D01*
X37590500Y14597600D01*
X36252400Y14597600D01*
X35947600Y14597600D01*
X34609500Y14597600D01*
X34546000Y14534100D01*
X34201600Y14534100D01*
X34201600Y16586071D01*
X34247231Y16631702D01*
X34319391Y16516859D01*
X34567305Y16451959D01*
X34546000Y16400524D01*
X34546000Y14965900D01*
X34609500Y14902400D01*
X35947600Y14902400D01*
X35947600Y14922400D01*
X36252400Y14922400D01*
X36252400Y14902400D01*
X37590500Y14902400D01*
X37654000Y14965900D01*
X37654000Y16400524D01*
X37636418Y16442970D01*
X37884633Y16477104D01*
X37980609Y16516859D01*
X38052769Y16631702D01*
X38106527Y16577944D01*
G36*
X42029669Y11814142D02*
X42015526Y11800000D01*
X42029669Y11785858D01*
X41814142Y11570331D01*
X41800000Y11584474D01*
X41785858Y11570331D01*
X41570331Y11785858D01*
X41584474Y11800000D01*
X41570331Y11814142D01*
X41785858Y12029669D01*
X41800000Y12015526D01*
X41814142Y12029669D01*
X42029669Y11814142D01*
X42029669Y11814142D01*
G37*
X42029669Y11814142D02*
X42015526Y11800000D01*
X42029669Y11785858D01*
X41814142Y11570331D01*
X41800000Y11584474D01*
X41785858Y11570331D01*
X41570331Y11785858D01*
X41584474Y11800000D01*
X41570331Y11814142D01*
X41785858Y12029669D01*
X41800000Y12015526D01*
X41814142Y12029669D01*
X42029669Y11814142D01*
G36*
X42029669Y13314142D02*
X42015526Y13300000D01*
X42029669Y13285858D01*
X41814142Y13070331D01*
X41800000Y13084474D01*
X41785858Y13070331D01*
X41570331Y13285858D01*
X41584474Y13300000D01*
X41570331Y13314142D01*
X41785858Y13529669D01*
X41800000Y13515526D01*
X41814142Y13529669D01*
X42029669Y13314142D01*
X42029669Y13314142D01*
G37*
X42029669Y13314142D02*
X42015526Y13300000D01*
X42029669Y13285858D01*
X41814142Y13070331D01*
X41800000Y13084474D01*
X41785858Y13070331D01*
X41570331Y13285858D01*
X41584474Y13300000D01*
X41570331Y13314142D01*
X41785858Y13529669D01*
X41800000Y13515526D01*
X41814142Y13529669D01*
X42029669Y13314142D01*
G36*
X39509400Y17621542D02*
X38750000Y17621542D01*
X38524096Y17579035D01*
X38431830Y17519664D01*
X38422896Y17584633D01*
X38383141Y17680609D01*
X38268297Y17752770D01*
X37815526Y17300000D01*
X37829669Y17285858D01*
X37614142Y17070331D01*
X37600000Y17084474D01*
X37147230Y16631703D01*
X37164637Y16604000D01*
X36535363Y16604000D01*
X36552770Y16631703D01*
X36100000Y17084474D01*
X35647230Y16631703D01*
X35664637Y16604000D01*
X35135363Y16604000D01*
X35152770Y16631703D01*
X34700000Y17084474D01*
X34685858Y17070331D01*
X34470331Y17285858D01*
X34484474Y17300000D01*
X34915526Y17300000D01*
X35368297Y16847230D01*
X35400000Y16867150D01*
X35431703Y16847230D01*
X35884474Y17300000D01*
X36315526Y17300000D01*
X36768297Y16847230D01*
X36850000Y16898567D01*
X36931703Y16847230D01*
X37384474Y17300000D01*
X36931703Y17752770D01*
X36850000Y17701433D01*
X36768297Y17752770D01*
X36315526Y17300000D01*
X35884474Y17300000D01*
X35431703Y17752770D01*
X35400000Y17732850D01*
X35368297Y17752770D01*
X34915526Y17300000D01*
X34484474Y17300000D01*
X34470331Y17314142D01*
X34685858Y17529669D01*
X34700000Y17515526D01*
X35152770Y17968297D01*
X35647230Y17968297D01*
X36100000Y17515526D01*
X36552770Y17968297D01*
X37147230Y17968297D01*
X37600000Y17515526D01*
X38052770Y17968297D01*
X37980609Y18083141D01*
X37651942Y18169181D01*
X37315367Y18122896D01*
X37219391Y18083141D01*
X37147230Y17968297D01*
X36552770Y17968297D01*
X36480609Y18083141D01*
X36151942Y18169181D01*
X35815367Y18122896D01*
X35719391Y18083141D01*
X35647230Y17968297D01*
X35152770Y17968297D01*
X35080609Y18083141D01*
X34751942Y18169181D01*
X34415367Y18122896D01*
X34319391Y18083141D01*
X34247231Y17968298D01*
X34201600Y18013929D01*
X34201600Y18821530D01*
X34202108Y18822037D01*
X34411361Y19325975D01*
X34411837Y19871631D01*
X34297495Y20148361D01*
X34359236Y20240764D01*
X34531637Y20355958D01*
X34745008Y20398400D01*
X39509400Y20398400D01*
X39509400Y17621542D01*
X39509400Y17621542D01*
G37*
X39509400Y17621542D02*
X38750000Y17621542D01*
X38524096Y17579035D01*
X38431830Y17519664D01*
X38422896Y17584633D01*
X38383141Y17680609D01*
X38268297Y17752770D01*
X37815526Y17300000D01*
X37829669Y17285858D01*
X37614142Y17070331D01*
X37600000Y17084474D01*
X37147230Y16631703D01*
X37164637Y16604000D01*
X36535363Y16604000D01*
X36552770Y16631703D01*
X36100000Y17084474D01*
X35647230Y16631703D01*
X35664637Y16604000D01*
X35135363Y16604000D01*
X35152770Y16631703D01*
X34700000Y17084474D01*
X34685858Y17070331D01*
X34470331Y17285858D01*
X34484474Y17300000D01*
X34915526Y17300000D01*
X35368297Y16847230D01*
X35400000Y16867150D01*
X35431703Y16847230D01*
X35884474Y17300000D01*
X36315526Y17300000D01*
X36768297Y16847230D01*
X36850000Y16898567D01*
X36931703Y16847230D01*
X37384474Y17300000D01*
X36931703Y17752770D01*
X36850000Y17701433D01*
X36768297Y17752770D01*
X36315526Y17300000D01*
X35884474Y17300000D01*
X35431703Y17752770D01*
X35400000Y17732850D01*
X35368297Y17752770D01*
X34915526Y17300000D01*
X34484474Y17300000D01*
X34470331Y17314142D01*
X34685858Y17529669D01*
X34700000Y17515526D01*
X35152770Y17968297D01*
X35647230Y17968297D01*
X36100000Y17515526D01*
X36552770Y17968297D01*
X37147230Y17968297D01*
X37600000Y17515526D01*
X38052770Y17968297D01*
X37980609Y18083141D01*
X37651942Y18169181D01*
X37315367Y18122896D01*
X37219391Y18083141D01*
X37147230Y17968297D01*
X36552770Y17968297D01*
X36480609Y18083141D01*
X36151942Y18169181D01*
X35815367Y18122896D01*
X35719391Y18083141D01*
X35647230Y17968297D01*
X35152770Y17968297D01*
X35080609Y18083141D01*
X34751942Y18169181D01*
X34415367Y18122896D01*
X34319391Y18083141D01*
X34247231Y17968298D01*
X34201600Y18013929D01*
X34201600Y18821530D01*
X34202108Y18822037D01*
X34411361Y19325975D01*
X34411837Y19871631D01*
X34297495Y20148361D01*
X34359236Y20240764D01*
X34531637Y20355958D01*
X34745008Y20398400D01*
X39509400Y20398400D01*
X39509400Y17621542D01*
G36*
X27388666Y20386860D02*
X27960000Y19815526D01*
X28531334Y20386860D01*
X28453086Y20498400D01*
X28489992Y20498400D01*
X28689969Y20458623D01*
X28851015Y20351015D01*
X28958623Y20189969D01*
X28998400Y19989992D01*
X28998400Y19673034D01*
X28982660Y19593903D01*
X28948177Y19910812D01*
X28878524Y20078969D01*
X28746860Y20171334D01*
X28175526Y19600000D01*
X28189669Y19585857D01*
X27974143Y19370331D01*
X27960000Y19384474D01*
X27388666Y18813140D01*
X27481031Y18681476D01*
X27868994Y18568101D01*
X28155603Y18599287D01*
X27214145Y17657829D01*
X27201510Y17642433D01*
X27063859Y17436424D01*
X27048688Y17399799D01*
X27000352Y17156795D01*
X26998400Y17136974D01*
X26998400Y16448476D01*
X26978458Y16350000D01*
X26978458Y13150000D01*
X26998400Y13044018D01*
X26998400Y5835000D01*
X27000352Y5815179D01*
X27048688Y5572175D01*
X27063859Y5535550D01*
X27201510Y5329541D01*
X27229541Y5301510D01*
X27435550Y5163859D01*
X27472175Y5148688D01*
X27715179Y5100352D01*
X27735000Y5098400D01*
X34754992Y5098400D01*
X34968363Y5055958D01*
X35046124Y5004000D01*
X31715900Y5004000D01*
X31652400Y4940500D01*
X31652400Y3402400D01*
X31672400Y3402400D01*
X31672400Y3097600D01*
X31652400Y3097600D01*
X31652400Y1559500D01*
X31715900Y1496000D01*
X35300524Y1496000D01*
X35340643Y1512618D01*
X35348688Y1472175D01*
X35363859Y1435550D01*
X35501510Y1229541D01*
X35529541Y1201510D01*
X35735550Y1063859D01*
X35772175Y1048688D01*
X36015179Y1000352D01*
X36035000Y998400D01*
X38548518Y998400D01*
X38790200Y949458D01*
X39399800Y949458D01*
X39625704Y991965D01*
X39635704Y998400D01*
X39818518Y998400D01*
X40060200Y949458D01*
X40669800Y949458D01*
X40895704Y991965D01*
X40905704Y998400D01*
X41088518Y998400D01*
X41330200Y949458D01*
X41939800Y949458D01*
X42165704Y991965D01*
X42373183Y1125474D01*
X42387061Y1145785D01*
X42470459Y1201510D01*
X42498490Y1229541D01*
X42556928Y1317000D01*
X42689100Y1317000D01*
X42752600Y1380500D01*
X42752600Y2434600D01*
X43057400Y2434600D01*
X43057400Y1380500D01*
X43120900Y1317000D01*
X43260324Y1317000D01*
X43353680Y1355669D01*
X43425131Y1427121D01*
X43463800Y1520476D01*
X43463800Y2244100D01*
X44346000Y2244100D01*
X44346000Y1209476D01*
X44384669Y1116120D01*
X44456121Y1044669D01*
X44549476Y1006000D01*
X46534100Y1006000D01*
X46597600Y1069500D01*
X46597600Y2307600D01*
X46902400Y2307600D01*
X46902400Y1069500D01*
X46965900Y1006000D01*
X48950524Y1006000D01*
X49043879Y1044669D01*
X49115331Y1116120D01*
X49154000Y1209476D01*
X49154000Y2244100D01*
X49090500Y2307600D01*
X46902400Y2307600D01*
X46597600Y2307600D01*
X44409500Y2307600D01*
X44346000Y2244100D01*
X43463800Y2244100D01*
X43463800Y2371100D01*
X43400300Y2434600D01*
X43057400Y2434600D01*
X42752600Y2434600D01*
X42732600Y2434600D01*
X42732600Y2739400D01*
X42752600Y2739400D01*
X42752600Y3793500D01*
X43057400Y3793500D01*
X43057400Y2739400D01*
X43400300Y2739400D01*
X43463800Y2802900D01*
X43463800Y3653524D01*
X43440190Y3710524D01*
X44346000Y3710524D01*
X44346000Y2675900D01*
X44409500Y2612400D01*
X46597600Y2612400D01*
X46597600Y3850500D01*
X46902400Y3850500D01*
X46902400Y2612400D01*
X49090500Y2612400D01*
X49154000Y2675900D01*
X49154000Y3710524D01*
X49115331Y3803880D01*
X49043879Y3875331D01*
X48950524Y3914000D01*
X46965900Y3914000D01*
X46902400Y3850500D01*
X46597600Y3850500D01*
X46534100Y3914000D01*
X44549476Y3914000D01*
X44456121Y3875331D01*
X44384669Y3803880D01*
X44346000Y3710524D01*
X43440190Y3710524D01*
X43425131Y3746879D01*
X43353680Y3818331D01*
X43260324Y3857000D01*
X43120900Y3857000D01*
X43057400Y3793500D01*
X42752600Y3793500D01*
X42715022Y3831078D01*
X42809389Y4058340D01*
X42809483Y4166303D01*
X42859236Y4240764D01*
X43031637Y4355958D01*
X43245008Y4398400D01*
X49054992Y4398400D01*
X49268363Y4355958D01*
X49440764Y4240764D01*
X49555958Y4068363D01*
X49598400Y3854992D01*
X49598400Y845008D01*
X49564205Y673100D01*
X25935795Y673100D01*
X25901600Y845008D01*
X25901600Y3034100D01*
X27496000Y3034100D01*
X27496000Y1699476D01*
X27534669Y1606120D01*
X27606121Y1534669D01*
X27699476Y1496000D01*
X31284100Y1496000D01*
X31347600Y1559500D01*
X31347600Y3097600D01*
X27559500Y3097600D01*
X27496000Y3034100D01*
X25901600Y3034100D01*
X25901600Y4800524D01*
X27496000Y4800524D01*
X27496000Y3465900D01*
X27559500Y3402400D01*
X31347600Y3402400D01*
X31347600Y4940500D01*
X31284100Y5004000D01*
X27699476Y5004000D01*
X27606121Y4965331D01*
X27534669Y4893880D01*
X27496000Y4800524D01*
X25901600Y4800524D01*
X25901600Y19691006D01*
X26928101Y19691006D01*
X26971823Y19289188D01*
X27041476Y19121031D01*
X27173140Y19028666D01*
X27744474Y19600000D01*
X27173140Y20171334D01*
X27041476Y20078969D01*
X26928101Y19691006D01*
X25901600Y19691006D01*
X25901600Y19954992D01*
X25944042Y20168363D01*
X26059236Y20340764D01*
X26231637Y20455958D01*
X26445008Y20498400D01*
X27466914Y20498400D01*
X27388666Y20386860D01*
X27388666Y20386860D01*
G37*
X27388666Y20386860D02*
X27960000Y19815526D01*
X28531334Y20386860D01*
X28453086Y20498400D01*
X28489992Y20498400D01*
X28689969Y20458623D01*
X28851015Y20351015D01*
X28958623Y20189969D01*
X28998400Y19989992D01*
X28998400Y19673034D01*
X28982660Y19593903D01*
X28948177Y19910812D01*
X28878524Y20078969D01*
X28746860Y20171334D01*
X28175526Y19600000D01*
X28189669Y19585857D01*
X27974143Y19370331D01*
X27960000Y19384474D01*
X27388666Y18813140D01*
X27481031Y18681476D01*
X27868994Y18568101D01*
X28155603Y18599287D01*
X27214145Y17657829D01*
X27201510Y17642433D01*
X27063859Y17436424D01*
X27048688Y17399799D01*
X27000352Y17156795D01*
X26998400Y17136974D01*
X26998400Y16448476D01*
X26978458Y16350000D01*
X26978458Y13150000D01*
X26998400Y13044018D01*
X26998400Y5835000D01*
X27000352Y5815179D01*
X27048688Y5572175D01*
X27063859Y5535550D01*
X27201510Y5329541D01*
X27229541Y5301510D01*
X27435550Y5163859D01*
X27472175Y5148688D01*
X27715179Y5100352D01*
X27735000Y5098400D01*
X34754992Y5098400D01*
X34968363Y5055958D01*
X35046124Y5004000D01*
X31715900Y5004000D01*
X31652400Y4940500D01*
X31652400Y3402400D01*
X31672400Y3402400D01*
X31672400Y3097600D01*
X31652400Y3097600D01*
X31652400Y1559500D01*
X31715900Y1496000D01*
X35300524Y1496000D01*
X35340643Y1512618D01*
X35348688Y1472175D01*
X35363859Y1435550D01*
X35501510Y1229541D01*
X35529541Y1201510D01*
X35735550Y1063859D01*
X35772175Y1048688D01*
X36015179Y1000352D01*
X36035000Y998400D01*
X38548518Y998400D01*
X38790200Y949458D01*
X39399800Y949458D01*
X39625704Y991965D01*
X39635704Y998400D01*
X39818518Y998400D01*
X40060200Y949458D01*
X40669800Y949458D01*
X40895704Y991965D01*
X40905704Y998400D01*
X41088518Y998400D01*
X41330200Y949458D01*
X41939800Y949458D01*
X42165704Y991965D01*
X42373183Y1125474D01*
X42387061Y1145785D01*
X42470459Y1201510D01*
X42498490Y1229541D01*
X42556928Y1317000D01*
X42689100Y1317000D01*
X42752600Y1380500D01*
X42752600Y2434600D01*
X43057400Y2434600D01*
X43057400Y1380500D01*
X43120900Y1317000D01*
X43260324Y1317000D01*
X43353680Y1355669D01*
X43425131Y1427121D01*
X43463800Y1520476D01*
X43463800Y2244100D01*
X44346000Y2244100D01*
X44346000Y1209476D01*
X44384669Y1116120D01*
X44456121Y1044669D01*
X44549476Y1006000D01*
X46534100Y1006000D01*
X46597600Y1069500D01*
X46597600Y2307600D01*
X46902400Y2307600D01*
X46902400Y1069500D01*
X46965900Y1006000D01*
X48950524Y1006000D01*
X49043879Y1044669D01*
X49115331Y1116120D01*
X49154000Y1209476D01*
X49154000Y2244100D01*
X49090500Y2307600D01*
X46902400Y2307600D01*
X46597600Y2307600D01*
X44409500Y2307600D01*
X44346000Y2244100D01*
X43463800Y2244100D01*
X43463800Y2371100D01*
X43400300Y2434600D01*
X43057400Y2434600D01*
X42752600Y2434600D01*
X42732600Y2434600D01*
X42732600Y2739400D01*
X42752600Y2739400D01*
X42752600Y3793500D01*
X43057400Y3793500D01*
X43057400Y2739400D01*
X43400300Y2739400D01*
X43463800Y2802900D01*
X43463800Y3653524D01*
X43440190Y3710524D01*
X44346000Y3710524D01*
X44346000Y2675900D01*
X44409500Y2612400D01*
X46597600Y2612400D01*
X46597600Y3850500D01*
X46902400Y3850500D01*
X46902400Y2612400D01*
X49090500Y2612400D01*
X49154000Y2675900D01*
X49154000Y3710524D01*
X49115331Y3803880D01*
X49043879Y3875331D01*
X48950524Y3914000D01*
X46965900Y3914000D01*
X46902400Y3850500D01*
X46597600Y3850500D01*
X46534100Y3914000D01*
X44549476Y3914000D01*
X44456121Y3875331D01*
X44384669Y3803880D01*
X44346000Y3710524D01*
X43440190Y3710524D01*
X43425131Y3746879D01*
X43353680Y3818331D01*
X43260324Y3857000D01*
X43120900Y3857000D01*
X43057400Y3793500D01*
X42752600Y3793500D01*
X42715022Y3831078D01*
X42809389Y4058340D01*
X42809483Y4166303D01*
X42859236Y4240764D01*
X43031637Y4355958D01*
X43245008Y4398400D01*
X49054992Y4398400D01*
X49268363Y4355958D01*
X49440764Y4240764D01*
X49555958Y4068363D01*
X49598400Y3854992D01*
X49598400Y845008D01*
X49564205Y673100D01*
X25935795Y673100D01*
X25901600Y845008D01*
X25901600Y3034100D01*
X27496000Y3034100D01*
X27496000Y1699476D01*
X27534669Y1606120D01*
X27606121Y1534669D01*
X27699476Y1496000D01*
X31284100Y1496000D01*
X31347600Y1559500D01*
X31347600Y3097600D01*
X27559500Y3097600D01*
X27496000Y3034100D01*
X25901600Y3034100D01*
X25901600Y4800524D01*
X27496000Y4800524D01*
X27496000Y3465900D01*
X27559500Y3402400D01*
X31347600Y3402400D01*
X31347600Y4940500D01*
X31284100Y5004000D01*
X27699476Y5004000D01*
X27606121Y4965331D01*
X27534669Y4893880D01*
X27496000Y4800524D01*
X25901600Y4800524D01*
X25901600Y19691006D01*
X26928101Y19691006D01*
X26971823Y19289188D01*
X27041476Y19121031D01*
X27173140Y19028666D01*
X27744474Y19600000D01*
X27173140Y20171334D01*
X27041476Y20078969D01*
X26928101Y19691006D01*
X25901600Y19691006D01*
X25901600Y19954992D01*
X25944042Y20168363D01*
X26059236Y20340764D01*
X26231637Y20455958D01*
X26445008Y20498400D01*
X27466914Y20498400D01*
X27388666Y20386860D01*
G36*
X31020914Y16384805D02*
X31400000Y16309400D01*
X31738042Y16309400D01*
X31840764Y16240764D01*
X31955958Y16068363D01*
X31998400Y15854992D01*
X31998400Y11235000D01*
X32000352Y11215179D01*
X32048688Y10972175D01*
X32063859Y10935550D01*
X32201510Y10729541D01*
X32229541Y10701510D01*
X32435550Y10563859D01*
X32472175Y10548688D01*
X32715179Y10500352D01*
X32735000Y10498400D01*
X38754992Y10498400D01*
X38968363Y10455958D01*
X39140764Y10340764D01*
X39255958Y10168363D01*
X39298400Y9954992D01*
X39298400Y8670500D01*
X39247400Y8619500D01*
X39247400Y7565400D01*
X39267400Y7565400D01*
X39267400Y7260600D01*
X39247400Y7260600D01*
X39247400Y6206500D01*
X39298400Y6155500D01*
X39298400Y5945008D01*
X39255958Y5731637D01*
X39140764Y5559236D01*
X38968363Y5444042D01*
X38754992Y5401600D01*
X37979000Y5401600D01*
X37979000Y5684100D01*
X37915500Y5747600D01*
X37152400Y5747600D01*
X37152400Y5727600D01*
X36847600Y5727600D01*
X36847600Y5747600D01*
X36827600Y5747600D01*
X36827600Y6052400D01*
X36847600Y6052400D01*
X36847600Y6665500D01*
X37152400Y6665500D01*
X37152400Y6052400D01*
X37915500Y6052400D01*
X37979000Y6115900D01*
X37979000Y6525524D01*
X37940331Y6618880D01*
X37868879Y6690331D01*
X37775524Y6729000D01*
X37215900Y6729000D01*
X37152400Y6665500D01*
X36847600Y6665500D01*
X36784100Y6729000D01*
X36224476Y6729000D01*
X36131121Y6690331D01*
X36059669Y6618880D01*
X36021000Y6525524D01*
X36021000Y6115900D01*
X36084498Y6052402D01*
X36048516Y6052402D01*
X36040385Y6057835D01*
X36003760Y6073006D01*
X35869821Y6099648D01*
X35850000Y6101600D01*
X28345008Y6101600D01*
X28131637Y6144042D01*
X27959236Y6259236D01*
X27844042Y6431637D01*
X27831239Y6496000D01*
X31284100Y6496000D01*
X31347600Y6559500D01*
X31347600Y8097600D01*
X31652400Y8097600D01*
X31652400Y6559500D01*
X31715900Y6496000D01*
X35300524Y6496000D01*
X35393879Y6534669D01*
X35465331Y6606120D01*
X35504000Y6699476D01*
X35504000Y7197100D01*
X38536200Y7197100D01*
X38536200Y6346476D01*
X38574869Y6253121D01*
X38646320Y6181669D01*
X38739676Y6143000D01*
X38879100Y6143000D01*
X38942600Y6206500D01*
X38942600Y7260600D01*
X38599700Y7260600D01*
X38536200Y7197100D01*
X35504000Y7197100D01*
X35504000Y8034100D01*
X35440500Y8097600D01*
X31652400Y8097600D01*
X31347600Y8097600D01*
X31327600Y8097600D01*
X31327600Y8402400D01*
X31347600Y8402400D01*
X31347600Y9940500D01*
X31652400Y9940500D01*
X31652400Y8402400D01*
X35440500Y8402400D01*
X35504000Y8465900D01*
X35504000Y8479524D01*
X38536200Y8479524D01*
X38536200Y7628900D01*
X38599700Y7565400D01*
X38942600Y7565400D01*
X38942600Y8619500D01*
X38879100Y8683000D01*
X38739676Y8683000D01*
X38646320Y8644331D01*
X38574869Y8572879D01*
X38536200Y8479524D01*
X35504000Y8479524D01*
X35504000Y9800524D01*
X35465331Y9893880D01*
X35393879Y9965331D01*
X35300524Y10004000D01*
X31715900Y10004000D01*
X31652400Y9940500D01*
X31347600Y9940500D01*
X31284100Y10004000D01*
X27801600Y10004000D01*
X27801600Y12896000D01*
X28684100Y12896000D01*
X28747600Y12959500D01*
X28747600Y14597600D01*
X29052400Y14597600D01*
X29052400Y12959500D01*
X29115900Y12896000D01*
X30250524Y12896000D01*
X30343880Y12934669D01*
X30415331Y13006121D01*
X30454000Y13099476D01*
X30454000Y14534100D01*
X30390500Y14597600D01*
X29052400Y14597600D01*
X28747600Y14597600D01*
X28727600Y14597600D01*
X28727600Y14902400D01*
X28747600Y14902400D01*
X28747600Y14922400D01*
X29052400Y14922400D01*
X29052400Y14902400D01*
X30390500Y14902400D01*
X30454000Y14965900D01*
X30454000Y16398400D01*
X31000568Y16398400D01*
X31020914Y16384805D01*
X31020914Y16384805D01*
G37*
X31020914Y16384805D02*
X31400000Y16309400D01*
X31738042Y16309400D01*
X31840764Y16240764D01*
X31955958Y16068363D01*
X31998400Y15854992D01*
X31998400Y11235000D01*
X32000352Y11215179D01*
X32048688Y10972175D01*
X32063859Y10935550D01*
X32201510Y10729541D01*
X32229541Y10701510D01*
X32435550Y10563859D01*
X32472175Y10548688D01*
X32715179Y10500352D01*
X32735000Y10498400D01*
X38754992Y10498400D01*
X38968363Y10455958D01*
X39140764Y10340764D01*
X39255958Y10168363D01*
X39298400Y9954992D01*
X39298400Y8670500D01*
X39247400Y8619500D01*
X39247400Y7565400D01*
X39267400Y7565400D01*
X39267400Y7260600D01*
X39247400Y7260600D01*
X39247400Y6206500D01*
X39298400Y6155500D01*
X39298400Y5945008D01*
X39255958Y5731637D01*
X39140764Y5559236D01*
X38968363Y5444042D01*
X38754992Y5401600D01*
X37979000Y5401600D01*
X37979000Y5684100D01*
X37915500Y5747600D01*
X37152400Y5747600D01*
X37152400Y5727600D01*
X36847600Y5727600D01*
X36847600Y5747600D01*
X36827600Y5747600D01*
X36827600Y6052400D01*
X36847600Y6052400D01*
X36847600Y6665500D01*
X37152400Y6665500D01*
X37152400Y6052400D01*
X37915500Y6052400D01*
X37979000Y6115900D01*
X37979000Y6525524D01*
X37940331Y6618880D01*
X37868879Y6690331D01*
X37775524Y6729000D01*
X37215900Y6729000D01*
X37152400Y6665500D01*
X36847600Y6665500D01*
X36784100Y6729000D01*
X36224476Y6729000D01*
X36131121Y6690331D01*
X36059669Y6618880D01*
X36021000Y6525524D01*
X36021000Y6115900D01*
X36084498Y6052402D01*
X36048516Y6052402D01*
X36040385Y6057835D01*
X36003760Y6073006D01*
X35869821Y6099648D01*
X35850000Y6101600D01*
X28345008Y6101600D01*
X28131637Y6144042D01*
X27959236Y6259236D01*
X27844042Y6431637D01*
X27831239Y6496000D01*
X31284100Y6496000D01*
X31347600Y6559500D01*
X31347600Y8097600D01*
X31652400Y8097600D01*
X31652400Y6559500D01*
X31715900Y6496000D01*
X35300524Y6496000D01*
X35393879Y6534669D01*
X35465331Y6606120D01*
X35504000Y6699476D01*
X35504000Y7197100D01*
X38536200Y7197100D01*
X38536200Y6346476D01*
X38574869Y6253121D01*
X38646320Y6181669D01*
X38739676Y6143000D01*
X38879100Y6143000D01*
X38942600Y6206500D01*
X38942600Y7260600D01*
X38599700Y7260600D01*
X38536200Y7197100D01*
X35504000Y7197100D01*
X35504000Y8034100D01*
X35440500Y8097600D01*
X31652400Y8097600D01*
X31347600Y8097600D01*
X31327600Y8097600D01*
X31327600Y8402400D01*
X31347600Y8402400D01*
X31347600Y9940500D01*
X31652400Y9940500D01*
X31652400Y8402400D01*
X35440500Y8402400D01*
X35504000Y8465900D01*
X35504000Y8479524D01*
X38536200Y8479524D01*
X38536200Y7628900D01*
X38599700Y7565400D01*
X38942600Y7565400D01*
X38942600Y8619500D01*
X38879100Y8683000D01*
X38739676Y8683000D01*
X38646320Y8644331D01*
X38574869Y8572879D01*
X38536200Y8479524D01*
X35504000Y8479524D01*
X35504000Y9800524D01*
X35465331Y9893880D01*
X35393879Y9965331D01*
X35300524Y10004000D01*
X31715900Y10004000D01*
X31652400Y9940500D01*
X31347600Y9940500D01*
X31284100Y10004000D01*
X27801600Y10004000D01*
X27801600Y12896000D01*
X28684100Y12896000D01*
X28747600Y12959500D01*
X28747600Y14597600D01*
X29052400Y14597600D01*
X29052400Y12959500D01*
X29115900Y12896000D01*
X30250524Y12896000D01*
X30343880Y12934669D01*
X30415331Y13006121D01*
X30454000Y13099476D01*
X30454000Y14534100D01*
X30390500Y14597600D01*
X29052400Y14597600D01*
X28747600Y14597600D01*
X28727600Y14597600D01*
X28727600Y14902400D01*
X28747600Y14902400D01*
X28747600Y14922400D01*
X29052400Y14922400D01*
X29052400Y14902400D01*
X30390500Y14902400D01*
X30454000Y14965900D01*
X30454000Y16398400D01*
X31000568Y16398400D01*
X31020914Y16384805D01*
G36*
X53188666Y20386860D02*
X53760000Y19815526D01*
X54331334Y20386860D01*
X54263318Y20483815D01*
X54389969Y20458623D01*
X54551015Y20351015D01*
X54658623Y20189969D01*
X54682714Y20068854D01*
X54678524Y20078969D01*
X54546860Y20171334D01*
X53975526Y19600000D01*
X53989669Y19585857D01*
X53774143Y19370331D01*
X53760000Y19384474D01*
X53188666Y18813140D01*
X53281031Y18681476D01*
X53668994Y18568101D01*
X53843393Y18587077D01*
X52914145Y17657829D01*
X52901510Y17642433D01*
X52763859Y17436424D01*
X52748688Y17399799D01*
X52700352Y17156795D01*
X52698400Y17136974D01*
X52698400Y5835000D01*
X52700352Y5815179D01*
X52748688Y5572175D01*
X52763859Y5535550D01*
X52901510Y5329541D01*
X52929541Y5301510D01*
X53135550Y5163859D01*
X53172175Y5148688D01*
X53415179Y5100352D01*
X53435000Y5098400D01*
X60454992Y5098400D01*
X60668363Y5055958D01*
X60746124Y5004000D01*
X57465900Y5004000D01*
X57402400Y4940500D01*
X57402400Y3402400D01*
X57422400Y3402400D01*
X57422400Y3097600D01*
X57402400Y3097600D01*
X57402400Y1559500D01*
X57465900Y1496000D01*
X61043949Y1496000D01*
X61048688Y1472175D01*
X61063859Y1435550D01*
X61201510Y1229541D01*
X61229541Y1201510D01*
X61435550Y1063859D01*
X61472175Y1048688D01*
X61715179Y1000352D01*
X61735000Y998400D01*
X64298518Y998400D01*
X64540200Y949458D01*
X65149800Y949458D01*
X65375704Y991965D01*
X65385704Y998400D01*
X65568518Y998400D01*
X65810200Y949458D01*
X66419800Y949458D01*
X66645704Y991965D01*
X66655704Y998400D01*
X66838518Y998400D01*
X67080200Y949458D01*
X67689800Y949458D01*
X67915704Y991965D01*
X68123183Y1125474D01*
X68185226Y1216277D01*
X68198490Y1229541D01*
X68266195Y1330869D01*
X68299676Y1317000D01*
X68439100Y1317000D01*
X68502600Y1380500D01*
X68502600Y2434600D01*
X68807400Y2434600D01*
X68807400Y1380500D01*
X68870900Y1317000D01*
X69010324Y1317000D01*
X69103680Y1355669D01*
X69175131Y1427121D01*
X69213800Y1520476D01*
X69213800Y2244100D01*
X70096000Y2244100D01*
X70096000Y1209476D01*
X70134669Y1116120D01*
X70206121Y1044669D01*
X70299476Y1006000D01*
X72284100Y1006000D01*
X72347600Y1069500D01*
X72347600Y2307600D01*
X72652400Y2307600D01*
X72652400Y1069500D01*
X72715900Y1006000D01*
X74700524Y1006000D01*
X74793879Y1044669D01*
X74865331Y1116120D01*
X74904000Y1209476D01*
X74904000Y2244100D01*
X74840500Y2307600D01*
X72652400Y2307600D01*
X72347600Y2307600D01*
X70159500Y2307600D01*
X70096000Y2244100D01*
X69213800Y2244100D01*
X69213800Y2371100D01*
X69150300Y2434600D01*
X68807400Y2434600D01*
X68502600Y2434600D01*
X68482600Y2434600D01*
X68482600Y2739400D01*
X68502600Y2739400D01*
X68502600Y3793500D01*
X68807400Y3793500D01*
X68807400Y2739400D01*
X69150300Y2739400D01*
X69213800Y2802900D01*
X69213800Y3653524D01*
X69190190Y3710524D01*
X70096000Y3710524D01*
X70096000Y2675900D01*
X70159500Y2612400D01*
X72347600Y2612400D01*
X72347600Y3850500D01*
X72652400Y3850500D01*
X72652400Y2612400D01*
X74840500Y2612400D01*
X74904000Y2675900D01*
X74904000Y3710524D01*
X74865331Y3803880D01*
X74793879Y3875331D01*
X74700524Y3914000D01*
X72715900Y3914000D01*
X72652400Y3850500D01*
X72347600Y3850500D01*
X72284100Y3914000D01*
X70299476Y3914000D01*
X70206121Y3875331D01*
X70134669Y3803880D01*
X70096000Y3710524D01*
X69190190Y3710524D01*
X69175131Y3746879D01*
X69103680Y3818331D01*
X69010324Y3857000D01*
X68870900Y3857000D01*
X68807400Y3793500D01*
X68502600Y3793500D01*
X68500352Y3795748D01*
X68609389Y4058340D01*
X68609578Y4274401D01*
X68731637Y4355958D01*
X68945008Y4398400D01*
X74754992Y4398400D01*
X74968363Y4355958D01*
X75140764Y4240764D01*
X75255958Y4068363D01*
X75298400Y3854992D01*
X75298400Y845008D01*
X75264205Y673100D01*
X51635795Y673100D01*
X51601600Y845008D01*
X51601600Y3034100D01*
X53246000Y3034100D01*
X53246000Y1699476D01*
X53284669Y1606120D01*
X53356121Y1534669D01*
X53449476Y1496000D01*
X57034100Y1496000D01*
X57097600Y1559500D01*
X57097600Y3097600D01*
X53309500Y3097600D01*
X53246000Y3034100D01*
X51601600Y3034100D01*
X51601600Y4800524D01*
X53246000Y4800524D01*
X53246000Y3465900D01*
X53309500Y3402400D01*
X57097600Y3402400D01*
X57097600Y4940500D01*
X57034100Y5004000D01*
X53449476Y5004000D01*
X53356121Y4965331D01*
X53284669Y4893880D01*
X53246000Y4800524D01*
X51601600Y4800524D01*
X51601600Y19691006D01*
X52728101Y19691006D01*
X52771823Y19289188D01*
X52841476Y19121031D01*
X52973140Y19028666D01*
X53544474Y19600000D01*
X52973140Y20171334D01*
X52841476Y20078969D01*
X52728101Y19691006D01*
X51601600Y19691006D01*
X51601600Y19954992D01*
X51644042Y20168363D01*
X51759236Y20340764D01*
X51931637Y20455958D01*
X52145008Y20498400D01*
X53266914Y20498400D01*
X53188666Y20386860D01*
X53188666Y20386860D01*
G37*
X53188666Y20386860D02*
X53760000Y19815526D01*
X54331334Y20386860D01*
X54263318Y20483815D01*
X54389969Y20458623D01*
X54551015Y20351015D01*
X54658623Y20189969D01*
X54682714Y20068854D01*
X54678524Y20078969D01*
X54546860Y20171334D01*
X53975526Y19600000D01*
X53989669Y19585857D01*
X53774143Y19370331D01*
X53760000Y19384474D01*
X53188666Y18813140D01*
X53281031Y18681476D01*
X53668994Y18568101D01*
X53843393Y18587077D01*
X52914145Y17657829D01*
X52901510Y17642433D01*
X52763859Y17436424D01*
X52748688Y17399799D01*
X52700352Y17156795D01*
X52698400Y17136974D01*
X52698400Y5835000D01*
X52700352Y5815179D01*
X52748688Y5572175D01*
X52763859Y5535550D01*
X52901510Y5329541D01*
X52929541Y5301510D01*
X53135550Y5163859D01*
X53172175Y5148688D01*
X53415179Y5100352D01*
X53435000Y5098400D01*
X60454992Y5098400D01*
X60668363Y5055958D01*
X60746124Y5004000D01*
X57465900Y5004000D01*
X57402400Y4940500D01*
X57402400Y3402400D01*
X57422400Y3402400D01*
X57422400Y3097600D01*
X57402400Y3097600D01*
X57402400Y1559500D01*
X57465900Y1496000D01*
X61043949Y1496000D01*
X61048688Y1472175D01*
X61063859Y1435550D01*
X61201510Y1229541D01*
X61229541Y1201510D01*
X61435550Y1063859D01*
X61472175Y1048688D01*
X61715179Y1000352D01*
X61735000Y998400D01*
X64298518Y998400D01*
X64540200Y949458D01*
X65149800Y949458D01*
X65375704Y991965D01*
X65385704Y998400D01*
X65568518Y998400D01*
X65810200Y949458D01*
X66419800Y949458D01*
X66645704Y991965D01*
X66655704Y998400D01*
X66838518Y998400D01*
X67080200Y949458D01*
X67689800Y949458D01*
X67915704Y991965D01*
X68123183Y1125474D01*
X68185226Y1216277D01*
X68198490Y1229541D01*
X68266195Y1330869D01*
X68299676Y1317000D01*
X68439100Y1317000D01*
X68502600Y1380500D01*
X68502600Y2434600D01*
X68807400Y2434600D01*
X68807400Y1380500D01*
X68870900Y1317000D01*
X69010324Y1317000D01*
X69103680Y1355669D01*
X69175131Y1427121D01*
X69213800Y1520476D01*
X69213800Y2244100D01*
X70096000Y2244100D01*
X70096000Y1209476D01*
X70134669Y1116120D01*
X70206121Y1044669D01*
X70299476Y1006000D01*
X72284100Y1006000D01*
X72347600Y1069500D01*
X72347600Y2307600D01*
X72652400Y2307600D01*
X72652400Y1069500D01*
X72715900Y1006000D01*
X74700524Y1006000D01*
X74793879Y1044669D01*
X74865331Y1116120D01*
X74904000Y1209476D01*
X74904000Y2244100D01*
X74840500Y2307600D01*
X72652400Y2307600D01*
X72347600Y2307600D01*
X70159500Y2307600D01*
X70096000Y2244100D01*
X69213800Y2244100D01*
X69213800Y2371100D01*
X69150300Y2434600D01*
X68807400Y2434600D01*
X68502600Y2434600D01*
X68482600Y2434600D01*
X68482600Y2739400D01*
X68502600Y2739400D01*
X68502600Y3793500D01*
X68807400Y3793500D01*
X68807400Y2739400D01*
X69150300Y2739400D01*
X69213800Y2802900D01*
X69213800Y3653524D01*
X69190190Y3710524D01*
X70096000Y3710524D01*
X70096000Y2675900D01*
X70159500Y2612400D01*
X72347600Y2612400D01*
X72347600Y3850500D01*
X72652400Y3850500D01*
X72652400Y2612400D01*
X74840500Y2612400D01*
X74904000Y2675900D01*
X74904000Y3710524D01*
X74865331Y3803880D01*
X74793879Y3875331D01*
X74700524Y3914000D01*
X72715900Y3914000D01*
X72652400Y3850500D01*
X72347600Y3850500D01*
X72284100Y3914000D01*
X70299476Y3914000D01*
X70206121Y3875331D01*
X70134669Y3803880D01*
X70096000Y3710524D01*
X69190190Y3710524D01*
X69175131Y3746879D01*
X69103680Y3818331D01*
X69010324Y3857000D01*
X68870900Y3857000D01*
X68807400Y3793500D01*
X68502600Y3793500D01*
X68500352Y3795748D01*
X68609389Y4058340D01*
X68609578Y4274401D01*
X68731637Y4355958D01*
X68945008Y4398400D01*
X74754992Y4398400D01*
X74968363Y4355958D01*
X75140764Y4240764D01*
X75255958Y4068363D01*
X75298400Y3854992D01*
X75298400Y845008D01*
X75264205Y673100D01*
X51635795Y673100D01*
X51601600Y845008D01*
X51601600Y3034100D01*
X53246000Y3034100D01*
X53246000Y1699476D01*
X53284669Y1606120D01*
X53356121Y1534669D01*
X53449476Y1496000D01*
X57034100Y1496000D01*
X57097600Y1559500D01*
X57097600Y3097600D01*
X53309500Y3097600D01*
X53246000Y3034100D01*
X51601600Y3034100D01*
X51601600Y4800524D01*
X53246000Y4800524D01*
X53246000Y3465900D01*
X53309500Y3402400D01*
X57097600Y3402400D01*
X57097600Y4940500D01*
X57034100Y5004000D01*
X53449476Y5004000D01*
X53356121Y4965331D01*
X53284669Y4893880D01*
X53246000Y4800524D01*
X51601600Y4800524D01*
X51601600Y19691006D01*
X52728101Y19691006D01*
X52771823Y19289188D01*
X52841476Y19121031D01*
X52973140Y19028666D01*
X53544474Y19600000D01*
X52973140Y20171334D01*
X52841476Y20078969D01*
X52728101Y19691006D01*
X51601600Y19691006D01*
X51601600Y19954992D01*
X51644042Y20168363D01*
X51759236Y20340764D01*
X51931637Y20455958D01*
X52145008Y20498400D01*
X53266914Y20498400D01*
X53188666Y20386860D01*
G36*
X56820914Y16384805D02*
X57200000Y16309400D01*
X57438042Y16309400D01*
X57540764Y16240764D01*
X57655958Y16068363D01*
X57698400Y15854992D01*
X57698400Y11235000D01*
X57700352Y11215179D01*
X57748688Y10972175D01*
X57763859Y10935550D01*
X57901510Y10729541D01*
X57929541Y10701510D01*
X58135550Y10563859D01*
X58172175Y10548688D01*
X58415179Y10500352D01*
X58435000Y10498400D01*
X64454992Y10498400D01*
X64668363Y10455958D01*
X64840764Y10340764D01*
X64955958Y10168363D01*
X64998400Y9954992D01*
X64998400Y8620500D01*
X64997400Y8619500D01*
X64997400Y7565400D01*
X64998400Y7565400D01*
X64998400Y7260600D01*
X64997400Y7260600D01*
X64997400Y6206500D01*
X64998400Y6205500D01*
X64998400Y5945008D01*
X64955958Y5731637D01*
X64840764Y5559236D01*
X64668363Y5444042D01*
X64454992Y5401600D01*
X63729000Y5401600D01*
X63729000Y5684100D01*
X63665500Y5747600D01*
X62902400Y5747600D01*
X62902400Y5727600D01*
X62597600Y5727600D01*
X62597600Y5747600D01*
X62577600Y5747600D01*
X62577600Y6052400D01*
X62597600Y6052400D01*
X62597600Y6665500D01*
X62902400Y6665500D01*
X62902400Y6052400D01*
X63665500Y6052400D01*
X63729000Y6115900D01*
X63729000Y6525524D01*
X63690331Y6618880D01*
X63618879Y6690331D01*
X63525524Y6729000D01*
X62965900Y6729000D01*
X62902400Y6665500D01*
X62597600Y6665500D01*
X62534100Y6729000D01*
X61974476Y6729000D01*
X61881121Y6690331D01*
X61809669Y6618880D01*
X61771000Y6525524D01*
X61771000Y6115900D01*
X61834498Y6052402D01*
X61771000Y6052402D01*
X61771000Y6037379D01*
X61740385Y6057835D01*
X61703760Y6073006D01*
X61569821Y6099648D01*
X61550000Y6101600D01*
X54045008Y6101600D01*
X53831637Y6144042D01*
X53659236Y6259236D01*
X53544042Y6431637D01*
X53531239Y6496000D01*
X57034100Y6496000D01*
X57097600Y6559500D01*
X57097600Y8097600D01*
X57402400Y8097600D01*
X57402400Y6559500D01*
X57465900Y6496000D01*
X61050524Y6496000D01*
X61143879Y6534669D01*
X61215331Y6606120D01*
X61254000Y6699476D01*
X61254000Y7197100D01*
X64286200Y7197100D01*
X64286200Y6346476D01*
X64324869Y6253121D01*
X64396320Y6181669D01*
X64489676Y6143000D01*
X64629100Y6143000D01*
X64692600Y6206500D01*
X64692600Y7260600D01*
X64349700Y7260600D01*
X64286200Y7197100D01*
X61254000Y7197100D01*
X61254000Y8034100D01*
X61190500Y8097600D01*
X57402400Y8097600D01*
X57097600Y8097600D01*
X57077600Y8097600D01*
X57077600Y8402400D01*
X57097600Y8402400D01*
X57097600Y9940500D01*
X57402400Y9940500D01*
X57402400Y8402400D01*
X61190500Y8402400D01*
X61254000Y8465900D01*
X61254000Y8479524D01*
X64286200Y8479524D01*
X64286200Y7628900D01*
X64349700Y7565400D01*
X64692600Y7565400D01*
X64692600Y8619500D01*
X64629100Y8683000D01*
X64489676Y8683000D01*
X64396320Y8644331D01*
X64324869Y8572879D01*
X64286200Y8479524D01*
X61254000Y8479524D01*
X61254000Y9800524D01*
X61215331Y9893880D01*
X61143879Y9965331D01*
X61050524Y10004000D01*
X57465900Y10004000D01*
X57402400Y9940500D01*
X57097600Y9940500D01*
X57034100Y10004000D01*
X53501600Y10004000D01*
X53501600Y12896000D01*
X54434100Y12896000D01*
X54497600Y12959500D01*
X54497600Y14597600D01*
X54802400Y14597600D01*
X54802400Y12959500D01*
X54865900Y12896000D01*
X56000524Y12896000D01*
X56093880Y12934669D01*
X56165331Y13006121D01*
X56204000Y13099476D01*
X56204000Y14534100D01*
X56140500Y14597600D01*
X54802400Y14597600D01*
X54497600Y14597600D01*
X54477600Y14597600D01*
X54477600Y14902400D01*
X54497600Y14902400D01*
X54497600Y14922400D01*
X54802400Y14922400D01*
X54802400Y14902400D01*
X56140500Y14902400D01*
X56204000Y14965900D01*
X56204000Y16398400D01*
X56800568Y16398400D01*
X56820914Y16384805D01*
X56820914Y16384805D01*
G37*
X56820914Y16384805D02*
X57200000Y16309400D01*
X57438042Y16309400D01*
X57540764Y16240764D01*
X57655958Y16068363D01*
X57698400Y15854992D01*
X57698400Y11235000D01*
X57700352Y11215179D01*
X57748688Y10972175D01*
X57763859Y10935550D01*
X57901510Y10729541D01*
X57929541Y10701510D01*
X58135550Y10563859D01*
X58172175Y10548688D01*
X58415179Y10500352D01*
X58435000Y10498400D01*
X64454992Y10498400D01*
X64668363Y10455958D01*
X64840764Y10340764D01*
X64955958Y10168363D01*
X64998400Y9954992D01*
X64998400Y8620500D01*
X64997400Y8619500D01*
X64997400Y7565400D01*
X64998400Y7565400D01*
X64998400Y7260600D01*
X64997400Y7260600D01*
X64997400Y6206500D01*
X64998400Y6205500D01*
X64998400Y5945008D01*
X64955958Y5731637D01*
X64840764Y5559236D01*
X64668363Y5444042D01*
X64454992Y5401600D01*
X63729000Y5401600D01*
X63729000Y5684100D01*
X63665500Y5747600D01*
X62902400Y5747600D01*
X62902400Y5727600D01*
X62597600Y5727600D01*
X62597600Y5747600D01*
X62577600Y5747600D01*
X62577600Y6052400D01*
X62597600Y6052400D01*
X62597600Y6665500D01*
X62902400Y6665500D01*
X62902400Y6052400D01*
X63665500Y6052400D01*
X63729000Y6115900D01*
X63729000Y6525524D01*
X63690331Y6618880D01*
X63618879Y6690331D01*
X63525524Y6729000D01*
X62965900Y6729000D01*
X62902400Y6665500D01*
X62597600Y6665500D01*
X62534100Y6729000D01*
X61974476Y6729000D01*
X61881121Y6690331D01*
X61809669Y6618880D01*
X61771000Y6525524D01*
X61771000Y6115900D01*
X61834498Y6052402D01*
X61771000Y6052402D01*
X61771000Y6037379D01*
X61740385Y6057835D01*
X61703760Y6073006D01*
X61569821Y6099648D01*
X61550000Y6101600D01*
X54045008Y6101600D01*
X53831637Y6144042D01*
X53659236Y6259236D01*
X53544042Y6431637D01*
X53531239Y6496000D01*
X57034100Y6496000D01*
X57097600Y6559500D01*
X57097600Y8097600D01*
X57402400Y8097600D01*
X57402400Y6559500D01*
X57465900Y6496000D01*
X61050524Y6496000D01*
X61143879Y6534669D01*
X61215331Y6606120D01*
X61254000Y6699476D01*
X61254000Y7197100D01*
X64286200Y7197100D01*
X64286200Y6346476D01*
X64324869Y6253121D01*
X64396320Y6181669D01*
X64489676Y6143000D01*
X64629100Y6143000D01*
X64692600Y6206500D01*
X64692600Y7260600D01*
X64349700Y7260600D01*
X64286200Y7197100D01*
X61254000Y7197100D01*
X61254000Y8034100D01*
X61190500Y8097600D01*
X57402400Y8097600D01*
X57097600Y8097600D01*
X57077600Y8097600D01*
X57077600Y8402400D01*
X57097600Y8402400D01*
X57097600Y9940500D01*
X57402400Y9940500D01*
X57402400Y8402400D01*
X61190500Y8402400D01*
X61254000Y8465900D01*
X61254000Y8479524D01*
X64286200Y8479524D01*
X64286200Y7628900D01*
X64349700Y7565400D01*
X64692600Y7565400D01*
X64692600Y8619500D01*
X64629100Y8683000D01*
X64489676Y8683000D01*
X64396320Y8644331D01*
X64324869Y8572879D01*
X64286200Y8479524D01*
X61254000Y8479524D01*
X61254000Y9800524D01*
X61215331Y9893880D01*
X61143879Y9965331D01*
X61050524Y10004000D01*
X57465900Y10004000D01*
X57402400Y9940500D01*
X57097600Y9940500D01*
X57034100Y10004000D01*
X53501600Y10004000D01*
X53501600Y12896000D01*
X54434100Y12896000D01*
X54497600Y12959500D01*
X54497600Y14597600D01*
X54802400Y14597600D01*
X54802400Y12959500D01*
X54865900Y12896000D01*
X56000524Y12896000D01*
X56093880Y12934669D01*
X56165331Y13006121D01*
X56204000Y13099476D01*
X56204000Y14534100D01*
X56140500Y14597600D01*
X54802400Y14597600D01*
X54497600Y14597600D01*
X54477600Y14597600D01*
X54477600Y14902400D01*
X54497600Y14902400D01*
X54497600Y14922400D01*
X54802400Y14922400D01*
X54802400Y14902400D01*
X56140500Y14902400D01*
X56204000Y14965900D01*
X56204000Y16398400D01*
X56800568Y16398400D01*
X56820914Y16384805D01*
G36*
X76998400Y18800680D02*
X76998400Y5945008D01*
X76955958Y5731637D01*
X76840764Y5559236D01*
X76668363Y5444042D01*
X76454992Y5401600D01*
X68204662Y5401600D01*
X68269181Y5648058D01*
X68248839Y5795984D01*
X68350200Y5775458D01*
X68959800Y5775458D01*
X69185704Y5817965D01*
X69393183Y5951474D01*
X69532373Y6155185D01*
X69581342Y6397000D01*
X69581342Y7324100D01*
X70096000Y7324100D01*
X70096000Y6289476D01*
X70134669Y6196120D01*
X70206121Y6124669D01*
X70299476Y6086000D01*
X72284100Y6086000D01*
X72347600Y6149500D01*
X72347600Y7387600D01*
X72652400Y7387600D01*
X72652400Y6149500D01*
X72715900Y6086000D01*
X74700524Y6086000D01*
X74793879Y6124669D01*
X74865331Y6196120D01*
X74904000Y6289476D01*
X74904000Y7324100D01*
X74840500Y7387600D01*
X72652400Y7387600D01*
X72347600Y7387600D01*
X70159500Y7387600D01*
X70096000Y7324100D01*
X69581342Y7324100D01*
X69581342Y8429000D01*
X69563822Y8522112D01*
X69832234Y8790524D01*
X70096000Y8790524D01*
X70096000Y7755900D01*
X70159500Y7692400D01*
X72347600Y7692400D01*
X72347600Y8930500D01*
X72652400Y8930500D01*
X72652400Y7692400D01*
X74840500Y7692400D01*
X74904000Y7755900D01*
X74904000Y8790524D01*
X74865331Y8883880D01*
X74793879Y8955331D01*
X74700524Y8994000D01*
X72715900Y8994000D01*
X72652400Y8930500D01*
X72347600Y8930500D01*
X72284100Y8994000D01*
X70299476Y8994000D01*
X70206121Y8955331D01*
X70134669Y8883880D01*
X70096000Y8790524D01*
X69832234Y8790524D01*
X69945168Y8903458D01*
X69950000Y8903458D01*
X70175904Y8945965D01*
X70383383Y9079474D01*
X70522573Y9283185D01*
X70532398Y9331703D01*
X70997230Y9331703D01*
X71069391Y9216859D01*
X71398058Y9130819D01*
X71734633Y9177104D01*
X71830609Y9216859D01*
X71902770Y9331703D01*
X72397230Y9331703D01*
X72469391Y9216859D01*
X72798058Y9130819D01*
X73134633Y9177104D01*
X73230609Y9216859D01*
X73302770Y9331703D01*
X73797230Y9331703D01*
X73869391Y9216859D01*
X74198058Y9130819D01*
X74534633Y9177104D01*
X74630609Y9216859D01*
X74702770Y9331703D01*
X74250000Y9784474D01*
X73797230Y9331703D01*
X73302770Y9331703D01*
X72850000Y9784474D01*
X72397230Y9331703D01*
X71902770Y9331703D01*
X71450000Y9784474D01*
X70997230Y9331703D01*
X70532398Y9331703D01*
X70571542Y9525000D01*
X70571542Y10051942D01*
X70580819Y10051942D01*
X70627104Y9715367D01*
X70666859Y9619391D01*
X70781703Y9547230D01*
X71234474Y10000000D01*
X71665526Y10000000D01*
X72118297Y9547230D01*
X72150000Y9567150D01*
X72181703Y9547230D01*
X72634474Y10000000D01*
X73065526Y10000000D01*
X73518297Y9547230D01*
X73550000Y9567150D01*
X73581703Y9547230D01*
X74034474Y10000000D01*
X74465526Y10000000D01*
X74918297Y9547230D01*
X75033141Y9619391D01*
X75119181Y9948058D01*
X75072896Y10284633D01*
X75033141Y10380609D01*
X74918297Y10452770D01*
X74465526Y10000000D01*
X74034474Y10000000D01*
X73581703Y10452770D01*
X73550000Y10432850D01*
X73518297Y10452770D01*
X73065526Y10000000D01*
X72634474Y10000000D01*
X72181703Y10452770D01*
X72150000Y10432850D01*
X72118297Y10452770D01*
X71665526Y10000000D01*
X71234474Y10000000D01*
X70781703Y10452770D01*
X70666859Y10380609D01*
X70580819Y10051942D01*
X70571542Y10051942D01*
X70571542Y10668297D01*
X70997230Y10668297D01*
X71450000Y10215526D01*
X71902770Y10668297D01*
X72397230Y10668297D01*
X72850000Y10215526D01*
X73302770Y10668297D01*
X73797230Y10668297D01*
X74250000Y10215526D01*
X74702770Y10668297D01*
X74630609Y10783141D01*
X74301942Y10869181D01*
X73965367Y10822896D01*
X73869391Y10783141D01*
X73797230Y10668297D01*
X73302770Y10668297D01*
X73230609Y10783141D01*
X72901942Y10869181D01*
X72565367Y10822896D01*
X72469391Y10783141D01*
X72397230Y10668297D01*
X71902770Y10668297D01*
X71830609Y10783141D01*
X71501942Y10869181D01*
X71165367Y10822896D01*
X71069391Y10783141D01*
X70997230Y10668297D01*
X70571542Y10668297D01*
X70571542Y10975000D01*
X70529035Y11200904D01*
X70395526Y11408383D01*
X70191815Y11547573D01*
X69950000Y11596542D01*
X68950000Y11596542D01*
X68724096Y11554035D01*
X68516617Y11420526D01*
X68377427Y11216815D01*
X68328458Y10975000D01*
X68328458Y9525000D01*
X68352978Y9394688D01*
X68134145Y9175855D01*
X67974470Y8936885D01*
X67968708Y8907917D01*
X67916817Y8874526D01*
X67777627Y8670815D01*
X67777017Y8667801D01*
X67740324Y8683000D01*
X67600900Y8683000D01*
X67537400Y8619500D01*
X67537400Y7565400D01*
X67557400Y7565400D01*
X67557400Y7260600D01*
X67537400Y7260600D01*
X67537400Y7240600D01*
X67232600Y7240600D01*
X67232600Y7260600D01*
X67212600Y7260600D01*
X67212600Y7565400D01*
X67232600Y7565400D01*
X67232600Y8619500D01*
X67169100Y8683000D01*
X67105600Y8683000D01*
X67105600Y9271000D01*
X67334100Y9271000D01*
X67397600Y9334500D01*
X67397600Y10097600D01*
X67702400Y10097600D01*
X67702400Y9334500D01*
X67765900Y9271000D01*
X68100524Y9271000D01*
X68193880Y9309669D01*
X68265331Y9381121D01*
X68304000Y9474476D01*
X68304000Y10034100D01*
X68240500Y10097600D01*
X67702400Y10097600D01*
X67397600Y10097600D01*
X67377600Y10097600D01*
X67377600Y10402400D01*
X67397600Y10402400D01*
X67397600Y10422400D01*
X67702400Y10422400D01*
X67702400Y10402400D01*
X68240500Y10402400D01*
X68304000Y10465900D01*
X68304000Y11025524D01*
X68265331Y11118879D01*
X68193880Y11190331D01*
X68100524Y11229000D01*
X67955473Y11229000D01*
X67600000Y11584474D01*
X67585858Y11570331D01*
X67370331Y11785858D01*
X67384474Y11800000D01*
X67370331Y11814142D01*
X67585858Y12029669D01*
X67600000Y12015526D01*
X67614142Y12029669D01*
X67829669Y11814142D01*
X67815526Y11800000D01*
X68268297Y11347230D01*
X68383141Y11419391D01*
X68458344Y11706662D01*
X68748058Y11630819D01*
X69084633Y11677104D01*
X69180609Y11716859D01*
X69252770Y11831703D01*
X68800000Y12284474D01*
X68785858Y12270331D01*
X68570332Y12485857D01*
X68584474Y12500000D01*
X69015526Y12500000D01*
X69468297Y12047230D01*
X69583141Y12119391D01*
X69669181Y12448058D01*
X69650803Y12581703D01*
X70997230Y12581703D01*
X71069391Y12466859D01*
X71398058Y12380819D01*
X71734633Y12427104D01*
X71830609Y12466859D01*
X71902770Y12581703D01*
X72397230Y12581703D01*
X72469391Y12466859D01*
X72798058Y12380819D01*
X73134633Y12427104D01*
X73230609Y12466859D01*
X73302770Y12581703D01*
X73797230Y12581703D01*
X73869391Y12466859D01*
X74198058Y12380819D01*
X74534633Y12427104D01*
X74630609Y12466859D01*
X74702770Y12581703D01*
X74250000Y13034474D01*
X73797230Y12581703D01*
X73302770Y12581703D01*
X72850000Y13034474D01*
X72397230Y12581703D01*
X71902770Y12581703D01*
X71450000Y13034474D01*
X70997230Y12581703D01*
X69650803Y12581703D01*
X69622896Y12784633D01*
X69583141Y12880609D01*
X69468297Y12952770D01*
X69015526Y12500000D01*
X68584474Y12500000D01*
X68570332Y12514142D01*
X68785858Y12729669D01*
X68800000Y12715526D01*
X69252770Y13168297D01*
X69180609Y13283141D01*
X69108791Y13301942D01*
X70580819Y13301942D01*
X70627104Y12965367D01*
X70666859Y12869391D01*
X70781703Y12797230D01*
X71234474Y13250000D01*
X71665526Y13250000D01*
X72118297Y12797230D01*
X72150000Y12817150D01*
X72181703Y12797230D01*
X72634474Y13250000D01*
X73065526Y13250000D01*
X73518297Y12797230D01*
X73550000Y12817150D01*
X73581703Y12797230D01*
X74034474Y13250000D01*
X74465526Y13250000D01*
X74918297Y12797230D01*
X75033141Y12869391D01*
X75119181Y13198058D01*
X75072896Y13534633D01*
X75033141Y13630609D01*
X74918297Y13702770D01*
X74465526Y13250000D01*
X74034474Y13250000D01*
X73581703Y13702770D01*
X73550000Y13682850D01*
X73518297Y13702770D01*
X73065526Y13250000D01*
X72634474Y13250000D01*
X72181703Y13702770D01*
X72150000Y13682850D01*
X72118297Y13702770D01*
X71665526Y13250000D01*
X71234474Y13250000D01*
X70781703Y13702770D01*
X70666859Y13630609D01*
X70580819Y13301942D01*
X69108791Y13301942D01*
X68851942Y13369181D01*
X68515367Y13322896D01*
X68448923Y13295373D01*
X68422896Y13484633D01*
X68383141Y13580609D01*
X68268297Y13652770D01*
X67815526Y13200000D01*
X67829669Y13185857D01*
X67614142Y12970331D01*
X67600000Y12984474D01*
X67585858Y12970331D01*
X67370331Y13185858D01*
X67384474Y13200000D01*
X67370331Y13214142D01*
X67585858Y13429669D01*
X67600000Y13415526D01*
X68052770Y13868297D01*
X68041481Y13886263D01*
X68211724Y13918297D01*
X70997230Y13918297D01*
X71450000Y13465526D01*
X71902770Y13918297D01*
X72397230Y13918297D01*
X72850000Y13465526D01*
X73302770Y13918297D01*
X73797230Y13918297D01*
X74250000Y13465526D01*
X74702770Y13918297D01*
X74630609Y14033141D01*
X74301942Y14119181D01*
X73965367Y14072896D01*
X73869391Y14033141D01*
X73797230Y13918297D01*
X73302770Y13918297D01*
X73230609Y14033141D01*
X72901942Y14119181D01*
X72565367Y14072896D01*
X72469391Y14033141D01*
X72397230Y13918297D01*
X71902770Y13918297D01*
X71830609Y14033141D01*
X71501942Y14119181D01*
X71165367Y14072896D01*
X71069391Y14033141D01*
X70997230Y13918297D01*
X68211724Y13918297D01*
X68225904Y13920965D01*
X68433383Y14054474D01*
X68572573Y14258185D01*
X68621542Y14500000D01*
X68621542Y15534100D01*
X70746000Y15534100D01*
X70746000Y14449476D01*
X70784669Y14356120D01*
X70856121Y14284669D01*
X70949476Y14246000D01*
X72534100Y14246000D01*
X72597600Y14309500D01*
X72597600Y15597600D01*
X72902400Y15597600D01*
X72902400Y14309500D01*
X72965900Y14246000D01*
X74550524Y14246000D01*
X74643879Y14284669D01*
X74715331Y14356120D01*
X74754000Y14449476D01*
X74754000Y15534100D01*
X74690500Y15597600D01*
X72902400Y15597600D01*
X72597600Y15597600D01*
X70809500Y15597600D01*
X70746000Y15534100D01*
X68621542Y15534100D01*
X68621542Y17000000D01*
X68612036Y17050524D01*
X70746000Y17050524D01*
X70746000Y15965900D01*
X70809500Y15902400D01*
X72597600Y15902400D01*
X72597600Y17190500D01*
X72902400Y17190500D01*
X72902400Y15902400D01*
X74690500Y15902400D01*
X74754000Y15965900D01*
X74754000Y17050524D01*
X74715331Y17143880D01*
X74643879Y17215331D01*
X74550524Y17254000D01*
X72965900Y17254000D01*
X72902400Y17190500D01*
X72597600Y17190500D01*
X72534100Y17254000D01*
X70949476Y17254000D01*
X70856121Y17215331D01*
X70784669Y17143880D01*
X70746000Y17050524D01*
X68612036Y17050524D01*
X68579035Y17225904D01*
X68445526Y17433383D01*
X68241815Y17572573D01*
X68000000Y17621542D01*
X67240600Y17621542D01*
X67240600Y18809400D01*
X76989680Y18809400D01*
X76998400Y18800680D01*
X76998400Y18800680D01*
G37*
X76998400Y18800680D02*
X76998400Y5945008D01*
X76955958Y5731637D01*
X76840764Y5559236D01*
X76668363Y5444042D01*
X76454992Y5401600D01*
X68204662Y5401600D01*
X68269181Y5648058D01*
X68248839Y5795984D01*
X68350200Y5775458D01*
X68959800Y5775458D01*
X69185704Y5817965D01*
X69393183Y5951474D01*
X69532373Y6155185D01*
X69581342Y6397000D01*
X69581342Y7324100D01*
X70096000Y7324100D01*
X70096000Y6289476D01*
X70134669Y6196120D01*
X70206121Y6124669D01*
X70299476Y6086000D01*
X72284100Y6086000D01*
X72347600Y6149500D01*
X72347600Y7387600D01*
X72652400Y7387600D01*
X72652400Y6149500D01*
X72715900Y6086000D01*
X74700524Y6086000D01*
X74793879Y6124669D01*
X74865331Y6196120D01*
X74904000Y6289476D01*
X74904000Y7324100D01*
X74840500Y7387600D01*
X72652400Y7387600D01*
X72347600Y7387600D01*
X70159500Y7387600D01*
X70096000Y7324100D01*
X69581342Y7324100D01*
X69581342Y8429000D01*
X69563822Y8522112D01*
X69832234Y8790524D01*
X70096000Y8790524D01*
X70096000Y7755900D01*
X70159500Y7692400D01*
X72347600Y7692400D01*
X72347600Y8930500D01*
X72652400Y8930500D01*
X72652400Y7692400D01*
X74840500Y7692400D01*
X74904000Y7755900D01*
X74904000Y8790524D01*
X74865331Y8883880D01*
X74793879Y8955331D01*
X74700524Y8994000D01*
X72715900Y8994000D01*
X72652400Y8930500D01*
X72347600Y8930500D01*
X72284100Y8994000D01*
X70299476Y8994000D01*
X70206121Y8955331D01*
X70134669Y8883880D01*
X70096000Y8790524D01*
X69832234Y8790524D01*
X69945168Y8903458D01*
X69950000Y8903458D01*
X70175904Y8945965D01*
X70383383Y9079474D01*
X70522573Y9283185D01*
X70532398Y9331703D01*
X70997230Y9331703D01*
X71069391Y9216859D01*
X71398058Y9130819D01*
X71734633Y9177104D01*
X71830609Y9216859D01*
X71902770Y9331703D01*
X72397230Y9331703D01*
X72469391Y9216859D01*
X72798058Y9130819D01*
X73134633Y9177104D01*
X73230609Y9216859D01*
X73302770Y9331703D01*
X73797230Y9331703D01*
X73869391Y9216859D01*
X74198058Y9130819D01*
X74534633Y9177104D01*
X74630609Y9216859D01*
X74702770Y9331703D01*
X74250000Y9784474D01*
X73797230Y9331703D01*
X73302770Y9331703D01*
X72850000Y9784474D01*
X72397230Y9331703D01*
X71902770Y9331703D01*
X71450000Y9784474D01*
X70997230Y9331703D01*
X70532398Y9331703D01*
X70571542Y9525000D01*
X70571542Y10051942D01*
X70580819Y10051942D01*
X70627104Y9715367D01*
X70666859Y9619391D01*
X70781703Y9547230D01*
X71234474Y10000000D01*
X71665526Y10000000D01*
X72118297Y9547230D01*
X72150000Y9567150D01*
X72181703Y9547230D01*
X72634474Y10000000D01*
X73065526Y10000000D01*
X73518297Y9547230D01*
X73550000Y9567150D01*
X73581703Y9547230D01*
X74034474Y10000000D01*
X74465526Y10000000D01*
X74918297Y9547230D01*
X75033141Y9619391D01*
X75119181Y9948058D01*
X75072896Y10284633D01*
X75033141Y10380609D01*
X74918297Y10452770D01*
X74465526Y10000000D01*
X74034474Y10000000D01*
X73581703Y10452770D01*
X73550000Y10432850D01*
X73518297Y10452770D01*
X73065526Y10000000D01*
X72634474Y10000000D01*
X72181703Y10452770D01*
X72150000Y10432850D01*
X72118297Y10452770D01*
X71665526Y10000000D01*
X71234474Y10000000D01*
X70781703Y10452770D01*
X70666859Y10380609D01*
X70580819Y10051942D01*
X70571542Y10051942D01*
X70571542Y10668297D01*
X70997230Y10668297D01*
X71450000Y10215526D01*
X71902770Y10668297D01*
X72397230Y10668297D01*
X72850000Y10215526D01*
X73302770Y10668297D01*
X73797230Y10668297D01*
X74250000Y10215526D01*
X74702770Y10668297D01*
X74630609Y10783141D01*
X74301942Y10869181D01*
X73965367Y10822896D01*
X73869391Y10783141D01*
X73797230Y10668297D01*
X73302770Y10668297D01*
X73230609Y10783141D01*
X72901942Y10869181D01*
X72565367Y10822896D01*
X72469391Y10783141D01*
X72397230Y10668297D01*
X71902770Y10668297D01*
X71830609Y10783141D01*
X71501942Y10869181D01*
X71165367Y10822896D01*
X71069391Y10783141D01*
X70997230Y10668297D01*
X70571542Y10668297D01*
X70571542Y10975000D01*
X70529035Y11200904D01*
X70395526Y11408383D01*
X70191815Y11547573D01*
X69950000Y11596542D01*
X68950000Y11596542D01*
X68724096Y11554035D01*
X68516617Y11420526D01*
X68377427Y11216815D01*
X68328458Y10975000D01*
X68328458Y9525000D01*
X68352978Y9394688D01*
X68134145Y9175855D01*
X67974470Y8936885D01*
X67968708Y8907917D01*
X67916817Y8874526D01*
X67777627Y8670815D01*
X67777017Y8667801D01*
X67740324Y8683000D01*
X67600900Y8683000D01*
X67537400Y8619500D01*
X67537400Y7565400D01*
X67557400Y7565400D01*
X67557400Y7260600D01*
X67537400Y7260600D01*
X67537400Y7240600D01*
X67232600Y7240600D01*
X67232600Y7260600D01*
X67212600Y7260600D01*
X67212600Y7565400D01*
X67232600Y7565400D01*
X67232600Y8619500D01*
X67169100Y8683000D01*
X67105600Y8683000D01*
X67105600Y9271000D01*
X67334100Y9271000D01*
X67397600Y9334500D01*
X67397600Y10097600D01*
X67702400Y10097600D01*
X67702400Y9334500D01*
X67765900Y9271000D01*
X68100524Y9271000D01*
X68193880Y9309669D01*
X68265331Y9381121D01*
X68304000Y9474476D01*
X68304000Y10034100D01*
X68240500Y10097600D01*
X67702400Y10097600D01*
X67397600Y10097600D01*
X67377600Y10097600D01*
X67377600Y10402400D01*
X67397600Y10402400D01*
X67397600Y10422400D01*
X67702400Y10422400D01*
X67702400Y10402400D01*
X68240500Y10402400D01*
X68304000Y10465900D01*
X68304000Y11025524D01*
X68265331Y11118879D01*
X68193880Y11190331D01*
X68100524Y11229000D01*
X67955473Y11229000D01*
X67600000Y11584474D01*
X67585858Y11570331D01*
X67370331Y11785858D01*
X67384474Y11800000D01*
X67370331Y11814142D01*
X67585858Y12029669D01*
X67600000Y12015526D01*
X67614142Y12029669D01*
X67829669Y11814142D01*
X67815526Y11800000D01*
X68268297Y11347230D01*
X68383141Y11419391D01*
X68458344Y11706662D01*
X68748058Y11630819D01*
X69084633Y11677104D01*
X69180609Y11716859D01*
X69252770Y11831703D01*
X68800000Y12284474D01*
X68785858Y12270331D01*
X68570332Y12485857D01*
X68584474Y12500000D01*
X69015526Y12500000D01*
X69468297Y12047230D01*
X69583141Y12119391D01*
X69669181Y12448058D01*
X69650803Y12581703D01*
X70997230Y12581703D01*
X71069391Y12466859D01*
X71398058Y12380819D01*
X71734633Y12427104D01*
X71830609Y12466859D01*
X71902770Y12581703D01*
X72397230Y12581703D01*
X72469391Y12466859D01*
X72798058Y12380819D01*
X73134633Y12427104D01*
X73230609Y12466859D01*
X73302770Y12581703D01*
X73797230Y12581703D01*
X73869391Y12466859D01*
X74198058Y12380819D01*
X74534633Y12427104D01*
X74630609Y12466859D01*
X74702770Y12581703D01*
X74250000Y13034474D01*
X73797230Y12581703D01*
X73302770Y12581703D01*
X72850000Y13034474D01*
X72397230Y12581703D01*
X71902770Y12581703D01*
X71450000Y13034474D01*
X70997230Y12581703D01*
X69650803Y12581703D01*
X69622896Y12784633D01*
X69583141Y12880609D01*
X69468297Y12952770D01*
X69015526Y12500000D01*
X68584474Y12500000D01*
X68570332Y12514142D01*
X68785858Y12729669D01*
X68800000Y12715526D01*
X69252770Y13168297D01*
X69180609Y13283141D01*
X69108791Y13301942D01*
X70580819Y13301942D01*
X70627104Y12965367D01*
X70666859Y12869391D01*
X70781703Y12797230D01*
X71234474Y13250000D01*
X71665526Y13250000D01*
X72118297Y12797230D01*
X72150000Y12817150D01*
X72181703Y12797230D01*
X72634474Y13250000D01*
X73065526Y13250000D01*
X73518297Y12797230D01*
X73550000Y12817150D01*
X73581703Y12797230D01*
X74034474Y13250000D01*
X74465526Y13250000D01*
X74918297Y12797230D01*
X75033141Y12869391D01*
X75119181Y13198058D01*
X75072896Y13534633D01*
X75033141Y13630609D01*
X74918297Y13702770D01*
X74465526Y13250000D01*
X74034474Y13250000D01*
X73581703Y13702770D01*
X73550000Y13682850D01*
X73518297Y13702770D01*
X73065526Y13250000D01*
X72634474Y13250000D01*
X72181703Y13702770D01*
X72150000Y13682850D01*
X72118297Y13702770D01*
X71665526Y13250000D01*
X71234474Y13250000D01*
X70781703Y13702770D01*
X70666859Y13630609D01*
X70580819Y13301942D01*
X69108791Y13301942D01*
X68851942Y13369181D01*
X68515367Y13322896D01*
X68448923Y13295373D01*
X68422896Y13484633D01*
X68383141Y13580609D01*
X68268297Y13652770D01*
X67815526Y13200000D01*
X67829669Y13185857D01*
X67614142Y12970331D01*
X67600000Y12984474D01*
X67585858Y12970331D01*
X67370331Y13185858D01*
X67384474Y13200000D01*
X67370331Y13214142D01*
X67585858Y13429669D01*
X67600000Y13415526D01*
X68052770Y13868297D01*
X68041481Y13886263D01*
X68211724Y13918297D01*
X70997230Y13918297D01*
X71450000Y13465526D01*
X71902770Y13918297D01*
X72397230Y13918297D01*
X72850000Y13465526D01*
X73302770Y13918297D01*
X73797230Y13918297D01*
X74250000Y13465526D01*
X74702770Y13918297D01*
X74630609Y14033141D01*
X74301942Y14119181D01*
X73965367Y14072896D01*
X73869391Y14033141D01*
X73797230Y13918297D01*
X73302770Y13918297D01*
X73230609Y14033141D01*
X72901942Y14119181D01*
X72565367Y14072896D01*
X72469391Y14033141D01*
X72397230Y13918297D01*
X71902770Y13918297D01*
X71830609Y14033141D01*
X71501942Y14119181D01*
X71165367Y14072896D01*
X71069391Y14033141D01*
X70997230Y13918297D01*
X68211724Y13918297D01*
X68225904Y13920965D01*
X68433383Y14054474D01*
X68572573Y14258185D01*
X68621542Y14500000D01*
X68621542Y15534100D01*
X70746000Y15534100D01*
X70746000Y14449476D01*
X70784669Y14356120D01*
X70856121Y14284669D01*
X70949476Y14246000D01*
X72534100Y14246000D01*
X72597600Y14309500D01*
X72597600Y15597600D01*
X72902400Y15597600D01*
X72902400Y14309500D01*
X72965900Y14246000D01*
X74550524Y14246000D01*
X74643879Y14284669D01*
X74715331Y14356120D01*
X74754000Y14449476D01*
X74754000Y15534100D01*
X74690500Y15597600D01*
X72902400Y15597600D01*
X72597600Y15597600D01*
X70809500Y15597600D01*
X70746000Y15534100D01*
X68621542Y15534100D01*
X68621542Y17000000D01*
X68612036Y17050524D01*
X70746000Y17050524D01*
X70746000Y15965900D01*
X70809500Y15902400D01*
X72597600Y15902400D01*
X72597600Y17190500D01*
X72902400Y17190500D01*
X72902400Y15902400D01*
X74690500Y15902400D01*
X74754000Y15965900D01*
X74754000Y17050524D01*
X74715331Y17143880D01*
X74643879Y17215331D01*
X74550524Y17254000D01*
X72965900Y17254000D01*
X72902400Y17190500D01*
X72597600Y17190500D01*
X72534100Y17254000D01*
X70949476Y17254000D01*
X70856121Y17215331D01*
X70784669Y17143880D01*
X70746000Y17050524D01*
X68612036Y17050524D01*
X68579035Y17225904D01*
X68445526Y17433383D01*
X68241815Y17572573D01*
X68000000Y17621542D01*
X67240600Y17621542D01*
X67240600Y18809400D01*
X76989680Y18809400D01*
X76998400Y18800680D01*
G36*
X67629669Y5714142D02*
X67615526Y5700000D01*
X67629669Y5685858D01*
X67414143Y5470331D01*
X67400000Y5484474D01*
X67385858Y5470331D01*
X67170332Y5685857D01*
X67184474Y5700000D01*
X67170331Y5714142D01*
X67385858Y5929668D01*
X67400000Y5915526D01*
X67414142Y5929669D01*
X67629669Y5714142D01*
X67629669Y5714142D01*
G37*
X67629669Y5714142D02*
X67615526Y5700000D01*
X67629669Y5685858D01*
X67414143Y5470331D01*
X67400000Y5484474D01*
X67385858Y5470331D01*
X67170332Y5685857D01*
X67184474Y5700000D01*
X67170331Y5714142D01*
X67385858Y5929668D01*
X67400000Y5915526D01*
X67414142Y5929669D01*
X67629669Y5714142D01*
G36*
X64499540Y19099540D02*
X64820914Y18884805D01*
X65200000Y18809400D01*
X65259400Y18809400D01*
X65259400Y17621542D01*
X64500000Y17621542D01*
X64274096Y17579035D01*
X64066617Y17445526D01*
X64046146Y17415565D01*
X64022896Y17584633D01*
X63983141Y17680609D01*
X63868297Y17752770D01*
X63415526Y17300000D01*
X63868297Y16847230D01*
X63878458Y16853615D01*
X63878458Y14500000D01*
X63920965Y14274096D01*
X64054474Y14066617D01*
X64258185Y13927427D01*
X64500000Y13878458D01*
X65124400Y13878458D01*
X65124400Y11301600D01*
X60445008Y11301600D01*
X60231637Y11344042D01*
X60059236Y11459236D01*
X59944042Y11631637D01*
X59901600Y11845008D01*
X59901600Y14534100D01*
X60296000Y14534100D01*
X60296000Y13099476D01*
X60334669Y13006121D01*
X60406120Y12934669D01*
X60499476Y12896000D01*
X61634100Y12896000D01*
X61697600Y12959500D01*
X61697600Y14597600D01*
X62002400Y14597600D01*
X62002400Y12959500D01*
X62065900Y12896000D01*
X63200524Y12896000D01*
X63293880Y12934669D01*
X63365331Y13006121D01*
X63404000Y13099476D01*
X63404000Y14534100D01*
X63340500Y14597600D01*
X62002400Y14597600D01*
X61697600Y14597600D01*
X60359500Y14597600D01*
X60296000Y14534100D01*
X59901600Y14534100D01*
X59901600Y16586071D01*
X59947231Y16631702D01*
X60019391Y16516859D01*
X60312414Y16440150D01*
X60296000Y16400524D01*
X60296000Y14965900D01*
X60359500Y14902400D01*
X61697600Y14902400D01*
X61697600Y14922400D01*
X62002400Y14922400D01*
X62002400Y14902400D01*
X63340500Y14902400D01*
X63404000Y14965900D01*
X63404000Y16400524D01*
X63378334Y16462486D01*
X63484633Y16477104D01*
X63580609Y16516859D01*
X63652770Y16631703D01*
X63200000Y17084474D01*
X62747230Y16631703D01*
X62764637Y16604000D01*
X62235363Y16604000D01*
X62252770Y16631703D01*
X61800000Y17084474D01*
X61347230Y16631703D01*
X61364637Y16604000D01*
X60835363Y16604000D01*
X60852770Y16631703D01*
X60400000Y17084474D01*
X60385858Y17070331D01*
X60170331Y17285858D01*
X60184474Y17300000D01*
X60615526Y17300000D01*
X61068297Y16847230D01*
X61100000Y16867150D01*
X61131703Y16847230D01*
X61584474Y17300000D01*
X62015526Y17300000D01*
X62468297Y16847230D01*
X62500000Y16867150D01*
X62531703Y16847230D01*
X62984474Y17300000D01*
X62531703Y17752770D01*
X62500000Y17732850D01*
X62468297Y17752770D01*
X62015526Y17300000D01*
X61584474Y17300000D01*
X61131703Y17752770D01*
X61100000Y17732850D01*
X61068297Y17752770D01*
X60615526Y17300000D01*
X60184474Y17300000D01*
X60170331Y17314142D01*
X60385858Y17529669D01*
X60400000Y17515526D01*
X60852770Y17968297D01*
X61347230Y17968297D01*
X61800000Y17515526D01*
X62252770Y17968297D01*
X62747230Y17968297D01*
X63200000Y17515526D01*
X63652770Y17968297D01*
X63580609Y18083141D01*
X63251942Y18169181D01*
X62915367Y18122896D01*
X62819391Y18083141D01*
X62747230Y17968297D01*
X62252770Y17968297D01*
X62180609Y18083141D01*
X61851942Y18169181D01*
X61515367Y18122896D01*
X61419391Y18083141D01*
X61347230Y17968297D01*
X60852770Y17968297D01*
X60780609Y18083141D01*
X60451942Y18169181D01*
X60115367Y18122896D01*
X60019391Y18083141D01*
X59947231Y17968298D01*
X59901600Y18013929D01*
X59901600Y18721704D01*
X60002108Y18822037D01*
X60211361Y19325975D01*
X60211837Y19871631D01*
X60059298Y20240805D01*
X60231637Y20355958D01*
X60445008Y20398400D01*
X63200680Y20398400D01*
X64499540Y19099540D01*
X64499540Y19099540D01*
G37*
X64499540Y19099540D02*
X64820914Y18884805D01*
X65200000Y18809400D01*
X65259400Y18809400D01*
X65259400Y17621542D01*
X64500000Y17621542D01*
X64274096Y17579035D01*
X64066617Y17445526D01*
X64046146Y17415565D01*
X64022896Y17584633D01*
X63983141Y17680609D01*
X63868297Y17752770D01*
X63415526Y17300000D01*
X63868297Y16847230D01*
X63878458Y16853615D01*
X63878458Y14500000D01*
X63920965Y14274096D01*
X64054474Y14066617D01*
X64258185Y13927427D01*
X64500000Y13878458D01*
X65124400Y13878458D01*
X65124400Y11301600D01*
X60445008Y11301600D01*
X60231637Y11344042D01*
X60059236Y11459236D01*
X59944042Y11631637D01*
X59901600Y11845008D01*
X59901600Y14534100D01*
X60296000Y14534100D01*
X60296000Y13099476D01*
X60334669Y13006121D01*
X60406120Y12934669D01*
X60499476Y12896000D01*
X61634100Y12896000D01*
X61697600Y12959500D01*
X61697600Y14597600D01*
X62002400Y14597600D01*
X62002400Y12959500D01*
X62065900Y12896000D01*
X63200524Y12896000D01*
X63293880Y12934669D01*
X63365331Y13006121D01*
X63404000Y13099476D01*
X63404000Y14534100D01*
X63340500Y14597600D01*
X62002400Y14597600D01*
X61697600Y14597600D01*
X60359500Y14597600D01*
X60296000Y14534100D01*
X59901600Y14534100D01*
X59901600Y16586071D01*
X59947231Y16631702D01*
X60019391Y16516859D01*
X60312414Y16440150D01*
X60296000Y16400524D01*
X60296000Y14965900D01*
X60359500Y14902400D01*
X61697600Y14902400D01*
X61697600Y14922400D01*
X62002400Y14922400D01*
X62002400Y14902400D01*
X63340500Y14902400D01*
X63404000Y14965900D01*
X63404000Y16400524D01*
X63378334Y16462486D01*
X63484633Y16477104D01*
X63580609Y16516859D01*
X63652770Y16631703D01*
X63200000Y17084474D01*
X62747230Y16631703D01*
X62764637Y16604000D01*
X62235363Y16604000D01*
X62252770Y16631703D01*
X61800000Y17084474D01*
X61347230Y16631703D01*
X61364637Y16604000D01*
X60835363Y16604000D01*
X60852770Y16631703D01*
X60400000Y17084474D01*
X60385858Y17070331D01*
X60170331Y17285858D01*
X60184474Y17300000D01*
X60615526Y17300000D01*
X61068297Y16847230D01*
X61100000Y16867150D01*
X61131703Y16847230D01*
X61584474Y17300000D01*
X62015526Y17300000D01*
X62468297Y16847230D01*
X62500000Y16867150D01*
X62531703Y16847230D01*
X62984474Y17300000D01*
X62531703Y17752770D01*
X62500000Y17732850D01*
X62468297Y17752770D01*
X62015526Y17300000D01*
X61584474Y17300000D01*
X61131703Y17752770D01*
X61100000Y17732850D01*
X61068297Y17752770D01*
X60615526Y17300000D01*
X60184474Y17300000D01*
X60170331Y17314142D01*
X60385858Y17529669D01*
X60400000Y17515526D01*
X60852770Y17968297D01*
X61347230Y17968297D01*
X61800000Y17515526D01*
X62252770Y17968297D01*
X62747230Y17968297D01*
X63200000Y17515526D01*
X63652770Y17968297D01*
X63580609Y18083141D01*
X63251942Y18169181D01*
X62915367Y18122896D01*
X62819391Y18083141D01*
X62747230Y17968297D01*
X62252770Y17968297D01*
X62180609Y18083141D01*
X61851942Y18169181D01*
X61515367Y18122896D01*
X61419391Y18083141D01*
X61347230Y17968297D01*
X60852770Y17968297D01*
X60780609Y18083141D01*
X60451942Y18169181D01*
X60115367Y18122896D01*
X60019391Y18083141D01*
X59947231Y17968298D01*
X59901600Y18013929D01*
X59901600Y18721704D01*
X60002108Y18822037D01*
X60211361Y19325975D01*
X60211837Y19871631D01*
X60059298Y20240805D01*
X60231637Y20355958D01*
X60445008Y20398400D01*
X63200680Y20398400D01*
X64499540Y19099540D01*
G36*
X37152400Y4252400D02*
X37172400Y4252400D01*
X37172400Y3947600D01*
X37152400Y3947600D01*
X37152400Y3334500D01*
X37215900Y3271000D01*
X37775524Y3271000D01*
X37868879Y3309669D01*
X37940331Y3381120D01*
X37979000Y3474476D01*
X37979000Y3626932D01*
X38083078Y3557389D01*
X38119703Y3542218D01*
X38330179Y3500352D01*
X38350000Y3498400D01*
X38536200Y3498400D01*
X38536200Y2802900D01*
X38599700Y2739400D01*
X38942600Y2739400D01*
X38942600Y2759400D01*
X39247400Y2759400D01*
X39247400Y2739400D01*
X39267400Y2739400D01*
X39267400Y2434600D01*
X39247400Y2434600D01*
X39247400Y2414600D01*
X38942600Y2414600D01*
X38942600Y2434600D01*
X38599700Y2434600D01*
X38536200Y2371100D01*
X38536200Y1801600D01*
X36845008Y1801600D01*
X36631637Y1844042D01*
X36459236Y1959236D01*
X36344042Y2131637D01*
X36301600Y2345008D01*
X36301600Y3271000D01*
X36784100Y3271000D01*
X36847600Y3334500D01*
X36847600Y3947600D01*
X36827600Y3947600D01*
X36827600Y4252400D01*
X36847600Y4252400D01*
X36847600Y4272400D01*
X37152400Y4272400D01*
X37152400Y4252400D01*
X37152400Y4252400D01*
G37*
X37152400Y4252400D02*
X37172400Y4252400D01*
X37172400Y3947600D01*
X37152400Y3947600D01*
X37152400Y3334500D01*
X37215900Y3271000D01*
X37775524Y3271000D01*
X37868879Y3309669D01*
X37940331Y3381120D01*
X37979000Y3474476D01*
X37979000Y3626932D01*
X38083078Y3557389D01*
X38119703Y3542218D01*
X38330179Y3500352D01*
X38350000Y3498400D01*
X38536200Y3498400D01*
X38536200Y2802900D01*
X38599700Y2739400D01*
X38942600Y2739400D01*
X38942600Y2759400D01*
X39247400Y2759400D01*
X39247400Y2739400D01*
X39267400Y2739400D01*
X39267400Y2434600D01*
X39247400Y2434600D01*
X39247400Y2414600D01*
X38942600Y2414600D01*
X38942600Y2434600D01*
X38599700Y2434600D01*
X38536200Y2371100D01*
X38536200Y1801600D01*
X36845008Y1801600D01*
X36631637Y1844042D01*
X36459236Y1959236D01*
X36344042Y2131637D01*
X36301600Y2345008D01*
X36301600Y3271000D01*
X36784100Y3271000D01*
X36847600Y3334500D01*
X36847600Y3947600D01*
X36827600Y3947600D01*
X36827600Y4252400D01*
X36847600Y4252400D01*
X36847600Y4272400D01*
X37152400Y4272400D01*
X37152400Y4252400D01*
G36*
X62902400Y4252400D02*
X62922400Y4252400D01*
X62922400Y3947600D01*
X62902400Y3947600D01*
X62902400Y3334500D01*
X62965900Y3271000D01*
X63525524Y3271000D01*
X63618879Y3309669D01*
X63690331Y3381120D01*
X63729000Y3474476D01*
X63729000Y3626932D01*
X63833078Y3557389D01*
X63869703Y3542218D01*
X64080179Y3500352D01*
X64100000Y3498400D01*
X64286200Y3498400D01*
X64286200Y2802900D01*
X64349700Y2739400D01*
X64692600Y2739400D01*
X64692600Y2759400D01*
X64997400Y2759400D01*
X64997400Y2739400D01*
X65017400Y2739400D01*
X65017400Y2434600D01*
X64997400Y2434600D01*
X64997400Y2414600D01*
X64692600Y2414600D01*
X64692600Y2434600D01*
X64349700Y2434600D01*
X64286200Y2371100D01*
X64286200Y1801600D01*
X62595008Y1801600D01*
X62381637Y1844042D01*
X62209236Y1959236D01*
X62094042Y2131637D01*
X62051600Y2345008D01*
X62051600Y3271000D01*
X62534100Y3271000D01*
X62597600Y3334500D01*
X62597600Y3947600D01*
X62577600Y3947600D01*
X62577600Y4252400D01*
X62597600Y4252400D01*
X62597600Y4272400D01*
X62902400Y4272400D01*
X62902400Y4252400D01*
X62902400Y4252400D01*
G37*
X62902400Y4252400D02*
X62922400Y4252400D01*
X62922400Y3947600D01*
X62902400Y3947600D01*
X62902400Y3334500D01*
X62965900Y3271000D01*
X63525524Y3271000D01*
X63618879Y3309669D01*
X63690331Y3381120D01*
X63729000Y3474476D01*
X63729000Y3626932D01*
X63833078Y3557389D01*
X63869703Y3542218D01*
X64080179Y3500352D01*
X64100000Y3498400D01*
X64286200Y3498400D01*
X64286200Y2802900D01*
X64349700Y2739400D01*
X64692600Y2739400D01*
X64692600Y2759400D01*
X64997400Y2759400D01*
X64997400Y2739400D01*
X65017400Y2739400D01*
X65017400Y2434600D01*
X64997400Y2434600D01*
X64997400Y2414600D01*
X64692600Y2414600D01*
X64692600Y2434600D01*
X64349700Y2434600D01*
X64286200Y2371100D01*
X64286200Y1801600D01*
X62595008Y1801600D01*
X62381637Y1844042D01*
X62209236Y1959236D01*
X62094042Y2131637D01*
X62051600Y2345008D01*
X62051600Y3271000D01*
X62534100Y3271000D01*
X62597600Y3334500D01*
X62597600Y3947600D01*
X62577600Y3947600D01*
X62577600Y4252400D01*
X62597600Y4252400D01*
X62597600Y4272400D01*
X62902400Y4272400D01*
X62902400Y4252400D01*
M02*
