M48
INCH,TZ
T1C0.024
T2C0.025
T3C0.039
T4C0.040
T5C0.046
T6C0.050
T7C0.060
T8C0.080
T9C0.120
T10C0.118
%
G90
G05
T1
X005236Y026772
X006890Y007520
X008504Y027520
X009055Y000394
X009370Y022047
X009961Y027520
X012126Y027520
X013661Y006811
X014213Y006811
X014803Y006811
X015039Y019449
X015039Y014921
X015748Y011811
X015866Y001693
X016378Y002244
X016378Y001693
X016457Y005236
X016457Y004646
X016969Y004921
X017618Y019193
X017638Y014882
X017992Y005217
X017992Y003839
X018110Y009843
X018543Y005217
X018543Y003839
X019094Y005217
X019094Y003839
X020256Y019764
X020394Y012677
X021772Y012323
X023031Y023740
X023780Y006811
X024331Y006811
X024882Y006811
X025000Y014370
X026024Y018976
X026024Y001693
X026181Y010728
X026535Y002244
X026535Y001693
X026614Y005197
X026614Y004646
X026732Y022717
X026772Y019213
X026772Y012402
X027087Y004921
X027441Y027402
X027520Y018976
X028130Y005217
X028130Y003937
X028681Y005217
X028681Y003937
X028898Y025984
X029232Y005217
X029232Y003937
X029567Y022717
X030610Y010728
X032835Y025984
T2
X004646Y026063
X010394Y026811
X010394Y022913
X012087Y020512
X012283Y023898
X012303Y024409
X012323Y025394
X012323Y024882
X014449Y009961
X015472Y004567
X015748Y022756
X019685Y017835
X020472Y010039
X020630Y009173
X020866Y009646
X020945Y015000
X021024Y013228
X021260Y011614
X021358Y010039
X021417Y015000
X021575Y013307
X021752Y009843
X022146Y010039
X022441Y015157
X022736Y020768
X023071Y015472
X023484Y012047
X023504Y014291
X023504Y013661
X023504Y012992
X023543Y015472
X025197Y009291
X025433Y013228
X025787Y016102
X025827Y015394
X025827Y008465
X026339Y013110
X027835Y017205
X027835Y016457
X027835Y015472
X028937Y008228
X031693Y025512
T3
X009055Y018701
X009055Y017126
X009055Y014173
X009055Y012598
X010055Y018413
X010055Y017413
X010055Y013886
X010055Y012886
X024606Y024803
X024606Y023819
X024606Y022835
X024606Y021850
X024606Y020866
T4
X001655Y019313
X001655Y016513
X001655Y014786
X001655Y011986
X002232Y005413
X003232Y005413
X004232Y005413
X005232Y005413
X006232Y005413
X011008Y007717
X012008Y007717
X013008Y007717
X016535Y018913
X016535Y017913
X016535Y016913
X016535Y014386
X016535Y013386
X016535Y012386
X020063Y017232
X020063Y016232
X021063Y017232
X021063Y016232
X021165Y007717
X022063Y017232
X022063Y016232
X022165Y007717
X023165Y007717
X025109Y029528
X025109Y026978
X025484Y027728
X026484Y027728
X026859Y029528
X026859Y026978
X027953Y024433
X027953Y023433
X027953Y022433
X027953Y021433
X029046Y029528
X029046Y026978
X029421Y027728
X030421Y027728
X030796Y029528
X030796Y026978
X030807Y024433
X030807Y023433
X030807Y022433
X030807Y021433
X032983Y029528
X032983Y026978
X033161Y001969
X033358Y027728
X034161Y001969
X034358Y027728
X034733Y029528
X034733Y026978
X035827Y025531
X035827Y024531
X035827Y023531
X035827Y022531
X035827Y021531
X035827Y020531
T6
X024609Y028528
X027359Y028528
X028546Y028528
X031296Y028528
X032483Y028528
X035233Y028528
T7
X008055Y019493
X008055Y016333
X008055Y014966
X008055Y011806
T8
X034154Y019307
X034154Y011007
T9
X001575Y029921
X001575Y001575
X037402Y029921
X037402Y001575
T10
X005118Y029921
X010630Y029921
X016142Y029921
X021654Y029921
T5
X031754Y006438G85X031754Y007578
G05
X033374Y009008G85X032434Y009008
G05
X034154Y006538G85X034154Y007478
G05
T0
M30
