  0
SECTION
  2
BLOCKS
  0
ENDSEC
  0
SECTION
  2
ENTITIES
  0
LINE
  8
0
 10
185.46
 20
211.301
 11
7.5
 21
211.301
  0
LINE
  8
0
 10
7.5
 20
211.301
 11
7.5
 21
105.921
  0
LINE
  8
0
 10
7.5
 20
105.921
 11
185.46
 21
105.921
  0
LINE
  8
0
 10
185.46
 20
105.921
 11
185.46
 21
211.301
  0
LINE
  8
0
 10
187.401
 20
0.255554
 11
189.21
 21
1.00481
  0
LINE
  8
0
 10
189.21
 20
1.00481
 11
190.763
 21
2.19669
  0
LINE
  8
0
 10
190.763
 20
2.19669
 11
191.955
 21
3.74998
  0
LINE
  8
0
 10
191.955
 20
3.74998
 11
192.704
 21
5.55885
  0
LINE
  8
0
 10
192.704
 20
5.55885
 11
192.96
 21
7.5
  0
LINE
  8
0
 10
192.96
 20
7.5
 11
192.704
 21
9.44113
  0
LINE
  8
0
 10
192.704
 20
9.44113
 11
191.955
 21
11.25
  0
LINE
  8
0
 10
191.955
 20
11.25
 11
191.46
 21
11.8953
  0
LINE
  8
0
 10
191.46
 20
11.8953
 11
191.46
 21
85.0304
  0
LINE
  8
0
 10
191.46
 20
85.0304
 11
191.955
 21
85.6758
  0
LINE
  8
0
 10
191.955
 20
85.6758
 11
192.704
 21
87.4846
  0
LINE
  8
0
 10
192.704
 20
87.4846
 11
192.96
 21
89.4258
  0
LINE
  8
0
 10
192.96
 20
89.4258
 11
192.704
 21
91.3669
  0
LINE
  8
0
 10
192.704
 20
91.3669
 11
191.955
 21
93.1758
  0
LINE
  8
0
 10
191.955
 20
93.1758
 11
190.763
 21
94.7291
  0
LINE
  8
0
 10
190.763
 20
94.7291
 11
189.21
 21
95.921
  0
LINE
  8
0
 10
189.21
 20
95.921
 11
187.401
 21
96.6702
  0
LINE
  8
0
 10
187.401
 20
96.6702
 11
185.46
 21
96.9258
  0
LINE
  8
0
 10
185.46
 20
96.9258
 11
183.519
 21
96.6702
  0
LINE
  8
0
 10
183.519
 20
96.6702
 11
181.71
 21
95.921
  0
LINE
  8
0
 10
181.71
 20
95.921
 11
180.157
 21
94.7291
  0
LINE
  8
0
 10
180.157
 20
94.7291
 11
179.808
 21
94.2741
  0
LINE
  8
0
 10
179.808
 20
94.2741
 11
13.1524
 21
94.2741
  0
LINE
  8
0
 10
13.1524
 20
94.2741
 11
12.8033
 21
94.7291
  0
LINE
  8
0
 10
12.8033
 20
94.7291
 11
11.25
 21
95.921
  0
LINE
  8
0
 10
11.25
 20
95.921
 11
9.44113
 21
96.6702
  0
LINE
  8
0
 10
9.44113
 20
96.6702
 11
7.5
 21
96.9258
  0
LINE
  8
0
 10
7.5
 20
96.9258
 11
5.55885
 21
96.6702
  0
LINE
  8
0
 10
5.55885
 20
96.6702
 11
3.75
 21
95.921
  0
LINE
  8
0
 10
3.75
 20
95.921
 11
2.19669
 21
94.7291
  0
LINE
  8
0
 10
2.19669
 20
94.7291
 11
1.00481
 21
93.1758
  0
LINE
  8
0
 10
1.00481
 20
93.1758
 11
0.255554
 21
91.3669
  0
LINE
  8
0
 10
0.255554
 20
91.3669
 11
0
 21
89.4258
  0
LINE
  8
0
 10
0
 20
89.4258
 11
0.255554
 21
87.4846
  0
LINE
  8
0
 10
0.255554
 20
87.4846
 11
1.00481
 21
85.6758
  0
LINE
  8
0
 10
1.00481
 20
85.6758
 11
1.5
 21
85.0304
  0
LINE
  8
0
 10
1.5
 20
85.0304
 11
1.5
 21
11.8953
  0
LINE
  8
0
 10
1.5
 20
11.8953
 11
1.00481
 21
11.25
  0
LINE
  8
0
 10
1.00481
 20
11.25
 11
0.255554
 21
9.44113
  0
LINE
  8
0
 10
0.255554
 20
9.44113
 11
0
 21
7.5
  0
LINE
  8
0
 10
0
 20
7.5
 11
0.255554
 21
5.55885
  0
LINE
  8
0
 10
0.255554
 20
5.55885
 11
1.00481
 21
3.75
  0
LINE
  8
0
 10
1.00481
 20
3.75
 11
2.19669
 21
2.19669
  0
LINE
  8
0
 10
2.19669
 20
2.19669
 11
3.74998
 21
1.00481
  0
LINE
  8
0
 10
3.74998
 20
1.00481
 11
5.55885
 21
0.255554
  0
LINE
  8
0
 10
5.55885
 20
0.255554
 11
7.49998
 21
0
  0
LINE
  8
0
 10
7.49998
 20
0
 11
9.44113
 21
0.255554
  0
LINE
  8
0
 10
9.44113
 20
0.255554
 11
11.25
 21
1.00481
  0
LINE
  8
0
 10
11.25
 20
1.00481
 11
12.0867
 21
1.64682
  0
LINE
  8
0
 10
12.0867
 20
1.64682
 11
180.873
 21
1.64682
  0
LINE
  8
0
 10
180.873
 20
1.64682
 11
181.71
 21
1.00481
  0
LINE
  8
0
 10
181.71
 20
1.00481
 11
183.519
 21
0.255554
  0
LINE
  8
0
 10
183.519
 20
0.255554
 11
185.46
 21
0
  0
LINE
  8
0
 10
185.46
 20
0
 11
187.401
 21
0.255554
  0
LINE
  8
0
 10
184.651
 20
88.838
 11
184.651
 21
90.0136
  0
LINE
  8
0
 10
184.651
 20
90.0136
 11
185.769
 21
90.3768
  0
LINE
  8
0
 10
185.769
 20
90.3768
 11
186.46
 21
89.4258
  0
LINE
  8
0
 10
186.46
 20
89.4258
 11
185.769
 21
88.4747
  0
LINE
  8
0
 10
185.769
 20
88.4747
 11
184.651
 21
88.838
  0
LINE
  8
0
 10
6.69098
 20
88.838
 11
6.69098
 21
90.0136
  0
LINE
  8
0
 10
6.69098
 20
90.0136
 11
7.80901
 21
90.3768
  0
LINE
  8
0
 10
7.80901
 20
90.3768
 11
8.5
 21
89.4258
  0
LINE
  8
0
 10
8.5
 20
89.4258
 11
7.80901
 21
88.4747
  0
LINE
  8
0
 10
7.80901
 20
88.4747
 11
6.69098
 21
88.838
  0
LINE
  8
0
 10
184.651
 20
6.9122
 11
184.651
 21
8.08778
  0
LINE
  8
0
 10
184.651
 20
8.08778
 11
185.769
 21
8.45105
  0
LINE
  8
0
 10
185.769
 20
8.45105
 11
186.46
 21
7.5
  0
LINE
  8
0
 10
186.46
 20
7.5
 11
185.769
 21
6.54893
  0
LINE
  8
0
 10
185.769
 20
6.54893
 11
184.651
 21
6.9122
  0
LINE
  8
0
 10
6.69098
 20
6.9122
 11
6.69098
 21
8.08778
  0
LINE
  8
0
 10
6.69098
 20
8.08778
 11
7.80901
 21
8.45105
  0
LINE
  8
0
 10
7.80901
 20
8.45105
 11
8.5
 21
7.5
  0
LINE
  8
0
 10
8.5
 20
7.5
 11
7.80901
 21
6.54893
  0
LINE
  8
0
 10
7.80901
 20
6.54893
 11
6.69098
 21
6.9122
  0
LINE
  8
0
 10
-10
 20
88.921
 11
-110
 21
88.921
  0
LINE
  8
0
 10
-110
 20
88.921
 11
-110
 21
86.6025
  0
LINE
  8
0
 10
-110
 20
86.6025
 11
-64.6188
 21
8
  0
LINE
  8
0
 10
-64.6188
 20
8
 11
-10
 21
8
  0
LINE
  8
0
 10
-10
 20
8
 11
-10
 21
88.921
  0
LINE
  8
0
 10
312.96
 20
86.6025
 11
312.96
 21
88.921
  0
LINE
  8
0
 10
312.96
 20
88.921
 11
212.96
 21
88.921
  0
LINE
  8
0
 10
212.96
 20
88.921
 11
212.96
 21
8
  0
LINE
  8
0
 10
212.96
 20
8
 11
267.579
 21
8
  0
LINE
  8
0
 10
267.579
 20
8
 11
312.96
 21
86.6025
  0
LINE
  8
0
 10
185.46
 20
-10
 11
7.5
 21
-10
  0
LINE
  8
0
 10
7.5
 20
-10
 11
7.5
 21
-60
  0
LINE
  8
0
 10
7.5
 20
-60
 11
185.46
 21
-60
  0
LINE
  8
0
 10
185.46
 20
-60
 11
185.46
 21
-10
  0
ENDSEC
  0
SECTION
  2
OBJECTS
  0
DICTIONARY
  0
ENDSEC
  0
EOF
